<?xml version="1.0" encoding="UTF-8" standalone="no"?>
<svg width="20px" height="16px" viewBox="0 0 20 16" version="1.1" xmlns="http://www.w3.org/2000/svg" xmlns:xlink="http://www.w3.org/1999/xlink">
    <!-- Generator: Sketch 39.1 (31720) - http://www.bohemiancoding.com/sketch -->
    <title>icon-twitter</title>
    <desc>Created with Sketch.</desc>
    <defs></defs>
    <g id="Page-1" stroke="none" stroke-width="1" fill="none" fill-rule="evenodd">
        <g id="Desktop" transform="translate(-1085.000000, -2686.000000)" fill="#333333">
            <g id="FOOTER" transform="translate(80.000000, 2665.000000)">
                <path d="M1018.36339,21.0035516 L1018.36339,21 L1018.83228,21 L1019.30117,21 L1019.64382,21.0674806 C1019.87226,21.1112897 1020.07966,21.1687014 1020.26601,21.2397336 C1020.45237,21.3107658 1020.63271,21.3936426 1020.80703,21.4883463 C1020.98137,21.5830499 1021.13948,21.6795472 1021.28135,21.7778024 C1021.42202,21.8748857 1021.54826,21.9778824 1021.66007,22.0867925 C1021.77066,22.1968923 1021.94319,22.2253052 1022.17764,22.1720311 C1022.41208,22.1187569 1022.66456,22.0447592 1022.93508,21.9500555 C1023.20559,21.8553518 1023.47311,21.7488036 1023.7376,21.6304107 C1024.00211,21.5120178 1024.16323,21.4368479 1024.22094,21.4048835 C1024.27744,21.3717469 1024.3075,21.3539889 1024.31111,21.3516093 L1024.3147,21.3462819 L1024.33273,21.3374029 L1024.35077,21.3285239 L1024.3688,21.3196448 L1024.38683,21.3107658 L1024.39044,21.3054384 L1024.39585,21.3018868 L1024.40128,21.2983352 L1024.40487,21.2930078 L1024.4229,21.2876804 L1024.44094,21.2841287 L1024.43735,21.3107658 L1024.43192,21.3374029 L1024.4229,21.36404 L1024.41389,21.390677 L1024.40487,21.4084351 L1024.39585,21.4261931 L1024.38683,21.4528302 C1024.38083,21.4705882 1024.37482,21.4942597 1024.3688,21.5238624 C1024.3628,21.553465 1024.30568,21.6718402 1024.19748,21.8790233 C1024.08927,22.0862064 1023.95401,22.2963374 1023.7917,22.509434 C1023.6294,22.7225305 1023.48393,22.883525 1023.35529,22.9924528 C1023.22545,23.1025527 1023.13948,23.1794983 1023.09739,23.2233074 C1023.05531,23.2682886 1023.00422,23.3097181 1022.94409,23.3476138 L1022.85392,23.4062153 L1022.83589,23.4150943 L1022.81785,23.4239734 L1022.81427,23.4293008 L1022.80884,23.4328524 L1022.80343,23.436404 L1022.79982,23.4417314 L1022.78179,23.4506104 L1022.76375,23.4594895 L1022.76016,23.4648169 L1022.75473,23.4683685 L1022.74932,23.4719201 L1022.74572,23.4772475 L1022.74213,23.4825749 L1022.7367,23.4861265 L1022.73129,23.4896781 L1022.72768,23.4950055 L1022.77277,23.4950055 L1022.81785,23.4950055 L1023.32281,23.3884573 C1023.65946,23.3174251 1023.98106,23.2316004 1024.28765,23.1309656 C1024.59423,23.0303307 1024.75654,22.9770566 1024.77457,22.9711432 C1024.79261,22.9652297 1024.81064,22.9592986 1024.82867,22.9533851 L1024.85573,22.9445061 L1024.87376,22.9356271 L1024.89179,22.9267481 L1024.90983,22.917869 L1024.92786,22.90899 L1024.96393,22.9036626 L1025,22.900111 L1025,22.917869 L1025,22.9356271 L1024.99098,22.9391787 L1024.98197,22.9445061 L1024.97838,22.9498335 L1024.97295,22.9533851 L1024.96754,22.9569367 L1024.96393,22.9622642 L1024.96034,22.9675916 L1024.95491,22.9711432 L1024.9495,22.9746948 L1024.9459,22.9800222 L1024.94231,22.9853496 L1024.93688,22.9889012 L1024.92786,23.0066593 L1024.91885,23.0244173 L1024.91344,23.0279689 C1024.91104,23.0315205 1024.8347,23.1321376 1024.6844,23.3298557 C1024.53412,23.5287458 1024.45297,23.6293629 1024.44094,23.6317425 C1024.42893,23.6352941 1024.41208,23.6530522 1024.39044,23.6850166 C1024.37001,23.7181532 1024.24256,23.8501665 1024.00812,24.0810211 C1023.77367,24.3118757 1023.54406,24.5172653 1023.31922,24.6972253 C1023.0932,24.8783574 1022.97897,25.100919 1022.97657,25.3649279 C1022.97297,25.6277469 1022.95913,25.9249101 1022.93508,26.2563818 C1022.91104,26.5878713 1022.86595,26.94598 1022.79982,27.3307436 C1022.73371,27.7155072 1022.63151,28.1505794 1022.49324,28.63596 C1022.35499,29.1213407 1022.18665,29.5948946 1021.98828,30.0566038 C1021.7899,30.518313 1021.58251,30.9326615 1021.3661,31.299667 C1021.14968,31.6666726 1020.95131,31.9774384 1020.77096,32.2319645 C1020.59062,32.4864906 1020.40729,32.7262242 1020.22092,32.9511654 C1020.03457,33.1761065 1019.79894,33.4294606 1019.51399,33.7112098 C1019.22784,33.9917869 1019.07156,34.1456959 1019.0451,34.172919 C1019.01746,34.19897 1018.89964,34.2960533 1018.69161,34.4641509 C1018.48483,34.6334384 1018.2624,34.8027259 1018.02435,34.9720311 C1017.7875,35.1401465 1017.56988,35.2804351 1017.37151,35.3928968 C1017.17313,35.5053585 1016.93389,35.6338024 1016.65374,35.7782464 C1016.37482,35.9238624 1016.07304,36.0588235 1015.74842,36.1831299 C1015.42381,36.3074362 1015.08115,36.4228635 1014.72047,36.5294118 C1014.35978,36.63596 1014.01113,36.7188368 1013.67448,36.7780244 C1013.33785,36.837212 1012.95612,36.8875383 1012.52931,36.9289678 L1011.88909,36.991121 L1011.88909,36.9964484 L1011.88909,37 L1011.30298,37 L1010.71686,37 L1010.71686,36.9964484 L1010.71686,36.991121 L1010.56357,36.982242 C1010.46139,36.9763285 1010.37722,36.9703973 1010.31109,36.9644839 C1010.24498,36.9585705 1009.99549,36.9260022 1009.56267,36.8668147 C1009.12985,36.8076271 1008.79021,36.7484218 1008.54373,36.6892342 C1008.29728,36.6300466 1007.93057,36.5175671 1007.44364,36.3518313 C1006.95672,36.1860954 1006.54013,36.018566 1006.19387,35.8492786 C1005.84882,35.6811632 1005.63241,35.5746149 1005.54463,35.5296337 C1005.45807,35.4858246 1005.36069,35.4313785 1005.25248,35.3662597 L1005.09017,35.2685905 L1005.08658,35.263263 L1005.08115,35.2597114 L1005.07574,35.2561598 L1005.07214,35.2508324 L1005.0541,35.2419534 L1005.03607,35.2330744 L1005.03248,35.2277469 L1005.02705,35.2241953 L1005.02164,35.2206437 L1005.01803,35.2153163 L1005.01445,35.2099889 L1005.00902,35.2064373 L1005.00361,35.2064373 L1005,35.2064373 L1005,35.1886792 L1005,35.1709212 L1005.01803,35.1744728 L1005.03607,35.1798002 L1005.11722,35.1886792 C1005.17133,35.1945927 1005.31861,35.2034717 1005.55906,35.2153163 C1005.79953,35.2271609 1006.055,35.2271609 1006.32552,35.2153163 C1006.59603,35.2034717 1006.87257,35.1768346 1007.15509,35.1354051 C1007.43764,35.0939756 1007.77127,35.0229434 1008.156,34.9223085 C1008.54074,34.8216737 1008.89421,34.7021088 1009.21643,34.563596 C1009.53744,34.4239112 1009.76586,34.3197248 1009.90173,34.2510544 C1010.03638,34.1835738 1010.24197,34.0580777 1010.51849,33.8745838 L1010.93327,33.5993341 L1010.93688,33.5940067 L1010.94229,33.590455 L1010.94772,33.5869034 L1010.95131,33.581576 L1010.95491,33.5762486 L1010.96032,33.572697 L1010.96575,33.5691454 L1010.96934,33.563818 L1010.98738,33.5584906 L1011.00541,33.554939 L1011.00902,33.5371809 L1011.01443,33.5194229 L1011.01986,33.5158713 L1011.02344,33.5105438 L1010.87917,33.5016648 C1010.78299,33.4957514 1010.68981,33.4898202 1010.59964,33.4839068 C1010.50947,33.4779933 1010.36821,33.4513563 1010.17583,33.4039956 C1009.98348,33.3566349 1009.77609,33.2856027 1009.55365,33.190899 C1009.33124,33.0961953 1009.11482,32.9837159 1008.90442,32.8534961 C1008.69403,32.7232764 1008.54193,32.6149345 1008.44815,32.5285239 C1008.35558,32.4432675 1008.23535,32.3225305 1008.08747,32.1662597 C1007.94079,32.0088169 1007.81335,31.8472009 1007.70514,31.681465 C1007.59693,31.5157292 1007.49354,31.3245105 1007.39497,31.1078801 L1007.24527,30.7846837 L1007.23625,30.7580466 L1007.22723,30.7314095 L1007.22182,30.7136515 L1007.21821,30.6958935 L1007.24527,30.6994451 L1007.27232,30.7047725 L1007.47069,30.7314095 C1007.60296,30.7491676 1007.81035,30.755081 1008.09288,30.7491676 C1008.37542,30.7432542 1008.57078,30.7314095 1008.67899,30.7136515 C1008.7872,30.6958935 1008.85333,30.6840488 1008.87737,30.6781354 L1008.91344,30.6692564 L1008.95852,30.6603774 L1009.00361,30.6514983 L1009.00721,30.6461709 L1009.01262,30.6426193 L1009.01805,30.6390677 L1009.02164,30.6337403 L1008.98557,30.6248613 L1008.9495,30.6159822 L1008.91344,30.6071032 L1008.87737,30.5982242 L1008.8413,30.5893452 C1008.81726,30.5834317 1008.77518,30.5715871 1008.71506,30.5538291 C1008.65495,30.536071 1008.49264,30.4709523 1008.22813,30.3584906 C1007.96364,30.2460289 1007.75324,30.136515 1007.59693,30.0299667 C1007.44065,29.9234184 1007.29156,29.8068191 1007.14968,29.6801332 C1007.00902,29.5522752 1006.85454,29.3877114 1006.6862,29.1864595 C1006.51789,28.9852075 1006.36761,28.7513873 1006.23535,28.4850166 C1006.1031,28.2186459 1006.00391,27.9641199 1005.93778,27.7214206 C1005.87167,27.4787214 1005.82839,27.2330744 1005.80795,26.9844617 L1005.77547,26.6115427 L1005.79351,26.6150943 L1005.81154,26.6204218 L1005.82958,26.6293008 L1005.84761,26.6381798 L1005.86564,26.6470588 L1005.88368,26.6559378 L1006.16321,26.7802442 C1006.34958,26.863121 1006.58101,26.9341532 1006.85753,26.9933407 C1007.13407,27.0525283 1007.29937,27.0850966 1007.35347,27.09101 L1007.43463,27.099889 L1007.51578,27.099889 L1007.59693,27.099889 L1007.59335,27.0945616 L1007.58792,27.09101 L1007.58251,27.0874584 L1007.5789,27.082131 L1007.57531,27.0768036 L1007.56988,27.0732519 L1007.56447,27.0697003 L1007.56087,27.0643729 L1007.54283,27.0554939 L1007.5248,27.0466149 L1007.52121,27.0412875 L1007.51578,27.0377358 L1007.51037,27.0341842 L1007.50676,27.0288568 L1007.48873,27.0199778 L1007.47069,27.0110988 L1007.46711,27.0057714 C1007.4635,27.0033918 1007.41179,26.9655139 1007.31199,26.8921199 C1007.2134,26.8175361 1007.11001,26.7210566 1007.0018,26.6026637 C1006.8936,26.4842708 1006.78539,26.3599645 1006.67719,26.2297447 C1006.56898,26.099525 1006.4728,25.9604084 1006.38864,25.8124306 C1006.30449,25.6644528 1006.21551,25.4761998 1006.12173,25.2477248 C1006.02916,25.0204218 1005.95883,24.791343 1005.91073,24.5604883 C1005.86265,24.3296337 1005.8356,24.1017447 1005.82958,23.8768036 C1005.82357,23.6518624 1005.82958,23.4594895 1005.84761,23.299667 C1005.86564,23.1398446 1005.90171,22.9592986 1005.95582,22.7580466 C1006.00992,22.5567947 1006.08808,22.3436981 1006.19026,22.1187569 L1006.34355,21.7813541 L1006.35257,21.754717 L1006.36159,21.7280799 L1006.36702,21.7245283 L1006.3706,21.7192009 L1006.37421,21.7138735 L1006.37962,21.7103219 L1006.38505,21.7138735 L1006.38864,21.7192009 L1006.39225,21.7245283 L1006.39766,21.7280799 L1006.40308,21.7316315 L1006.40667,21.7369589 L1006.41028,21.7422863 L1006.41569,21.745838 L1006.42471,21.763596 L1006.43372,21.7813541 L1006.43915,21.7849057 L1006.44274,21.7902331 L1006.6862,22.0566038 C1006.84851,22.2341842 1007.04088,22.4324883 1007.2633,22.6514983 C1007.48573,22.8705083 1007.60896,22.9841598 1007.633,22.9924528 C1007.65706,23.0019179 1007.68711,23.029141 1007.72317,23.0741398 C1007.75924,23.1179489 1007.87948,23.2227214 1008.08386,23.3884573 C1008.28826,23.5541931 1008.55576,23.7465838 1008.88638,23.9655938 C1009.21702,24.1846038 1009.58372,24.4006659 1009.98647,24.6137625 C1010.38925,24.826859 1010.82207,25.019232 1011.28494,25.190899 C1011.74783,25.362566 1012.07244,25.4750277 1012.25879,25.5283019 C1012.44516,25.581576 1012.76375,25.6496426 1013.21461,25.7325194 C1013.66546,25.8153962 1014.00512,25.8686704 1014.23354,25.8923418 C1014.46198,25.9160133 1014.61829,25.9296337 1014.70243,25.9331853 L1014.82867,25.936737 L1014.82509,25.9100999 L1014.81966,25.8834628 L1014.78359,25.6614872 C1014.75955,25.5135094 1014.74752,25.3063263 1014.74752,25.0399556 C1014.74752,24.7735849 1014.76857,24.5279378 1014.81064,24.3029967 C1014.85273,24.0780555 1014.91585,23.8501665 1015,23.6193119 C1015.08417,23.3884573 1015.16653,23.2031698 1015.24707,23.063485 C1015.32884,22.9249723 1015.43583,22.7669256 1015.56808,22.5893452 C1015.70034,22.4117647 1015.87167,22.2282708 1016.08206,22.0388457 C1016.29246,21.8494206 1016.53291,21.6807192 1016.80343,21.5327414 C1017.07394,21.3847636 1017.32343,21.2722841 1017.55185,21.1953385 C1017.78029,21.1183929 1017.97266,21.0680666 1018.12894,21.0443951 C1018.28525,21.0207236 1018.36339,21.0071032 1018.36339,21.0035516 L1018.36339,21.0035516 Z" id="icon-twitter"></path>
            </g>
        </g>
    </g>
</svg>