<?xml version="1.0" encoding="UTF-8" standalone="no"?>
<svg width="20px" height="20px" viewBox="0 0 20 20" version="1.1" xmlns="http://www.w3.org/2000/svg" xmlns:xlink="http://www.w3.org/1999/xlink">
    <!-- Generator: Sketch 39.1 (31720) - http://www.bohemiancoding.com/sketch -->
    <title>slack</title>
    <desc>Created with Sketch.</desc>
    <defs></defs>
    <g id="Page-1" stroke="none" stroke-width="1" fill="none" fill-rule="evenodd">
        <g id="Desktop" transform="translate(-981.000000, -2684.000000)" fill="#333333">
            <g id="FOOTER" transform="translate(80.000000, 2665.000000)">
                <g id="slack" transform="translate(901.000000, 19.000000)">
                    <polygon id="Rectangle-path" points="9.27590175 11.5440491 8.42896842 9.01551579 11.0573123 8.13515088 11.9042456 10.6636842"></polygon>
                    <path d="M19.1578947,7.15789474 C17.122807,0.421052632 14.2105263,-1.15789474 7.43859649,0.842105263 C0.701754386,2.87719298 -0.877192982,5.78947368 1.12280702,12.5614035 C3.15789474,19.2982456 6.07017544,20.877193 12.8421053,18.877193 C19.6140351,16.8421053 21.1929825,13.8947368 19.1578947,7.15789474 L19.1578947,7.15789474 L19.1578947,7.15789474 Z M15.754386,11.5438596 L14.4912281,11.9649123 L14.9473684,13.2982456 C15.122807,13.8245614 14.8421053,14.4210526 14.3157895,14.5964912 C14.2105263,14.6315789 14.0701754,14.6666667 13.9649123,14.6666667 C13.5438596,14.6666667 13.1578947,14.3859649 13.0175439,13.9649123 L12.5263158,12.6315789 L9.89473684,13.5087719 L10.3508772,14.8421053 C10.5263158,15.3684211 10.245614,15.9649123 9.71929825,16.1403509 C9.61403509,16.1754386 9.47368421,16.2105263 9.36842105,16.2105263 C8.94736842,16.2105263 8.56140351,15.9298246 8.42105263,15.5087719 L7.96491228,14.1754386 L6.70175439,14.5964912 C6.59649123,14.6315789 6.45614035,14.6666667 6.35087719,14.6666667 C5.92982456,14.6666667 5.54385965,14.3859649 5.40350877,13.9649123 C5.22807018,13.4385965 5.50877193,12.8421053 6.03508772,12.6666667 L7.29824561,12.245614 L6.45614035,9.71929825 L5.19298246,10.1403509 C5.0877193,10.1754386 4.94736842,10.2105263 4.84210526,10.2105263 C4.42105263,10.2105263 4.03508772,9.92982456 3.89473684,9.50877193 C3.71929825,8.98245614 4,8.38596491 4.52631579,8.21052632 L5.78947368,7.78947368 L5.33333333,6.45614035 C5.15789474,5.92982456 5.43859649,5.33333333 5.96491228,5.15789474 C6.49122807,4.98245614 7.0877193,5.26315789 7.26315789,5.78947368 L7.71929825,7.12280702 L10.3508772,6.24561404 L9.96491228,4.9122807 C9.78947368,4.38596491 10.0701754,3.78947368 10.5964912,3.61403509 C11.122807,3.43859649 11.7192982,3.71929825 11.8947368,4.24561404 L12.3508772,5.57894737 L13.6140351,5.15789474 C14.1403509,4.98245614 14.7368421,5.26315789 14.9122807,5.78947368 C15.0877193,6.31578947 14.8070175,6.9122807 14.2807018,7.0877193 L12.9824561,7.50877193 L13.8245614,10.0350877 L15.0877193,9.61403509 C15.6140351,9.43859649 16.2105263,9.71929825 16.3859649,10.245614 C16.5614035,10.7719298 16.2807018,11.3684211 15.754386,11.5438596 L15.754386,11.5438596 L15.754386,11.5438596 Z" id="Shape"></path>
                </g>
            </g>
        </g>
    </g>
</svg>