<svg xmlns="http://www.w3.org/2000/svg" width="20" height="20" viewBox="0 0 20 20">
  <path fill="#333333" d="M19.1578947,7.15789474 C21.1929825,13.8947368 19.6140351,16.8421053 12.8421053,18.877193 C6.07017544,20.877193 3.15789474,19.2982456 1.12280702,12.5614035 C-0.877192982,5.78947368 0.701754386,2.87719298 7.43859649,0.842105263 C14.2105263,-1.15789474 17.122807,0.421052632 19.1578947,7.15789474 Z M15.754386,11.5438596 C16.2807018,11.3684211 16.5614035,10.7719298 16.3859649,10.245614 C16.2105263,9.71929825 15.6140351,9.43859649 15.0877193,9.61403509 L13.8245614,10.0350877 L12.9824561,7.50877193 L14.2807018,7.0877193 C14.8070175,6.9122807 15.0877193,6.31578947 14.9122807,5.78947368 C14.7368421,5.26315789 14.1403509,4.98245614 13.6140351,5.15789474 L12.3508772,5.57894737 L11.8947368,4.24561404 C11.7192982,3.71929825 11.122807,3.43859649 10.5964912,3.61403509 C10.0701754,3.78947368 9.78947368,4.38596491 9.96491228,4.9122807 L10.3508772,6.24561404 L7.71929825,7.12280702 L7.26315789,5.78947368 C7.0877193,5.26315789 6.49122807,4.98245614 5.96491228,5.15789474 C5.43859649,5.33333333 5.15789474,5.92982456 5.33333333,6.45614035 L5.78947368,7.78947368 L4.52631579,8.21052632 C4,8.38596491 3.71929825,8.98245614 3.89473684,9.50877193 C4.03508772,9.92982456 4.42105263,10.2105263 4.84210526,10.2105263 C4.94736842,10.2105263 5.0877193,10.1754386 5.19298246,10.1403509 L6.45614035,9.71929825 L7.29824561,12.245614 L6.03508772,12.6666667 C5.50877193,12.8421053 5.22807018,13.4385965 5.40350877,13.9649123 C5.54385965,14.3859649 5.92982456,14.6666667 6.35087719,14.6666667 C6.45614035,14.6666667 6.59649123,14.6315789 6.70175439,14.5964912 L7.96491228,14.1754386 L8.42105263,15.5087719 C8.56140351,15.9298246 8.94736842,16.2105263 9.36842105,16.2105263 C9.47368421,16.2105263 9.61403509,16.1754386 9.71929825,16.1403509 C10.245614,15.9649123 10.5263158,15.3684211 10.3508772,14.8421053 L9.89473684,13.5087719 L12.5263158,12.6315789 L13.0175439,13.9649123 C13.1578947,14.3859649 13.5438596,14.6666667 13.9649123,14.6666667 C14.0701754,14.6666667 14.2105263,14.6315789 14.3157895,14.5964912 C14.8421053,14.4210526 15.122807,13.8245614 14.9473684,13.2982456 L14.4912281,11.9649123 L15.754386,11.5438596 Z M9.27590175,11.5440491 L8.42896842,9.01551579 L11.0573123,8.13515088 L11.9042456,10.6636842 L9.27590175,11.5440491 Z"/>
</svg>
