<svg xmlns="http://www.w3.org/2000/svg" width="30" height="36" viewBox="0 0 30 36" xmlns:xlink="http://www.w3.org/1999/xlink">
  <defs>
    <polygon id="a" points="14.197 12.782 .018 12.782 .018 .277 28.376 .277 28.376 12.782"/>
  </defs>
  <g fill="none" fill-rule="evenodd">
    <g transform="translate(0 22.295)">
      <mask id="b" fill="white">
        <use xlink:href="#a"/>
      </mask>
      <polyline fill="#B6B5B1" fill-rule="nonzero" points="25.222 9.656 25.222 .277 28.376 .277 28.376 12.782 0 12.782 0 .277 3.155 .277 3.155 9.656 25.222 9.656" mask="url(#b)"/>
    </g>
    <path fill="#E6772C" fill-rule="nonzero" d="M6.3132,28.8237184 L22.0878,28.8237184 L22.0878,25.6977105 L6.3132,25.6977105 L6.3132,28.8237184 Z M20.4513,0.0389413299 L17.9199,1.90455802 L27.3345,14.4463416 L29.8659,12.5807249 L20.4513,0.0389413299 L20.4513,0.0389413299 Z M12.6264,7.43303781 L24.7479,17.4359061 L26.7669,15.0337314 L14.6454,5.0308631 L12.6264,7.43303781 L12.6264,7.43303781 Z M8.6691,14.384511 L22.9692,20.9834315 L24.3012,18.1496323 L10.0011,11.5504146 L8.6691,14.384511 L8.6691,14.384511 Z M6.6267,21.708751 L22.0641,24.9236402 L22.713,21.864219 L7.2756,18.6493299 L6.6267,21.708751 L6.6267,21.708751 Z"/>
  </g>
</svg>
