<?xml version="1.0" encoding="UTF-8" standalone="no"?>
<svg width="48px" height="33px" viewBox="0 0 48 33" version="1.1" xmlns="http://www.w3.org/2000/svg" xmlns:xlink="http://www.w3.org/1999/xlink">
    <!-- Generator: Sketch 39.1 (31720) - http://www.bohemiancoding.com/sketch -->
    <title>logo-campaign-monitor</title>
    <desc>Created with Sketch.</desc>
    <defs></defs>
    <g id="Page-1" stroke="none" stroke-width="1" fill="none" fill-rule="evenodd">
        <g id="Desktop" transform="translate(-917.000000, -1550.000000)" fill="#2A2E32">
            <g id="COMPANIES" transform="translate(0.000000, 1389.000000)">
                <g id="Logos" transform="translate(720.000000, 152.000000)">
                    <g id="Row-1" transform="translate(9.000000, 0.000000)">
                        <g id="logo-campaign-monitor" transform="translate(188.000000, 9.000000)">
                            <g id="Group">
                                <path d="M47.6680929,0.965298604 C47.0889302,0.135467375 45.9521861,-0.0677336876 45.1248371,0.515674153 L0.328744187,32.0606746 C0.658418604,32.5329393 1.20372093,32.8441025 1.82232558,32.84298 L1.82455814,32.8441025 L1.82455814,32.84298 L46.1735814,32.84298 C47.1815814,32.84298 47.9988838,32.0210073 47.9988838,31.0059375 L47.9988838,1.98934964 C47.9933023,1.6351511 47.8859535,1.27870724 47.6680929,0.965298604" id="Shape"></path>
                                <path d="M2.87404652,0.514364385 C2.04781395,-0.0681079071 0.909953488,0.133970498 0.330790697,0.963801728 C0.112930233,1.27721037 0.00558139536,1.63477688 0,1.98897542 L0.00111627907,31.061322 L21.3278139,13.4909789 L2.87404652,0.514364385" id="Shape"></path>
                            </g>
                        </g>
                    </g>
                </g>
            </g>
        </g>
    </g>
</svg>