<svg xmlns="http://www.w3.org/2000/svg" width="85" height="12" viewBox="0 0 85 12">
  <g fill="#009CDE">
    <path d="M79.5787683 4.9125C79.6417266 4.57250001 79.70494 4.217 79.7678984 3.84575L81.7856288 3.84575 81.5016786 5.34575001 81.5335403 5.34575001C81.911801 4.47975 82.9517632 3.66075 83.9290215 3.66075 84.1971686 3.66075 84.4811192 3.6755 84.7329532 3.73775L84.2917336 5.763C84.0551932 5.68550001 83.7556944 5.63925 83.4880573 5.63925 81.9905626 5.63925 81.2653932 6.95300001 80.9975007 8.23625001L80.2409792 11.807 78.1289387 11.807 79.5787683 4.9125M78.1131352 6.69050001C78.1131352 4.665 76.7892228 3.66075 74.7872955 3.66075 72.1239222 3.66075 70.1691502 6.04149999 70.1691502 8.51475 70.1691502 10.88 71.7451515 11.99275 74.0781843 11.99275 74.9448194 11.99275 75.8435708 11.792 76.663051 11.54475L76.9309431 9.90549999C76.142815 10.2615 75.3075316 10.47775 74.4408965 10.47775 73.0894557 10.47775 72.300308 10.007 72.1986055 8.75525001L72.1970763 8.75525001C72.1932531 8.68250001 72.1863706 8.61174999 72.1863706 8.53550001 72.1863706 8.52075 72.1871356 8.50575 72.1876452 8.49125001 72.1876452 8.48349999 72.1868806 8.47625001 72.1868806 8.46800001L72.1884098 8.46800001C72.1975859 7.92275001 72.3196798 7.38500001 72.5317505 6.88875 72.9370297 5.8755 73.511048 5.17550001 74.7556888 5.17550001 75.6381275 5.17550001 76.0954047 5.65449999 76.0954047 6.50499999 76.0954047 6.69050001 76.0796016 6.86025 76.0482499 7.04600001L73.1582765 7.04600001C72.9709305 7.67150001 72.9377942 8.09075001 72.934226 8.46800001L77.9082014 8.46800001C78.0341186 7.88049999 78.1131352 7.29324999 78.1131352 6.69050001M65.2591527 3.84575L66.7882537 3.84575 67.1507109 2.20725 69.4205303 1.4805 68.9002942 3.84575 70.7915979 3.84575 70.4607474 5.36075001 68.5691888 5.36075001 67.7968642 8.83899999C67.7497089 9.02450001 67.7025537 9.303 67.7025537 9.61175001 67.7025537 10.09125 68.0336591 10.38475 68.5064854 10.38475 68.8844911 10.38475 69.2627518 10.3075 69.5306439 10.19925L69.1684413 11.807C68.8057292 11.88425 68.3961167 11.99275 68.0336591 11.99275 66.5991232 11.99275 65.5905132 11.43625 65.5905132 9.90549999 65.5905132 9.28749999 65.7166849 8.68449999 65.8581503 8.05100001L66.4576578 5.36075001 64.9285568 5.36075001 65.2591527 3.84575M63.9102602 5.46675C63.6834059 5.34575001 63.1002115 5.17550001 62.5012135 5.17550001 61.8708642 5.17550001 61.0829906 5.34575001 61.0829906 5.979 61.0829906 6.98375001 63.8251263 7.35549999 63.8251263 9.303 63.8251263 11.3745 61.9812324 11.99275 60.1686907 11.99275 59.3176042 11.99275 58.4662626 11.8695 57.6939376 11.51375L58.1512153 9.8595C58.7499583 10.184 59.3489559 10.47775 60.1686907 10.47775 60.8780569 10.47775 61.6187753 10.2455 61.6187753 9.597 61.6187753 8.31375 58.8763851 8.18949999 58.8763851 6.19575 58.8763851 4.32525 60.7202785 3.66075 62.3910998 3.66075 63.1634249 3.66075 63.951298 3.79975 64.3675379 3.90525L63.9102602 5.46675M53.0181868 10.48475C54.5944431 10.48475 55.083327 9.41825001 55.4136679 8.13500001L54.6732046 8.13500001C53.648791 8.13500001 51.946618 8.30525001 51.946618 9.65000001 51.946618 10.2065 52.4821471 10.48475 53.0181868 10.48475L53.0181868 10.48475zM55.083327 10.593L55.0514653 10.593C54.3265506 11.48975 53.6013812 12 52.4349923 12 50.9698692 12 49.9299071 11.19575 49.9299071 9.7275 49.9299071 7.09925001 52.9238763 6.8985 54.909745 6.8985L55.6504633 6.8985C55.7134217 6.68175 55.7134217 6.45 55.7134217 6.21800001 55.7134217 5.41449999 54.8309835 5.1825 54.0902652 5.1825 53.1601617 5.1825 52.2616653 5.41449999 51.4263819 5.80074999L51.7256257 4.14675C52.6241225 3.838 53.5384224 3.6675 54.4843294 3.6675 56.107486 3.6675 57.6363321 4.255 57.6363321 6.12525 57.6363321 7.19199999 56.8326554 10.315 56.6435252 11.8145L54.8623352 11.8145 55.083327 10.593 55.083327 10.593zM38.0248895 4.72700001C38.087848 4.41800001 38.1508065 4.09325 38.1982165 3.84575L40.1685369 3.84575 39.9794066 4.9125 40.0107583 4.9125C40.5781494 4.09325 41.5079979 3.66075 42.5008049 3.66075 43.4625151 3.66075 44.455322 4.217 44.5656906 5.17550001L44.5972973 5.17550001C45.1330815 4.13975 46.3152739 3.66075 47.4500561 3.66075 48.6635998 3.66075 49.703817 4.63425 49.703817 5.84025 49.703817 6.55125 49.5149414 7.35549999 49.3416144 8.00450001L48.4902728 11.807 46.3782323 11.807 47.2295739 7.92675C47.3396875 7.44774999 47.497466 6.70550001 47.497466 6.2265 47.497466 5.63925 47.0404433 5.268 46.5044041 5.268 45.0382614 5.268 44.6758042 6.9375 44.4081667 8.01999999L43.5726287 11.807 41.4608428 11.807 42.3119294 7.92675C42.422298 7.44774999 42.5800765 6.70550001 42.5800765 6.2265 42.5800765 5.63925 42.1227991 5.268 41.5867598 5.268 40.1524787 5.268 39.7581597 6.95300001 39.4905224 8.01999999L38.6549842 11.807 36.5431984 11.807 38.0248895 4.72700001M31.5812027 3.84575L33.1100489 3.84575 33.4725063 2.20725 35.7423256 1.4805 35.2220896 3.84575 37.1136482 3.84575 36.7827975 5.36075001 34.8909841 5.36075001 34.1186593 8.83899999C34.0715041 9.02450001 34.0240941 9.303 34.0240941 9.61175001 34.0240941 10.09125 34.3551997 10.38475 34.8282805 10.38475 35.2065412 10.38475 35.5848019 10.3075 35.8524393 10.19925L35.489727 11.807C35.1275245 11.88425 34.7176571 11.99275 34.3551997 11.99275 32.9209186 11.99275 31.9120533 11.43625 31.9120533 9.90549999 31.9120533 9.28749999 32.0382252 8.68449999 32.1802004 8.05100001L32.7791982 5.36075001 31.2500971 5.36075001 31.5812027 3.84575M30.8748951 6.69050001C30.8748951 4.665 29.5507276 3.66075 27.5493103 3.66075 24.8854269 3.66075 22.9309099 6.04149999 22.9309099 8.51475 22.9309099 10.88 24.5071662 11.99275 26.839944 11.99275 27.7065791 11.99275 28.6053307 11.792 29.4245557 11.54475L29.6929577 9.90549999C28.9043198 10.2615 28.0690365 10.47775 27.2024014 10.47775 25.8514702 10.47775 25.0620676 10.007 24.9606203 8.75525001L24.958836 8.75525001C24.9550126 8.68250001 24.9481305 8.61174999 24.9481305 8.53550001 24.9481305 8.52075 24.9491501 8.50575 24.9491501 8.49125001 24.9491501 8.48349999 24.9486403 8.47625001 24.9486403 8.46800001L24.9501697 8.46800001C24.9596007 7.92275001 25.0814394 7.38500001 25.2932552 6.88875 25.6990444 5.8755 26.2730627 5.17550001 27.5174487 5.17550001 28.400142 5.17550001 28.8574195 5.65449999 28.8574195 6.50499999 28.8574195 6.69050001 28.8413613 6.86025 28.8100095 7.04600001L25.9200363 7.04600001C25.7326902 7.67150001 25.699809 8.09075001 25.6959857 8.46800001L30.6699614 8.46800001C30.7956234 7.88049999 30.8748951 7.29324999 30.8748951 6.69050001"/>
    <polyline points="17.537 .213 19.649 .213 18.246 6.737 18.278 6.737 21.225 3.846 23.968 3.846 20.075 7.479 22.518 11.807 20.138 11.807 18.041 7.587 18.01 7.587 17.096 11.807 15.031 11.807 17.537 .213"/>
    <path d="M15.2209162 5.67024999C14.810539 5.40725001 14.2592061 5.268 13.6760117 5.268 11.9893869 5.268 11.043735 6.81399999 11.043735 8.31375 11.043735 9.34875 11.3903891 10.38475 12.8407284 10.38475 13.3609643 10.38475 14.0071173 10.2455 14.5584501 9.98300001L14.3221646 11.62175C13.6760117 11.93075 12.9827036 11.99275 12.2891406 11.99275 10.1926484 11.99275 8.8371291 10.61725 8.8371291 8.56100001 8.8371291 5.77824999 10.7128843 3.66075 13.6288566 3.66075 14.4169847 3.66075 15.1732513 3.79975 15.7411521 3.9695L15.2209162 5.67024999M7.50302083.41375L9.61480668.41375 9.17358744 2.39275 7.06154672 2.39275 7.50302083.41375 7.50302083.41375zM6.73044115 3.84575L8.84248187 3.84575 7.10895676 11.807 4.99691604 11.807 6.73044115 3.84575 6.73044115 3.84575zM.330850694 3.84575L1.85995186 3.84575 2.22240925 2.20725 4.49197362 1.4805 3.97173769 3.84575 5.86329622 3.84575 5.53219066 5.36075001 3.6406321 5.36075001 2.86856218 8.83899999C2.82115215 9.02450001 2.773997 9.303 2.773997 9.61175001 2.773997 10.09125 3.10510259 10.38475 3.5779285 10.38475 3.95618924 10.38475 4.33444995 10.3075 4.60259704 10.19925L4.23988479 11.807C3.87717251 11.88425 3.46755997 11.99275 3.10510259 11.99275 1.6708215 11.99275.661956282 11.43625.661956282 9.90549999.661956282 9.28749999.788128157 8.68449999.929848485 8.05100001L1.52884628 5.36075001 0 5.36075001.330850694 3.84575"/>
  </g>
</svg>
