<svg xmlns="http://www.w3.org/2000/svg" width="35" height="36" viewBox="0 0 35 36">
  <g fill="none" fill-rule="evenodd">
    <path fill="#684C46" d="M33.9563351,25.725253 C33.9282132,25.816988 31.2712059,36.0030361 20.8316218,35.9999277 C11.8072626,35.997253 7.52984244,28.1736867 7.52984244,28.1736867 C6.87209559,28.2102651 6.23746954,28.1060964 5.65220168,27.8916145 C3.00454412,26.9214217 1.73420483,23.9003855 2.64765756,21.3657831 L1.19249685,20.2566506 C-4.44433929,15.9738795 11.5237973,-3.62414458 17.1704181,0.810433735 C17.1989748,0.832843373 18.5183824,1.8920241 18.5183824,1.8920241 C20.5457647,0.664048193 22.5536502,0.00021686747 24.1858771,0.000144578313 C25.3449611,7.22891567e-05 26.3143676,0.334698795 26.9671859,1.03973494 C28.4327836,2.62243373 27.9060063,5.64477108 25.9047889,8.7046988 C26.3352416,9.11226506 26.6919832,9.66621687 26.9466019,10.2161205 C27.5828225,10.7058072 27.9952279,11.4500964 28.2001261,12.4781928 C28.4282899,13.6213012 28.4756187,15.2495422 28.6188372,15.9491566 C29.1585158,16.1921205 28.9286124,16.0797108 29.5040231,16.3663373 C30.1040042,16.6653976 30.8345924,17.0295904 31.6420084,17.8044578 C33.0771649,18.1630843 33.6251786,19.6849157 32.785437,20.7235663 C32.762896,20.7514699 32.6614979,20.871253 32.5565483,20.9904578 C32.5816261,21.0563855 32.8569013,21.501253 33.0554937,22.406747 C33.6501838,22.5468434 34.1239065,22.9120482 34.3725095,23.4415663 C34.8024548,24.4781205 33.95648,25.7251807 33.95648,25.7251807 L33.9563351,25.725253 Z M29.8179296,33.4178313 L29.8179296,33.8441928 L29.9815872,33.8441928 L29.9815872,33.4178313 L30.1490137,33.4178313 L30.1490137,33.2833012 L29.652605,33.2833012 L29.652605,33.4178313 L29.8179296,33.4178313 L29.8179296,33.4178313 Z M30.1991691,33.2833012 L30.1991691,33.8441928 L30.3484758,33.8441928 L30.3484758,33.4392289 L30.470458,33.8441928 L30.5978036,33.8441928 L30.7197857,33.4381446 L30.7197857,33.8441928 L30.8690924,33.8441928 L30.8690924,33.2833012 L30.6356376,33.2833012 L30.5348193,33.6060723 L30.4325515,33.2833012 L30.1992416,33.2833012 L30.1991691,33.2833012 Z"/>
    <path fill="#F5DCBA" d="M9.65942017,21.8922651 C9.88678676,21.3159036 10.0013761,20.8428434 10.0013761,20.8428434 C10.2616481,21.6364337 10.394792,22.4710843 10.3425347,23.3147711 C10.5583046,23.0284337 10.7899475,22.4891566 10.7899475,22.4891566 C11.1913361,24.8459277 9.46698845,27.003253 7.19513445,27.003253 C5.1781166,27.003253 3.54306303,25.2864578 3.54306303,23.1686747 C3.54306303,21.0508916 5.1781166,19.3340964 7.19513445,19.3340964 C7.7179979,19.3340964 8.21520378,19.4494699 8.66486345,19.6573012 C8.66486345,19.6572289 9.44111345,20.0476627 9.65942017,21.8923373 L9.65942017,21.8922651 Z M29.5325074,30.202988 C32.3636092,27.9842892 32.8582784,25.3121928 32.9054622,25.2200964 C33.6020578,24.386747 33.4126702,23.565759 32.4924044,23.5656867 C32.1995893,23.5656867 31.9783834,23.642747 31.9783834,23.642747 C31.9783834,23.642747 31.9817899,22.4266988 31.4178309,21.4796386 C30.9831019,21.9673012 29.7763267,22.9333735 28.1928057,23.6831566 C26.7079286,24.386241 24.7264979,25.0020723 22.2710546,25.0836145 L22.2709821,25.0836145 C21.5834464,25.1133976 21.1581397,25.0017831 20.9186691,25.8012289 C20.8422038,26.0836627 20.8752542,26.5033012 20.9328025,26.6245301 C21.1265389,27.2866988 21.6325147,27.5785301 22.2986691,27.7330843 C22.8037752,27.8504096 23.3401922,27.8614699 23.3401922,27.8614699 C28.3200063,28.0007711 32.3187447,24.1270843 32.3665809,24.0948434 C32.4128225,24.0570361 32.4510914,24.0122892 32.4510914,24.0122892 C32.4510914,24.0122892 32.4071691,24.115012 32.4018782,24.1266506 C31.6826691,25.7399277 27.5180987,28.6655422 23.3728803,28.581759 L23.3593267,28.5865301 C22.3979653,28.5829157 21.2298939,28.3361205 20.6227374,27.5851084 C19.6620284,26.3968916 20.1606113,24.4211566 21.6918025,24.3748193 C21.6937595,24.374747 22.0457899,24.3666506 22.2024895,24.3626747 C25.9937931,24.246506 29.3955945,22.8571807 31.831396,19.9560723 C32.1663214,19.5411325 31.7921849,18.9710602 31.0663078,18.9537108 C31.0600021,18.9535663 31.0537689,18.9508193 31.0494926,18.9461928 C30.1888046,18.0271807 29.4323414,17.7024578 28.759229,17.361253 C27.348208,16.6443614 27.4809895,17.2635904 27.1528046,13.7861205 C27.0640179,12.8486024 26.8860095,11.5700241 26.0601838,11.0798313 C25.8436891,10.9513012 25.6071176,10.8961446 25.3615588,10.8961446 C25.1188267,10.8961446 25.000541,10.9455904 24.9528498,10.9561446 C24.5005809,11.0561205 24.2433529,11.3118072 23.9211838,11.6081205 C22.3986901,13.0084337 21.1817679,12.6282651 19.3654443,12.6122169 C17.6595788,12.5973253 16.1534653,13.7841687 15.8653613,15.6067952 L15.8649265,15.6078072 C15.7248971,16.5618795 15.8154958,17.5312771 15.9654548,17.9670361 C15.9654548,17.9670361 15.502459,17.6598795 15.281833,17.3879277 C15.5489181,19.0529639 17.0719191,20.1412048 17.0719191,20.1412048 C16.8320137,20.1962169 16.4869412,20.1733735 16.4869412,20.1733735 C16.4883908,20.1746024 17.3562542,20.8591807 18.1095284,21.0980241 C17.9133277,21.2198313 16.920438,22.1970361 16.4083739,23.5422651 C15.9292153,24.8011807 16.1244013,26.3125301 16.1244013,26.3125301 L16.5405032,25.6938072 C16.5405032,25.6938072 16.2687069,27.0727229 16.7947595,28.4081205 C16.9692889,28.0108916 17.3506008,27.3017349 17.3506008,27.3017349 C17.3506008,27.3017349 17.2901534,28.7825783 18.0049412,29.9950843 C18.0233508,29.715253 18.1305473,29.0028434 18.1305473,29.0028434 C18.1305473,29.0028434 18.5407059,30.2670361 19.4882237,31.150988 C21.2619296,32.7208193 25.9583508,33.0044096 29.5327248,30.202988 L29.5325074,30.202988 Z"/>
    <path fill="#0788BF" d="M3.19443908,20.2868675 C3.18008824,20.2830361 1.82016492,19.2876867 1.62679097,18.9599277 C0.482637605,17.0341446 2.47320063,13.0787711 3.88965756,10.8304337 C7.39032038,5.27378313 13.216979,0.888650602 15.8634044,1.51489157 L18.5810767,2.91404819 C17.525855,3.53313253 16.5052784,4.29354217 15.8938456,4.79920482 L15.3156082,5.28296386 C15.3156082,5.28296386 13.6268477,6.41689157 12.7868887,7.13183133 C9.41994958,9.9973012 6.10483298,14.433253 4.87544433,18.7151566 C4.87544433,18.715012 3.8653771,19.2151084 3.1943666,20.2868675 L3.19443908,20.2868675 Z"/>
    <path fill="#46B8E3" d="M15.8634769,1.51481928 C13.216979,0.888578313 7.39032038,5.27371084 3.88973004,10.8303614 L3.88668592,10.8352048 L3.90081933,10.8367229 L6.69017332,13.0269398 C9.75284559,8.17814458 13.6021324,5.67795181 13.7107059,5.60443373 L13.2684391,2.63674699 L14.0969464,2.24110843 L15.759687,2.77814458 L15.6324863,2.22412048 L15.8634769,1.51481928 L15.8634769,1.51481928 Z"/>
    <path fill="#FFD14F" d="M18.5811492,2.9139759 L15.8939181,4.79913253 L15.7059076,4.94580723 L13.3230158,3.00404819 L13.2682941,2.63681928 L14.0968015,2.24118072 L15.759542,2.77821687 L15.787229,1.74860241 L15.8633319,1.51489157 L16.591166,1.2366506 C16.5921807,1.23744578 18.57825,2.91151807 18.5810767,2.91390361 L18.5811492,2.9139759 Z"/>
    <path fill="#122030" d="M19.0277647,0.053060241 C17.2506523,0.053060241 15.2555231,0.985228916 13.7249842,1.90185542 C13.5103015,2.02785542 13.2972857,2.15971084 13.0885462,2.29409639 L12.2877258,1.62455422 L12.5786565,2.63277108 C12.4687059,2.70809639 12.361292,2.78320482 12.25627,2.85787952 L10.6015746,2.35395181 L11.6964422,3.26804819 C11.4464622,3.45701205 11.2231544,3.63390361 11.0378981,3.78715663 L8.41227416,1.62484337 L8.55121639,2.59395181 L10.4595882,4.27091566 C10.4595882,4.27091566 8.77082773,5.40484337 7.9308687,6.11978313 C4.56392962,8.98525301 1.24881303,13.4212048 0.0194243697,17.7031084 L0.0892941176,17.6639277 L0.11785084,17.6491084 C0.152060924,17.6306747 0.186198529,17.613253 0.220408613,17.5960482 L0.28607458,17.5633735 C0.32129937,17.5465301 0.356451681,17.5309157 0.391676471,17.5153735 L0.454080882,17.4879759 C0.492204832,17.4720723 0.530256303,17.4575422 0.568452731,17.4431566 L0.621289916,17.422988 C0.676808824,17.4031084 0.732182773,17.3848193 0.787266807,17.3684096 C1.62309454,17.1197349 2.76021744,16.9598313 4.0913666,17.5236145 C4.75991282,15.8419518 5.55848634,14.131012 6.81708403,12.487012 C7.83758824,11.154 8.81851891,9.9639759 9.99594013,9.30946988 C12.2252489,7.22074699 18.2338298,5.00587952 20.1587994,6.92573494 C20.6139674,6.18303614 21.0089779,5.48009639 21.3344086,4.59874699 C22.1376208,2.47944578 22.152334,0.0529879518 19.0278372,0.0529879518 L19.0277647,0.053060241 Z M11.4002931,1.92650602 L11.0073845,0.502771084 L10.7763214,1.21207229 L10.9146113,1.76963855 L11.4002931,1.92650602 Z" transform="translate(4.856 1.012)"/>
    <path fill="#FFFFFF" d="M31.9784559,23.6413735 C31.9784559,23.6413735 31.9818624,22.4253253 31.4179034,21.4782651 C30.9831744,21.9659277 29.7763992,22.932 28.1928782,23.6817831 C26.7080011,24.3848675 24.7265704,25.0006988 22.2711271,25.082241 L22.2710546,25.082241 C21.5835189,25.1120241 21.1582122,25.0004096 20.9187416,25.7998554 C20.900042,25.868747 20.887938,25.9459518 20.8810525,26.0248916 L20.8807626,26.032988 L20.8804727,26.0329157 C20.8783708,26.0584337 20.8768487,26.0840241 20.8757616,26.1096145 C20.8733697,26.1826988 20.874167,26.2470361 20.8769937,26.3032048 L20.8772111,26.307253 L20.8779359,26.3194699 C20.8801103,26.3546024 20.8830819,26.3882892 20.8867784,26.4199518 L20.8872857,26.4247229 L20.887938,26.4297108 C20.9041733,26.5567229 20.929396,26.6156386 20.9325126,26.6224337 L20.9328025,26.6232289 L20.9359916,26.6338554 C21.1320473,27.2884337 21.6361387,27.5780964 22.2986691,27.7317831 C22.8037752,27.8491084 23.3402647,27.8601687 23.3402647,27.8601687 C27.4033645,27.9738072 30.8134286,25.4159277 31.9571471,24.4528916 C31.9767164,24.1829639 31.9882405,23.9904578 31.9785284,23.6414458 L31.9784559,23.6413735 Z M20.3060767,1.99424096 C21.2767153,1.54792771 22.3170788,1.19522892 23.3148246,1.09359036 C22.3238193,1.31595181 21.1162468,1.82840964 19.685584,2.70166265 C19.6507216,2.72175904 16.3001628,4.97718072 14.2531387,7.00236145 C13.1376145,8.106 8.65797794,13.4637108 8.66152941,13.4591566 C9.48017962,11.9138313 10.0195683,11.1553012 11.3156376,9.52959036 C12.0486176,8.61014458 12.8308109,7.716 13.6314863,6.89038554 C13.9006008,6.61286747 14.1718897,6.34315663 14.4440483,6.0826988 C14.5478382,5.98344578 16.8886922,3.5926988 20.3060767,1.99424096 L20.3060767,1.99424096 Z"/>
    <path fill="#EABE8D" d="M29.5325074,30.2029157 C29.0464632,30.5838072 28.5398351,30.9075181 28.0225525,31.1788193 C26.8262868,30.7253494 26.0922195,29.7592048 26.0922195,29.7592048 C26.0922195,29.7592048 27.1177973,29.5173253 28.4887374,28.8219759 C30.1561166,27.9769157 31.7143424,26.7560964 32.9056071,25.2199518 C32.8583508,25.3120482 32.3636817,27.9842169 29.5325798,30.2029157 L29.5325074,30.2029157 Z M26.2767511,17.3223614 C25.6980788,16.9119036 24.7397616,17.2385783 24.5284128,17.9178072 C24.8632658,17.9346506 25.2185578,18.1873012 25.1965966,18.5105783 C25.4330231,18.2823614 25.7691807,18.1535422 26.0962059,18.1595422 C25.9384916,17.907253 26.018146,17.4723614 26.2766786,17.3223614 L26.2767511,17.3223614 Z M20.2056208,25.611253 C20.3879055,24.9346265 20.9027237,24.3986024 21.6916576,24.374747 C21.6936145,24.3746747 22.045645,24.3665783 22.2023445,24.3626024 C25.9936481,24.2464337 29.3954496,22.8571084 31.8312511,19.956 C32.1661765,19.5410602 31.7920399,18.970988 31.0661628,18.9536386 L31.0557983,18.9536386 C30.9330189,19.0831084 30.9110578,19.3195663 30.7079716,19.6729157 C29.9670914,20.9566988 28.9423834,21.5436867 27.575937,22.2248675 C23.3865788,24.3051325 21.2140935,23.3371807 20.3421712,24.6107711 C20.0887847,24.9855904 20.0840011,25.4042892 20.2056208,25.6111807 L20.2056208,25.611253 Z M27.7859811,16.8866747 C27.3853172,16.5999036 27.3710389,16.0997349 27.1525872,13.7860482 C27.0827174,13.0481205 26.9574013,12.0989639 26.504625,11.4892048 C26.4109821,11.4075904 26.2793603,11.3139036 26.0897553,11.3139036 C25.8036807,11.301253 25.4803519,11.5969157 25.297125,11.7988916 C24.7768708,12.5478072 24.2798099,13.0301205 23.4006397,13.4480964 C22.5108151,13.8497349 21.6652752,13.9954699 20.7874097,13.9677831 C20.1448109,13.9475422 19.582084,13.8419277 19.0304464,13.834988 C18.0083477,13.819012 17.122437,14.1494458 16.4767941,14.9626265 C16.03402,15.5202651 15.8563015,16.1097831 15.7996229,16.811494 C15.8017973,16.8960723 15.8055662,16.9758072 15.8104223,17.0509157 C15.8180326,17.1623855 15.8282521,17.2688675 15.840646,17.3686988 C15.8857279,17.7242892 15.9500168,17.9087711 15.9500168,17.9087711 L15.9487847,17.9167952 L15.9650924,17.9670361 C15.9650924,17.9670361 15.5020966,17.6598795 15.2814706,17.3879277 C15.5041261,18.7759518 16.5995011,19.7631325 16.9578372,20.0531566 L17.0203141,20.1015181 L17.0249527,20.1062169 L17.0715567,20.1412771 C16.8316513,20.1962892 16.4865788,20.1734458 16.4865788,20.1734458 C16.4880284,20.1746747 17.3558918,20.859253 18.1092384,21.0980964 C19.1085788,20.2557831 20.2416429,19.9324337 21.1717658,19.8320964 C21.7355074,19.4832289 22.3416492,19.1404337 22.9925105,18.8099277 C22.7954401,17.5858554 23.8837847,16.3533253 25.2533477,16.2349157 C26.2867532,16.1598072 26.7894674,16.6218795 27.1515,17.1159036 C27.3479905,17.0533735 27.5695588,16.984988 27.8171471,16.9123373 C27.8067101,16.9053976 27.7962731,16.8968675 27.7861985,16.8868193 L27.7859811,16.8866747 Z M28.2803603,25.1305301 C28.2699233,25.130747 28.2591239,25.1330602 28.2419464,25.1368916 C27.8290336,25.2323133 23.5717626,26.8771807 20.8804727,26.0340723 C20.8684412,26.1808916 20.8722826,26.4895663 20.9325851,26.6236627 L20.932875,26.6244578 C21.3399895,26.7058554 21.8552426,26.7579036 22.4532668,26.7579036 C25.9947353,26.7579036 28.546938,25.1519277 28.2803603,25.1305301 L28.2803603,25.1305301 Z M8.46750315,24.800747 L8.47054727,24.7986506 C8.68617227,24.5674699 8.77669853,24.2444819 8.7253834,23.9355181 C8.64580147,23.491012 8.14076786,23.4012289 7.80685714,23.0559759 L7.7911292,23.0393494 L7.77467647,23.020988 L7.77358929,23.019759 C7.62355777,22.8474217 7.57130042,22.6514458 7.58347689,22.4765783 C7.60985924,22.0218795 8.01472689,21.8940723 8.22542332,21.9777831 C8.22542332,21.9777831 8.47533088,22.0367711 8.66892227,22.3060482 L8.66877731,22.3049639 C8.63935084,22.2161205 8.6453666,22.0725542 8.4938855,21.8586506 C8.24564496,21.5079036 7.67552521,21.1511566 6.8672395,21.3219759 L6.86738445,21.3219759 C6.71800525,21.3535663 6.80171849,21.3356386 6.65429622,21.3770602 C6.63132038,21.383494 6.61030147,21.3899277 6.59218172,21.3974458 C6.54586765,21.4190602 6.50303256,21.4339518 6.46193697,21.4557108 C6.44062815,21.4675663 6.31915336,21.522506 6.17303571,21.6323133 C5.26451155,22.8020241 6.80324055,24.9232048 8.46750315,24.800747 L8.46750315,24.800747 Z"/>
    <path fill="#9C7356" d="M21.8628529,17.6015422 C21.9395357,17.7133735 21.9600473,17.7978072 21.9290987,17.8329398 C21.8673466,17.9049398 21.6465756,17.8077108 21.3207101,17.6810602 C20.4865494,17.3706506 19.872,17.3233735 18.7842353,17.7341205 C18.5091775,17.8387952 18.3141366,17.9196145 18.2205662,17.9056627 C18.0679979,17.8830361 18.2157101,17.604506 18.5491859,17.3342892 C19.2200515,16.800506 20.1414044,16.6348916 20.9287437,16.9270843 C21.2733813,17.0535904 21.6604191,17.3060964 21.8629254,17.6014699 L21.8628529,17.6015422 Z M21.6975284,18.4525301 C21.4688571,18.2783133 21.0477542,18.1615663 20.6105609,18.2355904 C20.518875,18.2495422 20.4340746,18.2778795 20.3506513,18.3002169 C20.3200651,18.3077349 20.2907836,18.3185783 20.2622994,18.330506 C20.0815368,18.4064096 19.9250546,18.4883133 19.7732111,18.6334699 C19.5990441,18.8013976 19.549541,18.9573253 19.5999139,18.9957108 C19.649417,19.0351084 19.7700221,18.9767711 19.9563655,18.9015904 C20.5806271,18.6427229 21.0223866,18.6358554 21.4433445,18.6651325 C21.6462857,18.6787952 21.7821838,18.6909398 21.8137122,18.6357831 C21.8359632,18.5983373 21.7955924,18.5272048 21.6975284,18.4526024 L21.6975284,18.4525301 Z M8.25369013,21.6459759 L8.25383508,21.6461205 L8.25405252,21.6462651 C8.35653782,21.7275181 8.43510504,21.8141928 8.49366807,21.8970361 C8.68566492,22.1681928 8.62463761,22.3263614 8.70334979,22.4032771 C8.73176155,22.4311084 8.77234979,22.4398554 8.81293803,22.4233735 C8.92180147,22.3785542 8.97529097,22.2058554 8.9855105,22.0853494 L8.98558298,22.0845542 C9.01290756,21.7948193 8.85932458,21.4691566 8.65587605,21.2383373 L8.6553687,21.2376867 C8.53084979,21.0933976 8.36690231,20.9589398 8.17193382,20.8505783 C7.97660294,20.7420723 7.75003361,20.6598072 7.50077836,20.6213494 C7.07018067,20.5544819 6.64668592,20.6400723 6.52840021,20.6752771 L6.52905252,20.6751325 C6.46802521,20.6927711 6.39271954,20.7086024 6.32792332,20.7339759 C5.62567437,21.0070843 5.16354832,21.5085542 4.95792542,22.1726024 L4.95785294,22.1728193 L4.95778046,22.1731084 C4.88175,22.4259036 4.85145378,22.6700241 4.85145378,22.895494 C4.85145378,23.0898795 4.87392227,23.2705301 4.9090021,23.4315181 L4.9090021,23.4316627 L4.90907458,23.4318795 L4.9090021,23.4316627 C4.96843487,23.7024578 5.08998214,24.0075181 5.27958718,24.2076867 L5.2802395,24.2083373 C5.51731828,24.4638795 5.77722794,24.415012 5.66626261,24.177253 C5.63980777,24.1113976 5.49658929,23.8421928 5.47723739,23.3549639 C5.46469853,23.0360964 5.50854832,22.7042169 5.62596429,22.4013253 C5.69090546,22.2374458 5.77990966,22.0780482 5.89573109,21.9347711 C6.13440441,21.6435181 6.42765441,21.5131807 6.46193697,21.4941687 C6.50303256,21.4724096 6.54586765,21.4575181 6.59218172,21.4359036 C6.61022899,21.4283855 6.6312479,21.4219518 6.65429622,21.4155181 C6.80164601,21.3740964 6.71807773,21.3920241 6.86738445,21.3604337 L6.8672395,21.3604337 C7.42916912,21.2415904 7.91267647,21.371494 8.25383508,21.6459759 L8.25369013,21.6459759 Z M8.13380987,22.7280723 C8.05618487,22.6667711 8.02016282,22.6144337 7.99878151,22.5339036 C7.96703571,22.3871566 7.98356092,22.3019277 8.10931197,22.2138072 C8.20614391,22.1476627 8.2841313,22.1157831 8.28434874,22.0742169 C8.28876996,21.9955663 7.96478887,21.9146024 7.7383645,22.1369639 C7.55028151,22.3367711 7.49092122,22.7533012 7.79091176,23.0779518 C8.12489496,23.4373735 8.64427941,23.5221687 8.72516597,23.9741205 C8.73582038,24.0381687 8.74372059,24.1095181 8.73813971,24.1798554 C8.73929937,24.2606747 8.71219223,24.376988 8.71088761,24.3842892 C8.61043172,24.8208434 8.19505462,25.2373735 7.51012815,25.131253 C7.38394223,25.1128916 7.30218592,25.0974217 7.27783298,25.1322651 C7.2249958,25.2055663 7.51853571,25.5405542 8.05589496,25.5283373 C8.58165756,25.5172771 9.10328887,25.1246024 9.27042542,24.534506 C9.27238235,24.5267711 9.32166807,24.3595663 9.32579937,24.2096386 C9.33522164,24.0986024 9.32717647,23.9843855 9.30644748,23.8648916 C9.16946218,23.1071566 8.41459349,22.9514458 8.13388235,22.7280723 L8.13380987,22.7280723 Z M26.4570788,17.3183855 C26.249354,17.2860723 26.0448908,17.4901446 26.0003887,17.7743855 C25.9558866,18.0585542 26.0883057,18.3151084 26.2961029,18.3474217 C26.5038277,18.3797349 26.708291,18.1756627 26.7527931,17.8914217 C26.7972952,17.607253 26.6648761,17.3506988 26.4570788,17.3183855 L26.4570788,17.3183855 Z M24.1742805,18.1473253 C24.0601261,18.3551566 24.1991408,18.6503133 24.4849254,18.8064578 C24.7706376,18.9626024 25.0949086,18.9208193 25.2091355,18.7129157 C25.3232899,18.5050843 25.1842752,18.2099277 24.8984905,18.0537831 C24.6127059,17.8976386 24.2885074,17.939494 24.1742805,18.1473253 L24.1742805,18.1473253 Z M15.8104947,9.73995181 C19.7419727,7.19848193 23.6689569,6.90621687 25.0144569,7.938 L25.0146744,7.93763855 C25.0122101,7.93084337 24.9906113,7.8713494 24.9822038,7.85501205 C24.6405378,7.13103614 23.8434863,6.62595181 23.1334821,6.42339759 C23.2580011,6.55243373 23.4381838,6.7886747 23.5110977,6.92906024 C22.975188,6.5619759 22.2631544,6.23862651 21.5199548,6.08501205 C21.5199548,6.08501205 21.6085242,6.14848193 21.6236723,6.16257831 C21.7718193,6.30021687 21.9689622,6.51766265 22.0496313,6.70438554 C21.3393372,6.41992771 20.4414674,6.26053012 19.6727553,6.40814458 C19.6620284,6.41024096 19.5767206,6.43033735 19.5767206,6.43033735 C19.5767206,6.43033735 19.6767416,6.45513253 19.6989926,6.46178313 C19.9539013,6.53718072 20.3176008,6.69209639 20.4779244,6.90440964 C19.2020042,6.68053012 17.7984485,6.92826506 17.0414055,7.35050602 C17.1387447,7.34645783 17.1378025,7.3460241 17.2201387,7.34819277 C17.4986029,7.35556627 18.0595903,7.3933012 18.2951471,7.54279518 C17.4903403,7.7060241 16.3256754,8.06508434 15.6986597,8.60291566 C15.8094076,8.59004819 16.437583,8.51016867 16.694666,8.55137349 C13.2435788,10.5210361 11.672959,13.4989157 11.672959,13.4989157 C12.6904191,12.1765301 14.0104065,10.9037349 15.8105672,9.74009639 L15.8104947,9.73995181 Z"/>
    <path fill="#684C46" d="M25.0860662,15.2925542 C25.0807027,15.0223373 25.1236103,14.5758072 25.3786639,14.4928193 L25.3791712,14.4926747 C25.8151324,14.3418072 26.392355,15.4553494 26.4188824,16.4441205 C26.0743897,16.2720723 25.6695221,16.1991325 25.2532027,16.2350602 C25.1485431,15.9167711 25.0983876,15.616988 25.0859937,15.2926265 L25.0860662,15.2925542 Z"/>
  </g>
</svg>
