<svg xmlns="http://www.w3.org/2000/svg" width="46" height="38" viewBox="0 0 46 38">
  <path fill="#5DA8DC" stroke="#5DA8DC" stroke-width=".5" d="M145.399459,0.00799112098 L145.399459,0 L146.431019,0 L147.462579,0 L148.216411,0.151831299 C148.718979,0.250401776 149.175246,0.379578246 149.585212,0.539400666 C149.995217,0.699223085 150.391971,0.885695893 150.775473,1.09877913 C151.159015,1.31186238 151.506849,1.52898113 151.818976,1.75005549 C152.128444,1.96849279 152.406171,2.20023529 152.652159,2.44528302 C152.895448,2.69300777 153.275023,2.75693674 153.790803,2.63706992 C154.306583,2.51720311 154.862038,2.3507081 155.457169,2.13762486 C156.052299,1.92454162 156.640844,1.68480799 157.222723,1.41842397 C157.804642,1.15203996 158.159102,0.98290788 158.286063,0.910987791 C158.410366,0.836430633 158.476505,0.796475028 158.48444,0.791120977 L158.492335,0.779134295 L158.532011,0.759156493 L158.571686,0.73917869 L158.611362,0.719200888 L158.651037,0.699223085 L158.658972,0.687236404 L158.670875,0.679245283 L158.682817,0.671254162 L158.690712,0.659267481 L158.730388,0.647280799 L158.770063,0.639289678 L158.762168,0.699223085 L158.750225,0.759156493 L158.730388,0.8190899 L158.71055,0.879023307 L158.690712,0.918978912 L158.670875,0.958934517 L158.651037,1.01886792 C158.637825,1.05882353 158.624613,1.11208435 158.611362,1.17869034 C158.59815,1.24529634 158.472498,1.5116404 158.234445,1.97780244 C157.996393,2.44396448 157.698828,2.91675916 157.341749,3.39622642 C156.984671,3.87569367 156.664649,4.23793119 156.381645,4.48301887 C156.095982,4.73074362 155.906849,4.90387125 155.814247,5.00244173 C155.721684,5.10364928 155.609284,5.1968657 155.477006,5.28213097 L155.278629,5.41398446 L155.238954,5.43396226 L155.199279,5.45394007 L155.191383,5.46592675 L155.179441,5.47391787 L155.167538,5.48190899 L155.159603,5.49389567 L155.119928,5.51387347 L155.080252,5.53385128 L155.072357,5.54583796 L155.060415,5.55382908 L155.048512,5.5618202 L155.040577,5.57380688 L155.032682,5.58579356 L155.020739,5.59378468 L155.008837,5.6017758 L155.000902,5.61376249 L155.10009,5.61376249 L155.199279,5.61376249 L156.310189,5.37402886 C157.05081,5.21420644 157.758341,5.021101 158.432822,4.79467259 C159.107304,4.56824417 159.464382,4.44837736 159.504058,4.43507214 C159.543733,4.42176693 159.583408,4.40842175 159.623084,4.39511654 L159.682597,4.37513873 L159.722272,4.35516093 L159.761948,4.33518313 L159.801623,4.31520533 L159.841298,4.29522752 L159.920649,4.28324084 L160,4.27524972 L160,4.31520533 L160,4.35516093 L159.980162,4.36315205 L159.960325,4.37513873 L159.952429,4.38712542 L159.940487,4.39511654 L159.928584,4.40310766 L159.920649,4.41509434 L159.912754,4.42708102 L159.900812,4.43507214 L159.888909,4.44306326 L159.880974,4.45504994 L159.873078,4.46703663 L159.861136,4.47502775 L159.841298,4.51498335 L159.821461,4.55493896 L159.809558,4.56293008 C159.804281,4.5709212 159.636335,4.79730966 159.305681,5.24217536 C158.975066,5.68967814 158.796527,5.91606659 158.770063,5.92142064 C158.743639,5.92941176 158.706583,5.96936737 158.658972,6.04128746 C158.61402,6.11584462 158.333634,6.41287458 157.817854,6.93229745 C157.302074,7.45172031 156.796927,7.91384684 156.302294,8.31875694 C155.805042,8.72630411 155.553739,9.2270677 155.548462,9.82108768 C155.540527,10.4124306 155.510096,11.0810477 155.457169,11.826859 C155.404281,12.5727103 155.305093,13.378455 155.159603,14.2441731 C155.014153,15.1098912 154.789313,16.0888036 154.485122,17.1809101 C154.18097,18.2730166 153.81064,19.3385128 153.374211,20.3773585 C152.937782,21.4162042 152.481515,22.3484883 152.00541,23.1742508 C151.529306,24.0000133 151.092876,24.6992364 150.696123,25.2719201 C150.299369,25.8446038 149.896029,26.3840044 149.486023,26.8901221 C149.076058,27.3962397 148.557659,27.9662863 147.930788,28.600222 C147.301259,29.2315205 146.957432,29.5778158 146.899228,29.6390677 C146.838406,29.6976826 146.579206,29.9161199 146.121551,30.2943396 C145.666633,30.6752364 145.177277,31.0561332 144.653562,31.4370699 C144.132505,31.8153296 143.653742,32.1309789 143.217313,32.3840178 C142.780884,32.6370566 142.25455,32.9260555 141.638233,33.2510544 C141.024613,33.5786903 140.360685,33.8823529 139.646528,34.1620422 C138.932372,34.4417314 138.178539,34.7014428 137.385032,34.9411765 C136.591524,35.1809101 135.82448,35.3673829 135.083859,35.5005549 C134.343279,35.633727 133.50347,35.7469612 132.564472,35.8401776 L131.155996,35.9800222 L131.155996,35.9920089 L131.155996,36 L129.866546,36 L128.577096,36 L128.577096,35.9920089 L128.577096,35.9800222 L128.239856,35.9600444 C128.015055,35.9467392 127.82989,35.933394 127.6844,35.9200888 C127.53895,35.9067836 126.990081,35.833505 126.037872,35.700333 C125.085663,35.5671609 124.338456,35.4339489 123.796213,35.3007769 C123.254009,35.1676049 122.44725,34.9145261 121.376014,34.5416204 C120.304779,34.1687148 119.388278,33.7917736 118.62651,33.4108768 C117.867401,33.0326171 117.391297,32.7928835 117.198197,32.6916759 C117.007755,32.5931054 116.793508,32.4706016 116.555455,32.3240844 L116.198377,32.1043285 L116.190482,32.0923418 L116.178539,32.0843507 L116.166637,32.0763596 L116.158702,32.0643729 L116.119026,32.0443951 L116.079351,32.0244173 L116.071455,32.0124306 L116.059513,32.0044395 L116.04761,31.9964484 L116.039675,31.9844617 L116.03178,31.972475 L116.019838,31.9644839 L116.007935,31.9644839 L116,31.9644839 L116,31.9245283 L116,31.8845727 L116.039675,31.8925638 L116.079351,31.9045505 L116.25789,31.9245283 C116.376916,31.9378335 116.700945,31.9578113 117.229937,31.9844617 C117.758968,32.0111121 118.32101,32.0111121 118.916141,31.9844617 C119.511271,31.9578113 120.119654,31.8978779 120.741208,31.8046615 C121.362803,31.7114451 122.096797,31.5516226 122.943192,31.3251942 C123.789627,31.0987658 124.567264,30.8297447 125.276144,30.518091 C125.982366,30.2038002 126.484894,29.9693807 126.783809,29.8148724 C127.080025,29.6630411 127.532325,29.3806748 128.140667,28.9678135 L129.053201,28.3485017 L129.061136,28.336515 L129.073039,28.3285239 L129.084981,28.3205327 L129.092876,28.3085461 L129.100812,28.2965594 L129.112714,28.2885683 L129.124656,28.2805771 L129.132552,28.2685905 L129.172227,28.2566038 L129.211903,28.2486127 L129.219838,28.208657 L129.23174,28.1687014 L129.243683,28.1607103 L129.251578,28.1487236 L128.934175,28.1287458 C128.722586,28.1154406 128.517583,28.1020954 128.319206,28.0887902 C128.12083,28.075485 127.810052,28.0155516 127.386835,27.90899 C126.963657,27.8024284 126.50739,27.642606 126.018034,27.4295228 C125.528718,27.2164395 125.052613,26.9633607 124.58972,26.6703663 C124.126867,26.3773718 123.792245,26.1336027 123.585933,25.9391787 C123.38228,25.7473518 123.117764,25.4756937 122.792426,25.1240844 C122.469746,24.769838 122.18936,24.406202 121.951307,24.0332963 C121.713255,23.6603907 121.485796,23.2301487 121.268931,22.7427303 L120.939585,22.0155383 L120.919748,21.9556049 L120.89991,21.8956715 L120.888007,21.8557159 L120.880072,21.8157603 L120.939585,21.8237514 L120.999098,21.8357381 L121.435528,21.8956715 C121.726507,21.9356271 122.182774,21.9489323 122.804328,21.9356271 C123.425922,21.9223219 123.855726,21.8956715 124.093778,21.8557159 C124.33183,21.8157603 124.47732,21.7891099 124.530207,21.7758047 L124.609558,21.7558269 L124.708747,21.7358491 L124.807935,21.7158713 L124.81587,21.7038846 L124.827773,21.6958935 L124.839715,21.6879023 L124.84761,21.6759156 L124.76826,21.6559378 L124.688909,21.63596 L124.609558,21.6159822 L124.530207,21.5960044 L124.450857,21.5760266 C124.397969,21.5627214 124.305407,21.536071 124.173129,21.4961154 C124.040891,21.4561598 123.683812,21.3096426 123.101894,21.0566038 C122.520014,20.8035649 122.057122,20.5571587 121.713255,20.3174251 C121.369428,20.0776915 121.041432,19.815343 120.729306,19.5302997 C120.419838,19.2426193 120.079978,18.8723507 119.709648,18.4195339 C119.339358,17.966717 119.008743,17.4406215 118.717764,16.8412875 C118.426824,16.2419534 118.20861,15.6692697 118.06312,15.1231964 C117.91767,14.5771232 117.822449,14.0244173 117.777497,13.4650388 L117.706041,12.6259711 L117.745717,12.6339623 L117.785392,12.6459489 L117.825068,12.6659267 L117.864743,12.6859046 L117.904418,12.7058824 L117.944094,12.7258602 L118.559062,13.0055494 C118.969068,13.1920222 119.478222,13.3518446 120.086564,13.4850166 C120.694947,13.6181887 121.058611,13.6914673 121.177638,13.7047725 L121.356177,13.7247503 L121.534716,13.7247503 L121.713255,13.7247503 L121.70536,13.7127636 L121.693417,13.7047725 L121.681515,13.6967814 L121.67358,13.6847947 L121.665684,13.672808 L121.653742,13.6648169 L121.641839,13.6568257 L121.633904,13.6448391 L121.594229,13.6248613 L121.554554,13.6048835 L121.546658,13.5928968 L121.534716,13.5849057 L121.522813,13.5769145 L121.514878,13.5649279 L121.475203,13.5449501 L121.435528,13.5249723 L121.427632,13.5129856 C121.419697,13.5076315 121.305948,13.4224062 121.086384,13.2572697 C120.869479,13.0894562 120.64202,12.8723774 120.403968,12.6059933 C120.165915,12.3396093 119.927863,12.0599201 119.689811,11.7669256 C119.451758,11.4739312 119.24017,11.160919 119.055005,10.8279689 C118.869879,10.4950189 118.674121,10.0714495 118.467809,9.55738069 C118.264155,9.04594895 118.109421,8.53052164 118.003607,8.01109878 C117.897832,7.49167592 117.838319,6.97892564 117.825068,6.47280799 C117.811856,5.96669034 117.825068,5.53385128 117.864743,5.17425083 C117.904418,4.81465039 117.983769,4.40842175 118.102795,3.95560488 C118.221821,3.50278801 118.393775,3.02332075 118.618575,2.51720311 L118.955816,1.75804661 L118.975654,1.69811321 L118.995491,1.6381798 L119.007434,1.63018868 L119.015329,1.618202 L119.023264,1.60621532 L119.035167,1.5982242 L119.047109,1.60621532 L119.055005,1.618202 L119.06294,1.63018868 L119.074842,1.6381798 L119.086784,1.64617092 L119.09468,1.6581576 L119.102615,1.67014428 L119.114518,1.67813541 L119.134355,1.71809101 L119.154193,1.75804661 L119.166135,1.76603774 L119.174031,1.77802442 L119.709648,2.37735849 C120.066727,2.77691454 120.489944,3.22309878 120.979261,3.71587125 C121.468617,4.20864373 121.739719,4.4643596 121.792606,4.48301887 C121.845533,4.50431521 121.911632,4.56556715 121.990983,4.66681465 C122.070334,4.76538513 122.334849,5.0011232 122.784491,5.37402886 C123.234171,5.74693452 123.822676,6.17981354 124.550045,6.67258602 C125.277454,7.16535849 126.084173,7.65149834 126.970243,8.13096559 C127.856353,8.61043285 128.808563,9.04327192 129.826871,9.42952275 C130.845219,9.81577358 131.559376,10.0688124 131.969342,10.1886792 C132.379347,10.3085461 133.080252,10.4616959 134.072137,10.6481687 C135.064022,10.8346415 135.811268,10.9545083 136.313796,11.0077691 C136.816364,11.06103 137.160231,11.0916759 137.345356,11.099667 L137.623084,11.1076582 L137.615188,11.0477248 L137.603246,10.9877913 L137.523895,10.4883463 C137.471008,10.1553962 137.444545,9.68923418 137.444545,9.08990011 C137.444545,8.49056604 137.490846,7.93786016 137.583408,7.43174251 C137.676011,6.92562486 137.814875,6.41287458 138,5.89345172 C138.185165,5.37402886 138.366362,4.95713208 138.543553,4.64284129 C138.723441,4.33118757 138.958835,3.97558269 139.249775,3.57602664 C139.540754,3.17647059 139.91767,2.76360932 140.380523,2.33740289 C140.843416,1.91119645 141.372408,1.5316182 141.967538,1.19866815 C142.562669,0.865718091 143.111538,0.61263929 143.614067,0.439511654 C144.116635,0.266384018 144.539852,0.153149834 144.883679,0.0998890122 C145.227546,0.0466281909 145.399459,0.015982242 145.399459,0.00799112098 Z" transform="translate(-115 1)"/>
</svg>
