<?xml version="1.0" encoding="UTF-8"?>
<svg width="38px" height="38px" viewBox="0 0 38 38" version="1.1" xmlns="http://www.w3.org/2000/svg" xmlns:xlink="http://www.w3.org/1999/xlink">
    <!-- Generator: Sketch 40.1 (33804) - http://www.bohemiancoding.com/sketch -->
    <title>logo-ft</title>
    <desc>Created with Sketch.</desc>
    <defs></defs>
    <g id="Page-1" stroke="none" stroke-width="1" fill="none" fill-rule="evenodd">
        <g id="Desktop" transform="translate(-1033.000000, -1639.000000)">
            <g id="COMPANIES" transform="translate(0.000000, 1389.000000)">
                <g id="Logos" transform="translate(768.000000, 152.000000)">
                    <g id="Row-2" transform="translate(53.000000, 97.000000)">
                        <g id="logo-ft" transform="translate(212.000000, 1.000000)">
                            <g id="Layer_1">
                                <g id="Group">
                                    <polygon id="Shape" fill="#EFCAA0" points="37.819913 37.8208571 0 37.8208571 0 0 37.819913 0"></polygon>
                                    <path d="M9.67465839,19.7361615 C9.67465839,21.5153168 10.1478882,21.7258509 12.1861988,21.8039752 L12.1861988,22.448795 L4.09337888,22.448795 L4.09337888,21.8039752 C5.7797764,21.7258509 6.25772671,21.5153168 6.25772671,19.7361615 L6.25772671,8.07960248 C6.25772671,6.3004472 5.7797764,6.09321739 4.1429441,6.01957764 L4.1429441,5.36602484 L18.4122981,5.36602484 L18.5126087,9.13604969 L17.8097267,9.13604969 C17.2059752,7.2266087 16.5524224,6.62332919 13.2124348,6.62332919 L10.6239503,6.62332919 C9.84790062,6.62332919 9.67465839,6.79586335 9.67465839,7.50016149 L9.67465839,12.9074907 L10.9496646,12.9074907 C13.6127329,12.9074907 14.1914658,12.4267081 14.5136398,10.640472 L15.1664845,10.640472 L15.1664845,16.6765714 L14.5136398,16.6765714 C14.1657391,14.6590311 13.157441,14.1624348 10.9496646,14.1624348 L9.67465839,14.1624348 L9.67465839,19.7361615 L9.67465839,19.7361615 L9.67465839,19.7361615 Z" id="Shape" fill="#48545C"></path>
                                    <path d="M34.570323,5.36626087 L19.5990311,5.36626087 L19.2482981,9.13770186 L20.1107329,9.13770186 C20.6566584,7.29009938 21.4655155,6.62380124 23.2649689,6.62380124 L25.3769193,6.62380124 L25.3769193,19.7363975 C25.3769193,21.5155528 24.8982609,21.726087 22.9638012,21.8042112 L22.9638012,22.4490311 L31.2041366,22.4490311 L31.2041366,21.8039752 C29.269913,21.7258509 28.7926708,21.5153168 28.7926708,19.7361615 L28.7926708,6.62356522 L30.8999006,6.62356522 C32.7054907,6.62356522 33.5105714,7.29009938 34.0588571,9.13746584 L34.9156273,9.13746584 L34.570323,5.36626087 L34.570323,5.36626087 L34.570323,5.36626087 Z" id="Shape" fill="#48545C"></path>
                                </g>
                            </g>
                        </g>
                    </g>
                </g>
            </g>
        </g>
    </g>
</svg>