<svg xmlns="http://www.w3.org/2000/svg" width="84" height="28" viewBox="0 0 84 28">
  <g fill="none">
    <path fill="#EA4335" d="M36.0111111,14.6782222 C36.0111111,18.6511111 32.9031111,21.5786667 29.0888889,21.5786667 C25.2746667,21.5786667 22.1666667,18.6511111 22.1666667,14.6782222 C22.1666667,10.6773333 25.2746667,7.77777778 29.0888889,7.77777778 C32.9031111,7.77777778 36.0111111,10.6773333 36.0111111,14.6782222 Z M32.9808889,14.6782222 C32.9808889,12.1955556 31.1795556,10.4968889 29.0888889,10.4968889 C26.9982222,10.4968889 25.1968889,12.1955556 25.1968889,14.6782222 C25.1968889,17.136 26.9982222,18.8595556 29.0888889,18.8595556 C31.1795556,18.8595556 32.9808889,17.1328889 32.9808889,14.6782222 Z"/>
    <path fill="#FBBC05" d="M50.9444444,14.6782222 C50.9444444,18.6511111 47.8364444,21.5786667 44.0222222,21.5786667 C40.208,21.5786667 37.1,18.6511111 37.1,14.6782222 C37.1,10.6804444 40.208,7.77777778 44.0222222,7.77777778 C47.8364444,7.77777778 50.9444444,10.6773333 50.9444444,14.6782222 Z M47.9142222,14.6782222 C47.9142222,12.1955556 46.1128889,10.4968889 44.0222222,10.4968889 C41.9315556,10.4968889 40.1302222,12.1955556 40.1302222,14.6782222 C40.1302222,17.136 41.9315556,18.8595556 44.0222222,18.8595556 C46.1128889,18.8595556 47.9142222,17.1328889 47.9142222,14.6782222 Z"/>
    <path fill="#4285F4" d="M65.2555556,8.19466667 L65.2555556,20.5831111 C65.2555556,25.6791111 62.2502222,27.7604444 58.6973333,27.7604444 C55.3528889,27.7604444 53.34,25.5235556 52.5808889,23.6942222 L55.2191111,22.596 C55.6888889,23.7191111 56.84,25.0444444 58.6942222,25.0444444 C60.9684444,25.0444444 62.3777778,23.6413333 62.3777778,21 L62.3777778,20.0075556 L62.272,20.0075556 C61.5937778,20.8444444 60.2871111,21.5755556 58.6382222,21.5755556 C55.188,21.5755556 52.0271111,18.5702222 52.0271111,14.7031111 C52.0271111,10.808 55.188,7.77777778 58.6382222,7.77777778 C60.284,7.77777778 61.5906667,8.50888889 62.272,9.32088889 L62.3777778,9.32088889 L62.3777778,8.19777778 L65.2555556,8.19777778 L65.2555556,8.19466667 Z M62.5924444,14.7031111 C62.5924444,12.2733333 60.9715556,10.4968889 58.9088889,10.4968889 C56.8182222,10.4968889 55.0666667,12.2733333 55.0666667,14.7031111 C55.0666667,17.108 56.8182222,18.8595556 58.9088889,18.8595556 C60.9715556,18.8595556 62.5924444,17.108 62.5924444,14.7031111 Z"/>
    <polygon fill="#34A853" points="70 .933 70 21.156 67.044 21.156 67.044 .933"/>
    <path fill="#EA4335" d="M81.5173333,16.9493333 L83.8693333,18.5173333 C83.1102222,19.6404444 81.2808889,21.5755556 78.12,21.5755556 C74.2,21.5755556 71.2724444,18.5453333 71.2724444,14.6751111 C71.2724444,10.5715556 74.2248889,7.77466667 77.7808889,7.77466667 C81.3617778,7.77466667 83.1133333,10.6244444 83.6857778,12.1644444 L84,12.9484444 L74.7755556,16.7688889 C75.4817778,18.1533333 76.58,18.8595556 78.12,18.8595556 C79.6631111,18.8595556 80.7333333,18.1004444 81.5173333,16.9493333 Z M74.2777778,14.4666667 L80.444,11.9062222 C80.1048889,11.0444444 79.0844444,10.444 77.8835556,10.444 C76.3435556,10.444 74.2,11.8035556 74.2777778,14.4666667 L74.2777778,14.4666667 Z"/>
    <path fill="#4285F4" d="M10.9791111,12.8831111 L10.9791111,9.95555556 L20.8444444,9.95555556 C20.9408889,10.4657778 20.9906667,11.0693333 20.9906667,11.7226667 C20.9906667,13.9191111 20.3902222,16.6351111 18.4551111,18.5702222 C16.5728889,20.5302222 14.168,21.5755556 10.9822222,21.5755556 C5.07733333,21.5755556 0.112,16.7657778 0.112,10.8608889 C0.112,4.956 5.07733333,0.146222222 10.9822222,0.146222222 C14.2488889,0.146222222 16.576,1.428 18.3244444,3.09866667 L16.2586667,5.16444444 C15.0048889,3.98844444 13.3062222,3.07377778 10.9791111,3.07377778 C6.66711111,3.07377778 3.29466667,6.54888889 3.29466667,10.8608889 C3.29466667,15.1728889 6.66711111,18.648 10.9791111,18.648 C13.776,18.648 15.3688889,17.5248889 16.3893333,16.5044444 C17.2168889,15.6768889 17.7613333,14.4946667 17.976,12.88 L10.9791111,12.8831111 L10.9791111,12.8831111 Z"/>
  </g>
</svg>
