<svg xmlns="http://www.w3.org/2000/svg" width="33" height="34" viewBox="0 0 33 34">
  <g fill="none" fill-rule="evenodd" transform="translate(0 .5)">
    <path fill="#6A7A55" d="M0,16.4922656 C0,18.101918 0.231902344,19.6571719 0.661675781,21.1278633 L9.76503516,18.1461328 C9.65005078,17.6495859 9.58882031,17.1324141 9.58882031,16.6008047 C9.58882031,15.9855352 9.67248047,15.3902461 9.82497656,14.8231875 L0.656777344,11.8734258 C0.22996875,13.3390898 0,14.8886719 0,16.4922656"/>
    <path fill="#A09440" d="M12.0652383,11.3370469 L6.30944531,3.51617578 C3.8919375,5.41715625 2.0191875,7.97903906 0.962414063,10.9293164 L10.1520117,13.8860391 C10.583332,12.8919141 11.2421719,12.0196055 12.0652383,11.3370469"/>
    <path fill="#AFA148" d="M16.0115742,9.77573437 L16.0115742,0 C12.7079648,0.0960351562 9.648375,1.16363672 7.107375,2.92617187 L12.872707,10.7600625 C13.7976094,10.1960977 14.8662422,9.84457031 16.0115742,9.77573437"/>
    <path fill="#4C5C59" d="M10.0603594,19.0935938 L0.96834375,22.0715859 C2.04032812,25.0551211 3.94659375,27.6407227 6.40702734,29.5456992 L12.0184453,21.8252461 C11.1568359,21.0978281 10.4791758,20.1606797 10.0603594,19.0935938"/>
    <path fill="#48555D" d="M7.21024219,30.1286133 C9.730875,31.8489961 12.7523086,32.8896562 16.0115742,32.9845312 L16.0115742,23.425875 C14.8447148,23.35575 13.7576484,22.9917187 12.8208867,22.4090625 L7.21024219,30.1286133"/>
    <path fill="#E3B23B" d="M25.8003281,2.86326562 C23.2816289,1.14133594 20.2617422,0.0983554687 17.0038945,0.00064453125 L17.0038945,9.78798047 C18.1108125,9.88040625 19.1424492,10.236832 20.0366719,10.7931914 L25.8003281,2.86326562"/>
    <path fill="#903024" d="M17.0038945,23.4136289 L17.0038945,32.9838867 C20.2872656,32.8854023 23.3290664,31.8268242 25.859625,30.0806602 L20.156168,22.3309453 C19.2347461,22.9312617 18.1606992,23.3170781 17.0038945,23.4136289"/>
    <path fill="#D65841" d="M20.9466211,21.7306289 L26.6593594,29.4929766 C29.112832,27.5733047 31.0078828,24.9737813 32.0641406,21.9785156 L22.8281367,19.0069688 C22.4298164,20.064 21.7790977,20.9972813 20.9466211,21.7306289"/>
    <path fill="#E6703E" d="M33,16.4922656 C33,14.8626328 32.7628125,13.2886875 32.3227266,11.8018828 L23.0358047,14.8436836 C23.1848203,15.4045547 23.266418,15.9928828 23.266418,16.6008047 C23.266418,17.1000586 23.2120195,17.5865508 23.1104414,18.0552539 L32.3653945,21.0329883 C32.7776367,19.5902695 33,18.0673711 33,16.4922656"/>
    <path fill="#F4A83A" d="M22.7117344,13.9056328 L32.0128359,10.8590625 C30.9387891,7.90233984 29.0438672,5.33955469 26.6030273,3.44682422 L20.8385977,11.3779102 C21.6445195,12.0586641 22.2890508,12.9231094 22.7117344,13.9056328"/>
  </g>
</svg>
