<svg xmlns="http://www.w3.org/2000/svg" width="35" height="35" viewBox="0 0 35 35">
  <path fill="#4987CE" d="M17.5,35 C17.3260532,35 17.1528356,34.9968403 16.9799421,34.9918171 L20.5563426,25.1628353 L25.4782176,25.1628353 C26.3421181,25.1628353 27.2904398,24.498728 27.5859144,23.6873294 L31.4660532,13.0296921 C32.1008333,11.2848003 31.1013889,9.85725727 29.2446875,9.85725727 L22.4165278,9.85725727 L16.6873032,25.6004153 L16.6851968,25.6004153 L13.4372454,34.5248275 C5.73157407,32.692922 0,25.7660978 0,17.5000405 C0,9.47225817 5.40563657,2.70771364 12.7752431,0.646040171 L9.42391204,9.85725727 L9.42293981,9.85725727 L3.85153935,25.1628353 L7.56040509,25.1631593 L12.2984491,12.1572057 L15.0858102,12.1572057 L10.3477662,25.1631593 L14.0552546,25.1638075 L18.4706019,13.0296921 C19.105787,11.2848003 18.1062616,9.85725727 16.2512616,9.85725727 L13.133588,9.85725727 L16.7134722,0.0183911611 C16.9744329,0.0068055398 17.2363657,0 17.5,0 C27.1650231,0 35,7.83495872 35,17.5000405 C35,27.1648792 27.1650231,35 17.5,35 Z M28.0884722,12.1478885 L25.3018403,12.1478885 L21.3994213,22.8551091 L24.1861343,22.8551091 L28.0884722,12.1478885 Z"/>
</svg>
