<svg xmlns="http://www.w3.org/2000/svg" width="29" height="30" viewBox="0 0 29 30">
  <path fill="#FF5A5F" fill-rule="evenodd" d="M28.0735799,24.1107921 C27.922135,23.7540594 27.7703873,23.3676238 27.6189423,23.040297 C27.3760247,22.5053465 27.13341,21.999505 26.92169,21.5239604 L26.891401,21.4942574 C24.7990383,17.0340594 22.5558363,12.5150495 20.1905698,8.05544554 L20.0997029,7.87663366 C19.8570882,7.43049505 19.6141705,6.95435644 19.3724645,6.47910891 C19.0689689,5.94356436 18.7660791,5.37920792 18.2808496,4.84366337 C17.3106936,3.65435644 15.915886,3 14.4305144,3 C12.914248,3 11.5500323,3.65435644 10.5498902,4.7839604 C10.0949497,5.31891089 9.76116515,5.88386139 9.45827534,6.41940594 C9.21535772,6.89584158 8.97274298,7.37079208 8.73103692,7.81693069 L8.63986709,7.99574257 C6.30519246,12.4553465 4.03139868,16.9746535 1.93933879,21.4345545 L1.90874692,21.4936634 C1.69672406,21.970099 1.45380643,22.4753465 1.2111917,23.01 C1.05974679,23.3373267 0.90830189,23.6940594 0.756856987,24.080495 C0.36249446,25.180396 0.241035647,26.2211881 0.39308633,27.2919802 C0.726568007,29.5220792 2.2422286,31.3945545 4.33459138,32.2277228 C5.12301354,32.5550495 5.94172469,32.7035644 6.79042193,32.7035644 C7.03303666,32.7035644 7.33592647,32.6738614 7.57884409,32.6438614 C8.57959201,32.5250495 9.61032603,32.1983168 10.6110739,31.6333663 C11.8541337,30.9493069 13.0366155,29.9685149 14.3705422,28.5412871 C15.7044689,29.9685149 16.9172397,30.9493069 18.1300105,31.6333663 C19.1310613,32.1983168 20.1614924,32.5250495 21.1619375,32.6438614 C21.4045522,32.6741584 21.7080478,32.7035644 21.9506625,32.7035644 C22.7996626,32.7035644 23.6483599,32.5550495 24.4061902,32.2277228 C26.5288419,31.3945545 28.0142135,29.4923762 28.3479981,27.2919802 C28.5887955,26.2514851 28.4676396,25.2112871 28.0735799,24.1107921 L28.0735799,24.1107921 L28.0735799,24.1107921 Z M14.3999225,25.6568317 C12.7625002,23.6349505 11.7011744,21.7321782 11.3377066,20.1270297 C11.1862617,19.4429703 11.1556698,18.8483168 11.2468396,18.3130693 C11.3071147,17.8372277 11.4894544,17.4207921 11.7320691,17.0640594 C12.3081655,16.2617822 13.2783216,15.7559406 14.4002254,15.7559406 C15.5224322,15.7559406 16.5228772,16.2317822 17.0686846,17.0640594 C17.3112993,17.4207921 17.4930332,17.8375248 17.554217,18.3130693 C17.644781,18.8486139 17.614492,19.4726733 17.4630471,20.1270297 C17.0980649,21.7024752 16.036739,23.6055446 14.3999225,25.6568317 L14.3999225,25.6568317 L14.3999225,25.6568317 Z M26.4967356,27.0543564 C26.2847128,28.600396 25.2233869,29.9388119 23.7380153,30.5334653 C23.0104739,30.830495 22.2217489,30.919901 21.4339325,30.830495 C20.6761022,30.7410891 19.9176661,30.5031683 19.1298497,30.0576238 C18.0382349,29.4623762 16.9469229,28.5412871 15.6732713,27.1731683 C17.6741613,24.7651485 18.8869321,22.5644554 19.3418726,20.6025743 C19.5541984,19.6805941 19.5847902,18.8483168 19.4933175,18.0748515 C19.3724645,17.3316832 19.0992579,16.6476238 18.6749093,16.0529703 C17.7344364,14.7145545 16.1575921,13.9419802 14.3996196,13.9419802 C12.6416472,13.9419802 11.0648029,14.7448515 10.1249358,16.0529703 C9.70058719,16.6476238 9.42738058,17.3316832 9.30622466,18.0748515 C9.18506874,18.8483168 9.21505483,19.710297 9.45766956,20.6025743 C9.91230716,22.5644554 11.1553669,24.7945545 13.125968,27.2028713 C11.8829082,28.5706931 10.7610044,29.4926733 9.66938954,30.0873267 C8.88096737,30.5334653 8.12343997,30.7713861 7.36560967,30.860198 C6.54720141,30.949604 5.75847636,30.830495 5.06122402,30.5631683 C3.57585241,29.9685149 2.51452653,28.630099 2.30250367,27.0840594 C2.21163673,26.3408911 2.2719118,25.5977228 2.57540738,24.7651485 C2.66597144,24.4675248 2.81802212,24.170495 2.96946702,23.8137624 C3.18179278,23.3379208 3.42380173,22.8320792 3.66671936,22.3268317 L3.69731123,22.2677228 C5.78906823,17.8372277 8.03257302,13.3179208 10.3672477,8.91772277 L10.4581146,8.73891089 C10.7010322,8.29336634 10.943647,7.81752475 11.1859588,7.37138614 C11.4285735,6.89554455 11.7011744,6.44940594 12.0349589,6.06267327 C12.6716333,5.34980198 13.5203305,4.96277228 14.4605005,4.96277228 C15.4006705,4.96277228 16.2493677,5.34980198 16.8860421,6.06267327 C17.2198266,6.45029703 17.4924275,6.89643564 17.7350422,7.37138614 C17.9779598,7.81752475 18.2205745,8.29336634 18.4625835,8.73891089 L18.5537533,8.91772277 C20.8578361,13.3476238 23.1019467,17.8669307 25.1937037,22.2974257 L25.1937037,22.3271287 C25.4366213,22.8035644 25.6486442,23.3382178 25.8912589,23.8146535 C26.0427038,24.1707921 26.1944516,24.4678218 26.2853185,24.7654455 C26.5273275,25.5377228 26.6181944,26.2814851 26.4967356,27.0543564 L26.4967356,27.0543564 L26.4967356,27.0543564 Z" transform="translate(0 -3)"/>
</svg>
