<svg xmlns="http://www.w3.org/2000/svg" width="35" height="35" viewBox="0 0 35 35">
  <g fill="#E85E22" stroke="#E1E2E6" stroke-opacity=".894" stroke-width=".5" transform="translate(1.11 1)">
    <path d="M15.6545848,25.1309886 C15.0016322,25.0723279 14.5197601,24.9963356 14.2003354,24.9016501 C13.49073,24.6913047 13.1482248,24.5725839 12.9405397,24.4649737 C12.8752166,24.4311263 12.8027286,24.4034337 12.7794557,24.4034337 C12.6411275,24.4034337 11.6307334,23.7993622 11.0181559,23.3504268 C10.2216691,22.766713 9.15303293,21.5588395 8.73648406,20.7714652 C8.4325907,20.1970376 8.15960682,19.6166266 8.15960682,19.5449259 C8.15960682,19.5201052 8.132033,19.4344738 8.09833166,19.354634 C7.94564497,18.9929151 7.8422455,18.6141659 7.73287183,18.0159652 C7.44383878,16.4351485 7.58604425,14.8452402 8.14998829,13.3524514 C8.2476449,13.093949 8.58955918,12.3715069 8.69392403,12.2031493 C8.7165309,12.1666807 8.8107194,12.0075472 8.90323183,11.8495175 C8.99574425,11.6914893 9.08284861,11.5522466 9.09679693,11.5400899 C9.11074525,11.5279275 9.21201556,11.3986381 9.32184202,11.2527651 C9.43166863,11.1068921 9.57206572,10.9278664 9.63383553,10.8549292 C9.81056915,10.6462467 10.6711052,9.80508393 10.8443751,9.67164432 C11.4723419,9.18802716 11.9278459,8.89247109 12.3278012,8.70911502 C12.4348057,8.66006031 12.5525589,8.60132031 12.5894744,8.57858057 C12.62639,8.55584227 12.7572725,8.49569004 12.8803243,8.44490895 C13.0033761,8.39412786 13.1443265,8.33435463 13.1935472,8.31207891 C13.3571565,8.23803354 14.0355376,8.03484576 14.5806775,7.89660891 C14.9153603,7.81173983 16.0537034,7.6937814 16.5161758,7.69604672 C16.9117628,7.69799214 18.0632125,7.83644515 18.4959649,7.93411362 C20.6679219,8.42430773 22.4870267,9.6710117 23.838838,11.5957936 C24.0698663,11.9247417 24.6700977,13.0593292 24.6723543,13.1713476 C24.6730837,13.2101738 24.703342,13.2805546 24.7394746,13.3277475 C24.7756072,13.3749403 24.8051712,13.4415557 24.8051712,13.4757806 C24.8051712,13.5100055 24.8325646,13.6006892 24.8660466,13.677301 C24.9338817,13.8325134 25.0806702,14.3834376 25.1622712,14.7890797 C25.2512373,15.2313359 25.2916659,15.7289644 25.2933492,16.4025232 C25.2956103,17.3072924 25.2456212,17.7765322 25.0720068,18.4801066 C25.0450102,18.5895124 25.0018072,18.7685382 24.9759994,18.8779425 C24.9501902,18.9873469 24.9135894,19.0967513 24.8946639,19.1210646 C24.8757355,19.1453766 24.846192,19.2302096 24.8290096,19.3095825 C24.7587108,19.6343342 24.0914569,20.9899036 23.8556352,21.2870564 C23.8363421,21.3113683 23.6777044,21.5202324 23.5031082,21.7511978 C23.3285135,21.9821632 23.0114205,22.346819 22.798457,22.5615452 C22.4187278,22.9444187 21.5000569,23.6961702 21.4119004,23.6961702 C21.3873019,23.6961702 21.3604643,23.7124598 21.3522604,23.7323693 C21.3336383,23.7775649 20.5499257,24.2281129 20.308183,24.3325961 C20.2097425,24.3751445 20.0687918,24.4361224 19.9949614,24.4681051 C19.6418802,24.6210478 19.5183131,24.6686572 19.4744376,24.6686572 C19.4482287,24.6686572 19.3633354,24.6971553 19.2857852,24.7319855 C19.1131875,24.8095052 18.6413092,24.9328114 18.3393534,24.9792967 C18.2163012,24.9982407 18.0652839,25.0329066 18.0037578,25.0563322 C17.9422318,25.0797579 17.6603304,25.1119985 17.3773117,25.1279783 C17.094293,25.143958 16.7419163,25.1647394 16.594254,25.1741595 C16.4465918,25.183584 16.0237412,25.1641586 15.6545848,25.1309886 L15.6545848,25.1309886 Z"/>
    <path d="M14.6925432,32.8394672 C14.5571858,32.8170445 14.2450814,32.7693026 13.9989778,32.7333917 C13.1007925,32.6022996 12.9878479,32.5837245 12.9505861,32.5609847 C12.9297125,32.5483035 12.7744817,32.5078533 12.605629,32.4712507 C12.4367765,32.4346336 12.1576741,32.3637917 11.9854016,32.3138162 C11.8131289,32.2638406 11.6117713,32.2054926 11.5379402,32.1841507 C10.3032019,31.8273039 8.42394557,30.9364769 7.35417626,30.2009227 C7.19420893,30.0909275 6.95055052,29.9243279 6.81271364,29.8307031 C6.67487676,29.7370638 6.52385855,29.6255555 6.47711753,29.582886 C6.43037666,29.5402166 6.28138769,29.4191109 6.14603064,29.3137415 C5.58907811,28.880231 4.99868011,28.3268686 4.27512394,27.560231 C3.89124772,27.1535096 3.02303746,26.0635009 2.8345477,25.7516581 C2.77576768,25.6544017 2.71475524,25.5648983 2.6989644,25.5527358 C2.68317342,25.540631 2.52218878,25.2819859 2.34122064,24.9780848 C1.92398179,24.2774097 1.48696148,23.4098974 1.22780727,22.7678889 C1.17383095,22.6341711 1.11063749,22.4849823 1.08737738,22.4363585 C0.931070043,22.1096037 0.562525009,20.8733272 0.382376699,20.0714488 C0.0848825619,18.747238 0.0468331578,18.3787793 0.0263231851,16.6235425 C0.0053567324,14.8292388 0.0610019286,14.202821 0.352236936,12.9546169 C0.389108755,12.7965872 0.419107503,12.6358297 0.418900831,12.5973782 C0.418695151,12.5589267 0.459763762,12.3898457 0.510166661,12.2216451 C0.560569517,12.0534431 0.631317139,11.8163648 0.667383596,11.6948037 C0.808601113,11.2188356 1.02273058,10.5990553 1.11027541,10.4128906 C1.14457418,10.3399534 1.24684496,10.1012524 1.33754386,9.88244371 C1.53606738,9.40350852 2.14439821,8.22074817 2.33784019,7.9375952 C2.41429411,7.82568341 2.47684741,7.72690821 2.47684741,7.71809332 C2.47684741,7.65986201 3.09283478,6.78382009 3.45060977,6.33323319 C3.580108,6.17013969 3.70092259,6.01649371 3.71908662,5.99179415 C3.99739382,5.61336197 5.15269818,4.4366569 5.74331543,3.93006943 C6.1493593,3.5817955 6.951334,2.9757959 7.19756487,2.83118817 C7.29600628,2.77337476 7.38661726,2.7150786 7.39892248,2.70163795 C7.43654326,2.66054934 7.70709311,2.47828559 7.73046362,2.47828559 C7.74253164,2.47828559 7.83899181,2.42080507 7.94481947,2.35055109 C8.51594,1.97141135 9.87157561,1.32476699 10.7325097,1.02081105 C10.9540031,0.942611135 11.1855644,0.858464017 11.2470903,0.833817773 C11.4301978,0.760465546 12.1556525,0.557846987 12.5671014,0.465140044 C14.1161159,0.116119651 14.4525397,0.0789189956 16.2586585,0.0569271616 C17.4583467,0.0423192576 17.8827377,0.0532092576 18.3840997,0.111479476 C19.2025169,0.206592969 20.1913772,0.391712882 20.8003915,0.563820131 C20.9234437,0.598594061 21.1348682,0.658260655 21.2702262,0.696410961 C21.4055826,0.734561266 21.5603824,0.782102882 21.6142239,0.802057074 C21.6680669,0.822011266 21.8694233,0.891285328 22.0616861,0.955998472 C22.2539474,1.02071162 22.4303815,1.09132297 22.4537605,1.11291275 C22.4771409,1.13450253 22.5252744,1.1521669 22.5607258,1.1521669 C22.5961757,1.1521669 22.70793,1.19031 22.8090663,1.2369279 C22.910204,1.28354581 23.1439704,1.39026118 23.3285486,1.47407397 C23.962882,1.76211066 24.3990172,1.98638384 24.7078976,2.18337223 C24.8143641,2.25127153 24.9351785,2.3194576 24.9763743,2.33489699 C25.0461539,2.36104769 25.5276378,2.67626109 26.1028084,3.07233891 C26.2381648,3.16555022 26.4367745,3.31369284 26.5441614,3.40154777 C26.6515483,3.48940127 26.8126352,3.61704066 26.9021308,3.6851907 C27.614983,4.22802052 28.9961307,5.63951987 29.457423,6.29663633 C29.4935993,6.34816965 29.6357228,6.53952066 29.7732528,6.72186223 C30.2737235,7.3854 30.6702135,8.04235939 31.1605125,9.02046642 C31.6014454,9.90009223 31.598862,9.89460039 31.7427564,10.2581768 C32.1895607,11.3871126 32.5491303,12.6628839 32.6833855,13.5955734 C32.7043823,13.7414464 32.7527157,14.0597148 32.7907928,14.3028355 C32.8866937,14.9151685 32.9262003,16.7279349 32.8652358,17.7186943 C32.8201335,18.4516676 32.7833927,18.7373121 32.628005,19.5631032 C32.6005547,19.7089762 32.5635075,19.9078941 32.5456775,20.0051433 C32.4490035,20.5323838 32.1559167,21.5364485 31.8940713,22.2374405 C31.5728311,23.0974335 31.1206733,24.0728847 30.8080921,24.5802489 C30.755667,24.6653413 30.6916888,24.7828314 30.6659175,24.8413365 C30.6401463,24.8998416 30.5593534,25.0351085 30.4863763,25.141929 C30.4133993,25.2487496 30.3536922,25.3459425 30.3536922,25.3579032 C30.3536922,25.3698639 30.3336858,25.4036738 30.3092332,25.4330424 C30.2847807,25.4624109 30.1518238,25.6552808 30.0137716,25.8616533 C29.7604642,26.2403031 29.3426199,26.7873105 28.9685331,27.2299716 C28.6345465,27.625179 27.3133203,28.9175109 26.9578584,29.1966707 C26.3857454,29.6459751 25.6750288,30.1669572 25.4484101,30.3031507 C25.3284272,30.3752607 25.0691725,30.5317873 24.87229,30.6509908 C24.5500214,30.8461231 23.5051782,31.3797288 23.1048167,31.5536489 C23.0186805,31.5910729 22.9132425,31.6386563 22.8705092,31.6593786 C22.3219093,31.925569 20.3462382,32.5183297 19.6563959,32.6237279 C19.5226718,32.644162 19.2924457,32.6820039 19.1447835,32.7078131 C18.244335,32.865262 17.8549607,32.8905236 16.4071304,32.8854223 C15.5994655,32.8825402 14.8279011,32.8619044 14.6925432,32.8394672 L14.6925432,32.8394672 Z M17.5786696,25.8616533 C18.0708766,25.8360314 18.60845,25.785883 18.7732756,25.7502026 C18.9381012,25.7145367 19.1381725,25.6853555 19.2178772,25.6853555 C19.2975834,25.6853555 19.4848981,25.6574424 19.6341329,25.6233328 C19.7833677,25.5892087 20.0967585,25.5187127 20.3305569,25.466662 C21.1155824,25.2918658 22.2200597,24.9370826 23.0153255,24.6042452 C23.2885518,24.4898952 24.3897309,23.9606861 24.536693,23.8731007 C24.5736089,23.8511002 24.7951031,23.721756 25.0289015,23.5856678 C25.5644648,23.2739316 25.8570629,23.0911102 26.090116,22.9226012 C26.1909882,22.8496655 26.3182736,22.7601519 26.3729728,22.7236847 C26.4276706,22.6872161 26.5483771,22.5977025 26.6412103,22.5247668 C27.4468753,21.8917734 27.3958666,21.9338881 27.8890773,21.4944621 C28.5176356,20.9344449 29.3846895,20.0121151 29.8286872,19.4311955 C30.864854,18.0754906 31.7493367,16.5968917 31.6717764,16.3500878 C31.6409433,16.251974 31.4383236,15.8696856 31.2192743,15.4963417 C31.1622178,15.3990941 31.1015305,15.2896883 31.0844167,15.2532211 C31.067303,15.2167525 31.0190732,15.137185 30.9772414,15.0764045 C30.9354081,15.015624 30.803573,14.816706 30.6842727,14.6343659 C29.7395504,13.1904257 28.2782634,11.6441667 26.7702417,10.4927405 C26.2445569,10.0913611 25.4138413,9.52917655 25.2078855,9.43541908 C25.1709696,9.41861358 25.1105624,9.38006987 25.0736479,9.34976607 C24.955993,9.25318271 23.8883456,8.707331 23.3403876,8.46360655 C23.2607631,8.42819135 23.1298805,8.37010991 23.0495384,8.33453476 C22.4132882,8.05281707 21.2214245,7.6653524 20.4200497,7.47970939 C19.6530919,7.30203825 19.3972084,7.25230913 19.2499517,7.25230913 C19.1671749,7.25230913 19.0291052,7.23139376 18.9431309,7.20582956 C18.6842555,7.12885454 17.3174223,7.03259974 16.4736394,7.03192389 C15.6066584,7.03120336 14.8041691,7.0833376 14.0437238,7.18970712 C13.1897751,7.30915559 12.1450092,7.54114127 11.5379402,7.74610441 C11.464109,7.77103166 11.3332266,7.8074455 11.2470903,7.82702502 C11.1609539,7.84660454 10.9797321,7.90577109 10.8443751,7.95850769 C10.709018,8.01124428 10.537864,8.07480603 10.4640329,8.09975777 C10.3315167,8.14454266 10.1442265,8.21994983 9.88233312,8.33396266 C9.55589474,8.47607594 8.33633431,9.07872079 8.09248757,9.2184131 C7.94482531,9.30300406 7.79380711,9.3862145 7.75689161,9.4033255 C7.71997598,9.42043507 7.63943296,9.46803 7.57790704,9.50909266 C7.51638113,9.55015389 7.27475194,9.7090669 7.04095334,9.86223157 C5.61675945,10.795241 4.07532338,12.2144644 3.05813874,13.5292679 C2.9734989,13.6386723 2.89290644,13.7381306 2.87904447,13.7502872 C2.80093111,13.8187875 2.04327552,14.9145921 1.90102089,15.1648128 C1.75586705,15.4201319 1.70678244,15.5031983 1.62675553,15.6289542 C1.58034097,15.70189 1.49007468,15.870971 1.42616385,16.0046873 C1.36225295,16.1384036 1.28962916,16.2839019 1.26477765,16.3280167 C1.2302926,16.389231 1.25387252,16.4834366 1.36435672,16.7258511 C1.44397671,16.9005465 1.53556923,17.0748831 1.56789557,17.1132654 C1.60022192,17.1516491 1.62667077,17.1957942 1.62667077,17.211369 C1.62667077,17.2996491 2.40852223,18.5103499 2.8111664,19.0455638 C3.40401345,19.8336067 3.71991941,20.1914448 4.51538644,20.9760033 C5.21500802,21.6660304 5.32197552,21.7618543 5.90038369,22.2167226 C6.52886562,22.7109675 6.64894939,22.7981523 7.13008678,23.1095311 C7.36408275,23.2609665 7.59486719,23.4151284 7.64294061,23.4521114 C7.69101447,23.4890959 7.75242865,23.5193551 7.77941636,23.5193551 C7.8064045,23.5193551 7.8534908,23.5442189 7.88405297,23.5746092 C7.99872837,23.6886407 9.36400907,24.3819909 9.85996008,24.5780628 C9.99531713,24.6315761 10.1664711,24.7030031 10.2403023,24.7367885 C10.3141334,24.7705738 10.4301041,24.8110529 10.4980153,24.8267416 C10.5659265,24.8424303 10.6325558,24.8729545 10.6460812,24.8945731 C10.6596065,24.9161917 10.7047215,24.934555 10.7463371,24.9353807 C10.7879528,24.9362454 10.902545,24.9753136 11.0009865,25.0222889 C11.099428,25.0692628 11.2266002,25.1083714 11.2835915,25.1091971 C11.3405828,25.1100617 11.4311938,25.134071 11.4849491,25.1626398 C11.5387044,25.1912086 11.6531614,25.2299223 11.7392978,25.2486703 C11.8254341,25.2674169 12.0871989,25.3319543 12.3209975,25.3920878 C12.9657992,25.5579236 13.5807218,25.6859895 13.7305174,25.6856581 C13.804358,25.685514 14.0057156,25.7151852 14.1779788,25.7516437 C14.3502425,25.7881022 14.8435619,25.8299502 15.2742429,25.8446201 C15.7049254,25.8593044 16.1177078,25.8881686 16.1915397,25.9087755 C16.2653701,25.9293825 16.4063208,25.9376974 16.5047613,25.9272498 C16.6032033,25.9167301 17.0864611,25.8872751 17.5786696,25.8616533 L17.5786696,25.8616533 Z"/>
  </g>
</svg>
