<svg xmlns="http://www.w3.org/2000/svg" width="46" height="46" viewBox="0 0 46 46">
  <g fill="#E85E22" stroke="#E1E2E6" stroke-opacity=".894" stroke-width=".5" transform="translate(1 1)">
    <path d="M20.8935694,33.5079848 C20.0220988,33.4297705 19.3789626,33.3284475 18.9526388,33.2022002 C18.005556,32.9217396 17.5484275,32.7634452 17.2712382,32.6199649 C17.184054,32.5748351 17.0873071,32.5379116 17.0562457,32.5379116 C16.8716244,32.5379116 15.5230904,31.732483 14.7055069,31.1339024 C13.6424667,30.3556173 12.2161993,28.7451193 11.6602476,27.695287 C11.2546529,26.9293834 10.8903119,26.1555022 10.8903119,26.0599011 C10.8903119,26.026807 10.8535102,25.9126318 10.8085303,25.8061787 C10.6047453,25.3238868 10.466742,24.8188879 10.3207652,24.021287 C9.93500395,21.9135314 10.1248001,19.7936536 10.8774744,17.8032685 C11.0078129,17.4585986 11.4641527,16.4953425 11.6034444,16.2708657 C11.6336169,16.2222409 11.7593267,16.0100629 11.8827995,15.7993567 C12.0062722,15.5886524 12.122527,15.4029955 12.1411433,15.3867866 C12.1597596,15.37057 12.2949212,15.1981841 12.4415023,15.0036868 C12.5880836,14.8091895 12.7754662,14.5704886 12.857908,14.473239 C13.0937875,14.1949956 14.2423117,13.0734452 14.4735683,12.8955258 C15.3116914,12.2507029 15.9196349,11.8566281 16.4534398,11.6121534 C16.5962547,11.5467471 16.7534153,11.4684271 16.802685,11.4381074 C16.8519548,11.4077897 17.0266385,11.3275867 17.1908711,11.2598786 C17.3551036,11.1921705 17.5432246,11.1124728 17.6089176,11.0827719 C17.8272806,10.9840447 18.7326897,10.7131277 19.4602668,10.5288119 C19.906955,10.4156531 21.4262575,10.2583752 22.0435016,10.2613956 C22.5714763,10.2639895 24.1082717,10.4485935 24.6858496,10.5788182 C27.5846766,11.2324103 30.0125655,12.8946823 31.8167758,15.4610582 C32.1251204,15.8996555 32.926226,17.412439 32.9292379,17.5617969 C32.9302113,17.6135651 32.9705959,17.7074061 33.0188207,17.77033 C33.0670455,17.8332538 33.1065034,17.9220742 33.1065034,17.9677074 C33.1065034,18.0133406 33.1430642,18.1342522 33.1877515,18.2364014 C33.2782883,18.4433513 33.4742012,19.1779169 33.583111,19.7187729 C33.7018506,20.3084479 33.755809,20.9719525 33.7580558,21.8700309 C33.7610735,23.0763899 33.694355,23.702043 33.4626386,24.6401422 C33.4266073,24.7860166 33.3689458,25.0247176 33.3345012,25.17059 C33.3000547,25.3164625 33.251205,25.462335 33.2259458,25.4947528 C33.2006828,25.5271687 33.1612522,25.6402795 33.1383196,25.74611 C33.0444945,26.1791123 32.1539365,27.9865382 31.8391943,28.3827418 C31.8134446,28.4151577 31.601717,28.6936431 31.3686903,29.001597 C31.1356655,29.3095509 30.7124536,29.7957586 30.4282195,30.0820603 C29.9214096,30.5925583 28.695295,31.5948936 28.5776359,31.5948936 C28.5448053,31.5948936 28.5089862,31.6166131 28.4980368,31.6431591 C28.4731827,31.7034199 27.4271917,32.3041506 27.1045471,32.4434615 C26.9731623,32.5001927 26.7850409,32.5814966 26.6865023,32.6241401 C26.2152584,32.8280638 26.0503382,32.8915429 25.9917793,32.8915429 C25.9567993,32.8915429 25.8434954,32.9295404 25.7399922,32.9759806 C25.5096327,33.0793403 24.879835,33.2437485 24.4768262,33.3057289 C24.3125933,33.3309876 24.1110363,33.3772087 24.0289198,33.408443 C23.9468034,33.4396772 23.5705605,33.4826646 23.1928264,33.503971 C22.8150922,33.5252774 22.3447887,33.5529859 22.1477096,33.565546 C21.9506304,33.578112 21.3862681,33.5522115 20.8935694,33.5079848 L20.8935694,33.5079848 Z"/>
    <path d="M19.6095696,43.7859563 C19.4289133,43.7560594 19.0123597,43.6924035 18.6838946,43.6445223 C17.4851215,43.4697328 17.3343786,43.4449659 17.2846467,43.4146463 C17.2567875,43.397738 17.0496071,43.3438044 16.8242459,43.2950009 C16.5988849,43.2461782 16.2263778,43.1517223 15.9964523,43.0850882 C15.7665266,43.0184541 15.4977824,42.9406568 15.3992428,42.9122009 C13.7512853,42.4364052 11.2431146,41.2486358 9.81533485,40.2678969 C9.60183264,40.1212367 9.27663117,39.8991039 9.09266561,39.7742707 C8.90870005,39.6494183 8.70714189,39.5007406 8.64475846,39.443848 C8.58237522,39.3869555 8.3835254,39.2254812 8.20286958,39.0849886 C7.45952657,38.5069747 6.67154517,37.7691581 5.70584271,36.7469747 C5.19349795,36.2046795 4.03473127,34.7513345 3.78316127,34.3355441 C3.70470986,34.205869 3.6232789,34.086531 3.60220349,34.0703144 C3.58112788,34.0541747 3.36626789,33.7093146 3.12473671,33.304113 C2.56786414,32.3698797 1.98459002,31.2131965 1.63870691,30.3571852 C1.5666668,30.1788948 1.48232494,29.9799764 1.45128056,29.9151446 C1.24266321,29.4794716 0.750780391,27.8311029 0.510343404,26.7619317 C0.113289475,24.9963174 0.0625064058,24.5050391 0.0351325379,22.1647233 C0.00714942372,19.7723184 0.0814169166,18.9370947 0.470117027,17.2728225 C0.519328418,17.0621163 0.559366588,16.8477729 0.55909075,16.7965043 C0.558816237,16.7452356 0.613628926,16.5197942 0.680899727,16.2955268 C0.748170471,16.0712575 0.842594588,15.755153 0.890731094,15.5930716 C1.07920866,14.9584475 1.36499898,14.1320737 1.48184168,13.8838541 C1.52761893,13.7866045 1.66411578,13.4683366 1.7851681,13.1765916 C2.05012977,12.5380114 2.86204542,10.9609976 3.12022496,10.5834603 C3.22226504,10.4342445 3.30575251,10.3025443 3.30575251,10.2907911 C3.30575251,10.2131493 4.12788706,9.04509345 4.6053955,8.44431092 C4.77823179,8.22685293 4.93947835,8.02199162 4.96372119,7.98905886 C5.33516704,7.48448262 6.87710713,5.91554253 7.66538115,5.24009258 C8.20731221,4.77572734 9.27767685,3.96772786 9.60631168,3.77491755 C9.73769763,3.69783301 9.8586326,3.6201048 9.87505589,3.60218393 C9.9252669,3.54739913 10.2863593,3.30438079 10.317551,3.30438079 C10.3336578,3.30438079 10.4623994,3.22774009 10.6036435,3.13406812 C11.365896,2.62854847 13.1752105,1.76635598 14.324266,1.3610814 C14.6198847,1.25681485 14.9289405,1.14461869 15.0110567,1.11175703 C15.2554433,1.01395406 16.2236796,0.743795983 16.7728245,0.620186725 C18.8402344,0.154826201 19.2892462,0.105225328 21.6998032,0.0759028821 C23.3009807,0.0564256769 23.8673989,0.0709456769 24.5365474,0.148639301 C25.6288572,0.275457293 26.9486508,0.522283843 27.7614788,0.751760175 C27.9257117,0.798125415 28.2078919,0.877680873 28.3885488,0.928547948 C28.5692039,0.979415022 28.7758092,1.04280384 28.8476694,1.06940943 C28.9195315,1.09601502 29.1882742,1.18838044 29.4448798,1.27466463 C29.7014835,1.36094882 29.9369634,1.45509729 29.9681664,1.48388367 C29.9993713,1.51267004 30.0636133,1.53622253 30.1109288,1.53622253 C30.1582425,1.53622253 30.3073966,1.58708 30.4423793,1.64923721 C30.5773639,1.71139441 30.8893628,1.85368157 31.1357122,1.96543197 C31.9823326,2.34948087 32.5644253,2.64851179 32.9766761,2.91116297 C33.1187727,3.00169537 33.2800191,3.09261013 33.3350016,3.11319598 C33.4281336,3.14806358 34.0707517,3.56834812 34.8384096,4.09645188 C35.0190646,4.22073362 35.2841412,4.41825712 35.4274664,4.53539703 C35.5707915,4.65253502 35.785788,4.82272087 35.9052343,4.9135876 C36.8566506,5.6373607 38.700015,7.51935983 39.3156841,8.39551511 C39.3639673,8.4642262 39.553654,8.71936087 39.7372099,8.96248297 C40.4051688,9.8472 40.9343487,10.7231459 41.5887319,12.0272886 C42.177228,13.200123 42.17378,13.1928005 42.3658303,13.6775691 C42.9621627,15.1828168 43.4420664,16.8838452 43.6212515,18.1274313 C43.6492752,18.3219286 43.7137839,18.7462865 43.7646039,19.0704473 C43.8925991,19.8868914 43.9453271,22.3039132 43.8639602,23.6249258 C43.8037639,24.6022234 43.7547273,24.9830828 43.5473373,26.0841376 C43.5107005,26.2786349 43.461255,26.5438589 43.4374581,26.6735244 C43.308431,27.3765118 42.9172593,28.7152646 42.5677844,29.6499207 C42.1390375,30.796578 41.53556,32.0971796 41.1183699,32.7736652 C41.0484002,32.8871217 40.963011,33.0437752 40.928615,33.121782 C40.8942191,33.1997888 40.786388,33.3801446 40.6889883,33.5225721 C40.5915887,33.6649995 40.5119,33.79459 40.5119,33.8105376 C40.5119,33.8264852 40.4851982,33.8715651 40.4525623,33.9107231 C40.4199264,33.9498812 40.242474,34.207041 40.0582211,34.4822044 C39.7201414,34.9870707 39.1624609,35.716414 38.6631816,36.3066288 C38.2174227,36.8335721 36.4540331,38.5566812 35.9796119,38.9288943 C35.2160347,39.5279668 34.2674687,40.2226096 33.9650096,40.4042009 C33.8048729,40.5003476 33.4588558,40.7090498 33.1960842,40.8679878 C32.7659648,41.1281642 31.3714529,41.8396384 30.837106,42.0715319 C30.7221434,42.1214306 30.5814193,42.1848751 30.5243848,42.2125048 C29.7921897,42.5674253 27.1553379,43.3577729 26.234632,43.4983039 C26.0561556,43.5255493 25.7488818,43.5760052 25.5518027,43.6104175 C24.3500088,43.8203493 23.830326,43.8540314 21.8979628,43.8472297 C20.8200037,43.8433869 19.7902265,43.8158725 19.6095696,43.7859563 L19.6095696,43.7859563 Z M23.461571,34.4822044 C24.1185007,34.4480419 24.8359791,34.3811773 25.0559655,34.3336035 C25.2759519,34.2860489 25.5429793,34.2471406 25.6493581,34.2471406 C25.7557388,34.2471406 26.0057405,34.2099231 26.2049184,34.1644437 C26.4040963,34.118945 26.8223669,34.0249502 27.1344087,33.9555493 C28.1821519,33.7224877 29.656255,33.2494435 30.7176655,32.8056603 C31.0823301,32.6531935 32.5520313,31.9475815 32.7481759,31.8308009 C32.7974462,31.8014669 33.0930658,31.629008 33.4051076,31.447557 C34.1199032,31.0319088 34.5104227,30.7881469 34.8214696,30.5634683 C34.9560998,30.4662206 35.1259827,30.3468692 35.1989876,30.2982463 C35.2719906,30.2496215 35.4330929,30.13027 35.5569938,30.0330224 C36.6322837,29.1890313 36.5642044,29.2451841 37.2224736,28.6592828 C38.0613862,27.9125932 39.2186096,26.6828201 39.8111961,25.9082606 C41.1941278,24.1006541 42.3746127,22.129189 42.2710959,21.800117 C42.2299442,21.6692987 41.9595156,21.1595808 41.6671589,20.661789 C41.5910078,20.5321254 41.5100108,20.386251 41.4871697,20.3376281 C41.4643287,20.2890033 41.3999582,20.1829134 41.3441269,20.1018727 C41.2882936,20.020832 41.1123384,19.755608 40.9531129,19.5124879 C39.6922287,17.5872342 37.7419053,15.5255556 35.7292071,13.9903207 C35.0275959,13.4551481 33.9188719,12.7055687 33.6439906,12.5805588 C33.5947204,12.5581514 33.5140972,12.5067598 33.4648288,12.4663548 C33.3077995,12.3375769 31.8828517,11.6097747 31.1515133,11.2848087 C31.0452416,11.2375885 30.8705577,11.1601466 30.7633281,11.112713 C29.9141496,10.7370894 28.3234152,10.2204699 27.2538512,9.97294585 C26.2302223,9.736051 25.8887044,9.6697455 25.6921665,9.6697455 C25.5816876,9.6697455 25.3974113,9.64185834 25.2826648,9.60777275 C24.9371538,9.50513939 23.1128943,9.37679965 21.9867299,9.37589852 C20.8296039,9.37493782 19.7585524,9.44445013 18.7436155,9.58627616 C17.6038831,9.74554079 16.2094744,10.054855 15.3992428,10.3281392 C15.3007033,10.3613755 15.1260196,10.4099273 15.0110567,10.4360334 C14.8960939,10.4621394 14.6542241,10.5410281 14.4735683,10.6113436 C14.2929125,10.681659 14.0644799,10.766408 13.9659403,10.799677 C13.7890761,10.8593902 13.539107,10.9599331 13.1895681,11.1119502 C12.7538834,11.3014346 11.1261832,12.104961 10.8007304,12.2912175 C10.6036513,12.4040054 10.4020932,12.5149527 10.3528235,12.5377673 C10.3035536,12.5605801 10.1960559,12.62404 10.1139397,12.6787902 C10.0318234,12.7335385 9.70933028,12.9454225 9.39728832,13.1496421 C7.49647177,14.3936547 5.43917662,16.2859525 4.08157959,18.0390239 C3.96861407,18.1848964 3.86105042,18.3175074 3.8425494,18.3337163 C3.73829451,18.42505 2.72708087,19.8861228 2.53721912,20.2197504 C2.34348789,20.5601759 2.27797657,20.670931 2.17116773,20.8386056 C2.10922002,20.9358533 1.9887451,21.1612947 1.90344578,21.3395831 C1.81814637,21.5178714 1.72121821,21.7118692 1.68804986,21.7706889 C1.64202399,21.8523079 1.6734952,21.9779155 1.82095419,22.3011348 C1.92721992,22.534062 2.0494649,22.7665107 2.09260963,22.8176872 C2.13575435,22.8688655 2.17105462,22.9277256 2.17105462,22.9484921 C2.17105462,23.0661988 3.21456154,24.6804666 3.75195515,25.3940851 C4.5432052,26.4448089 4.96483267,26.9219265 6.02651179,27.9680044 C6.96026966,28.8880405 7.10303506,29.0158058 7.87501409,29.6222968 C8.71382464,30.28129 8.87409581,30.3975364 9.51625127,30.8127081 C9.82855665,31.014622 10.1365757,31.2201712 10.2007375,31.2694819 C10.2648998,31.3187946 10.3468669,31.3591401 10.3828864,31.3591401 C10.4189064,31.3591401 10.4817507,31.3922919 10.5225408,31.4328122 C10.6755936,31.5848543 12.497781,32.5093212 13.1597077,32.7707504 C13.3403635,32.8421015 13.5687961,32.9373375 13.6673357,32.9823846 C13.7658752,33.0274318 13.9206569,33.0814038 14.0112954,33.1023221 C14.1019338,33.1232403 14.1908613,33.1639394 14.2089132,33.1927642 C14.2269649,33.221589 14.2871781,33.2460734 14.3427209,33.2471743 C14.3982637,33.2483272 14.5512055,33.3004182 14.6825915,33.3630519 C14.8139776,33.4256837 14.9837094,33.4778285 15.0597735,33.4789294 C15.1358376,33.4800823 15.2567726,33.5120947 15.3285177,33.5501864 C15.4002628,33.5882781 15.5530242,33.6398964 15.6679871,33.6648938 C15.7829499,33.6898893 16.1323173,33.775939 16.4443593,33.856117 C17.3049512,34.0772314 18.1256645,34.247986 18.325591,34.2475441 C18.4241432,34.247352 18.6928874,34.2869135 18.9228004,34.3355249 C19.1527141,34.3841362 19.8111285,34.4399336 20.3859418,34.4594934 C20.960757,34.4790725 21.5116818,34.5175581 21.6102223,34.5450341 C21.7087609,34.57251 21.8968823,34.5835965 22.0282671,34.5696664 C22.1596538,34.5556402 22.8046393,34.5163668 23.461571,34.4822044 L23.461571,34.4822044 Z"/>
  </g>
</svg>
