<svg xmlns="http://www.w3.org/2000/svg" width="64" height="21" viewBox="0 0 64 21">
  <g fill="none">
    <path fill="#EA4335" d="M27.0332718,11.0086667 C27.0332718,13.9883333 24.7001194,16.184 21.8368113,16.184 C18.9735032,16.184 16.6403509,13.9883333 16.6403509,11.0086667 C16.6403509,8.008 18.9735032,5.83333333 21.8368113,5.83333333 C24.7001194,5.83333333 27.0332718,8.008 27.0332718,11.0086667 Z M24.7585066,11.0086667 C24.7585066,9.14666667 23.4062592,7.87266667 21.8368113,7.87266667 C20.2673635,7.87266667 18.915116,9.14666667 18.915116,11.0086667 C18.915116,12.852 20.2673635,14.1446667 21.8368113,14.1446667 C23.4062592,14.1446667 24.7585066,12.8496667 24.7585066,11.0086667 Z"/>
    <path fill="#FBBC05" d="M38.2436134,11.0086667 C38.2436134,13.9883333 35.9104611,16.184 33.047153,16.184 C30.1838449,16.184 27.8506925,13.9883333 27.8506925,11.0086667 C27.8506925,8.01033333 30.1838449,5.83333333 33.047153,5.83333333 C35.9104611,5.83333333 38.2436134,8.008 38.2436134,11.0086667 Z M35.9688483,11.0086667 C35.9688483,9.14666667 34.6166008,7.87266667 33.047153,7.87266667 C31.4777051,7.87266667 30.1254577,9.14666667 30.1254577,11.0086667 C30.1254577,12.852 31.4777051,14.1446667 33.047153,14.1446667 C34.6166008,14.1446667 35.9688483,12.8496667 35.9688483,11.0086667 Z"/>
    <path fill="#4285F4" d="M48.9868575,6.146 L48.9868575,15.4373333 C48.9868575,19.2593333 46.7307762,20.8203333 44.0636491,20.8203333 C41.5529997,20.8203333 40.0419391,19.1426667 39.47208,17.7706667 L41.4525737,16.947 C41.8052324,17.7893333 42.6693629,18.7833333 44.0613136,18.7833333 C45.7685552,18.7833333 46.8265312,17.731 46.8265312,15.75 L46.8265312,15.0056667 L46.7471247,15.0056667 C46.2379883,15.6333333 45.2570834,16.1816667 44.0192749,16.1816667 C41.4292188,16.1816667 39.0563632,13.9276667 39.0563632,11.0273333 C39.0563632,8.106 41.4292188,5.83333333 44.0192749,5.83333333 C45.2547479,5.83333333 46.2356528,6.38166667 46.7471247,6.99066667 L46.8265312,6.99066667 L46.8265312,6.14833333 L48.9868575,6.14833333 L48.9868575,6.146 Z M46.9876799,11.0273333 C46.9876799,9.205 45.7708907,7.87266667 44.2224623,7.87266667 C42.6530145,7.87266667 41.3381348,9.205 41.3381348,11.0273333 C41.3381348,12.831 42.6530145,14.1446667 44.2224623,14.1446667 C45.7708907,14.1446667 46.9876799,12.831 46.9876799,11.0273333 Z"/>
    <polygon fill="#34A853" points="52.548 .7 52.548 15.867 50.33 15.867 50.33 .7"/>
    <path fill="#EA4335" d="M61.1944524,12.712 L62.9600813,13.888 C62.3902222,14.7303333 61.0169554,16.1816667 58.6440997,16.1816667 C55.701385,16.1816667 53.503691,13.909 53.503691,11.0063333 C53.503691,7.92866667 55.7200689,5.831 58.3895315,5.831 C61.0776781,5.831 62.3925577,7.96833333 62.8222875,9.12333333 L63.0581717,9.71133333 L56.1334503,12.5766667 C56.663606,13.615 57.4880332,14.1446667 58.6440997,14.1446667 C59.8025017,14.1446667 60.6059095,13.5753333 61.1944524,12.712 Z M55.7597722,10.85 L60.3887091,8.92966667 C60.134141,8.28333333 59.368101,7.833 58.4666026,7.833 C57.3105362,7.833 55.701385,8.85266667 55.7597722,10.85 L55.7597722,10.85 Z"/>
    <path fill="#4285F4" d="M8.2419366,9.66233333 L8.2419366,7.46666667 L15.6477685,7.46666667 C15.7201687,7.84933333 15.7575365,8.302 15.7575365,8.792 C15.7575365,10.4393333 15.3067873,12.4763333 13.8541139,13.9276667 C12.4411437,15.3976667 10.6358116,16.1816667 8.24427208,16.1816667 C3.81151616,16.1816667 0.0840775623,12.5743333 0.0840775623,8.14566667 C0.0840775623,3.717 3.81151616,0.109666667 8.24427208,0.109666667 C10.6965343,0.109666667 12.4434792,1.071 13.7560234,2.324 L12.2052595,3.87333333 C11.2640579,2.99133333 9.9888815,2.30533333 8.2419366,2.30533333 C5.00495045,2.30533333 2.47328163,4.91166667 2.47328163,8.14566667 C2.47328163,11.3796667 5.00495045,13.986 8.2419366,13.986 C10.3415402,13.986 11.5373099,13.1436667 12.30335,12.3783333 C12.9245897,11.7576667 13.3333001,10.871 13.4944488,9.66 L8.2419366,9.66233333 L8.2419366,9.66233333 Z"/>
  </g>
</svg>
