<svg xmlns="http://www.w3.org/2000/svg" width="46" height="48" viewBox="0 0 46 48">
  <g fill="none" fill-rule="evenodd">
    <path fill="#684C46" d="M45.2751134,34.3003373 C45.2376176,34.4226506 41.6949412,48.0040482 27.7754958,47.9999036 C15.7430168,47.9963373 10.0397899,37.5649157 10.0397899,37.5649157 C9.16279412,37.6136867 8.31662605,37.4747952 7.53626891,37.1888193 C4.00605882,35.8952289 2.31227311,31.8671807 3.53021008,28.4877108 L1.5899958,27.0088675 C-5.92578571,21.298506 15.365063,-4.83219277 22.8938908,1.08057831 C22.9319664,1.11045783 24.6911765,2.5226988 24.6911765,2.5226988 C27.3943529,0.88539759 30.0715336,0.000289156627 32.2478361,0.000192771084 C33.7932815,9.63855423e-05 35.0858235,0.44626506 35.9562479,1.38631325 C37.9103782,3.49657831 37.2080084,7.52636145 34.5397185,11.6062651 C35.1136555,12.1496867 35.5893109,12.8882892 35.9288025,13.621494 C36.7770966,14.2744096 37.3269706,15.2667952 37.6001681,16.6375904 C37.9043866,18.1617349 37.9674916,20.3327229 38.1584496,21.2655422 C38.878021,21.589494 38.5714832,21.4396145 39.3386975,21.8217831 C40.1386723,22.2205301 41.1127899,22.7061205 42.1893445,23.7392771 C44.1028866,24.2174458 44.8335714,26.2465542 43.713916,27.6314217 C43.6838613,27.6686265 43.5486639,27.8283373 43.4087311,27.9872771 C43.4421681,28.0751807 43.8092017,28.6683373 44.0739916,29.8756627 C44.8669118,30.0624578 45.498542,30.5493976 45.8300126,31.2554217 C46.4032731,32.637494 45.2753067,34.300241 45.2753067,34.300241 L45.2751134,34.3003373 Z M39.7572395,44.5571084 L39.7572395,45.1255904 L39.9754496,45.1255904 L39.9754496,44.5571084 L40.1986849,44.5571084 L40.1986849,44.3777349 L39.5368067,44.3777349 L39.5368067,44.5571084 L39.7572395,44.5571084 L39.7572395,44.5571084 Z M40.2655588,44.3777349 L40.2655588,45.1255904 L40.4646345,45.1255904 L40.4646345,44.5856386 L40.6272773,45.1255904 L40.7970714,45.1255904 L40.9597143,44.5841928 L40.9597143,45.1255904 L41.1587899,45.1255904 L41.1587899,44.3777349 L40.8475168,44.3777349 L40.7130924,44.8080964 L40.5767353,44.3777349 L40.2656555,44.3777349 L40.2655588,44.3777349 Z"/>
    <path fill="#F5DCBA" d="M12.8792269,29.1896867 C13.1823824,28.4212048 13.3351681,27.7904578 13.3351681,27.7904578 C13.6821975,28.8485783 13.8597227,29.9614458 13.7900462,31.0863614 C14.0777395,30.7045783 14.3865966,29.9855422 14.3865966,29.9855422 C14.9217815,33.1279036 12.6226513,36.0043373 9.59351261,36.0043373 C6.90415546,36.0043373 4.72408403,33.7152771 4.72408403,30.8915663 C4.72408403,28.0678554 6.90415546,25.7787952 9.59351261,25.7787952 C10.2906639,25.7787952 10.953605,25.9326265 11.5531513,26.2097349 C11.5531513,26.2096386 12.5881513,26.7302169 12.8792269,29.1897831 L12.8792269,29.1896867 Z M39.3766765,40.2706506 C43.151479,37.3123855 43.8110378,33.7495904 43.8739496,33.6267952 C44.8027437,32.5156627 44.5502269,31.421012 43.3232059,31.4209157 C42.9327857,31.4209157 42.6378445,31.5236627 42.6378445,31.5236627 C42.6378445,31.5236627 42.6423866,29.9022651 41.8904412,28.6395181 C41.3108025,29.2897349 39.7017689,30.5778313 37.5904076,31.5775422 C35.6105714,32.514988 32.9686639,33.3360964 29.6947395,33.4448193 L29.6946429,33.4448193 C28.7779286,33.4845301 28.2108529,33.3357108 27.8915588,34.4016386 C27.789605,34.7782169 27.8336723,35.3377349 27.9104034,35.4993735 C28.1687185,36.3822651 28.8433529,36.7713735 29.7315588,36.9774458 C30.4050336,37.1338795 31.1202563,37.1486265 31.1202563,37.1486265 C37.7600084,37.3343614 43.0916597,32.1694458 43.1554412,32.1264578 C43.2170966,32.0760482 43.2681218,32.0163855 43.2681218,32.0163855 C43.2681218,32.0163855 43.2095588,32.1533494 43.2025042,32.1688675 C42.2435588,34.3199036 36.6907983,38.2207229 31.1638403,38.109012 L31.1457689,38.1153735 C29.8639538,38.1105542 28.3065252,37.781494 27.4969832,36.7801446 C26.2160378,35.1958554 26.8808151,32.5615422 28.9224034,32.499759 C28.9250126,32.4996627 29.3943866,32.4888675 29.6033193,32.4835663 C34.6583908,32.3286747 39.1941261,30.476241 42.4418613,26.6080964 C42.8884286,26.0548434 42.3895798,25.294747 41.4217437,25.2716145 C41.4133361,25.2714217 41.4050252,25.267759 41.3993235,25.2615904 C40.2517395,24.036241 39.2431218,23.6032771 38.3456387,23.1483373 C36.4642773,22.1924819 36.6413193,23.0181205 36.2037395,18.381494 C36.0853571,17.1314699 35.8480126,15.4266988 34.7469118,14.7731084 C34.4582521,14.6017349 34.1428235,14.5281928 33.8154118,14.5281928 C33.4917689,14.5281928 33.3340546,14.5941205 33.2704664,14.6081928 C32.6674412,14.741494 32.3244706,15.0824096 31.8949118,15.477494 C29.8649202,17.3445783 28.2423571,16.8376867 25.8205924,16.8162892 C23.546105,16.7964337 21.5379538,18.3788916 21.1538151,20.8090602 L21.1532353,20.8104096 C20.9665294,22.082506 21.0873277,23.3750361 21.2872731,23.9560482 C21.2872731,23.9560482 20.6699454,23.546506 20.3757773,23.1839036 C20.7318908,25.4039518 22.7625588,26.8549398 22.7625588,26.8549398 C22.4426849,26.9282892 21.9825882,26.8978313 21.9825882,26.8978313 C21.984521,26.8994699 23.1416723,27.812241 24.1460378,28.1306988 C23.884437,28.2931084 22.560584,29.5960482 21.8778319,31.3896867 C21.2389538,33.068241 21.4992017,35.0833735 21.4992017,35.0833735 L22.0540042,34.2584096 C22.0540042,34.2584096 21.6916092,36.0969639 22.3930126,37.877494 C22.6257185,37.3478554 23.1341345,36.4023133 23.1341345,36.4023133 C23.1341345,36.4023133 23.0535378,38.3767711 24.0065882,39.9934458 C24.0311345,39.6203373 24.174063,38.6704578 24.174063,38.6704578 C24.174063,38.6704578 24.7209412,40.3560482 25.9842983,41.5346506 C28.3492395,43.627759 34.6111345,44.0058795 39.3769664,40.2706506 L39.3766765,40.2706506 Z"/>
    <path fill="#0788BF" d="M4.2592521,27.0491566 C4.24011765,27.0440482 2.42688655,25.7169157 2.16905462,25.2799036 C0.643516807,22.7121928 3.29760084,17.4383614 5.18621008,14.4405783 C9.8537605,7.03171084 17.6226387,1.18486747 21.1512059,2.01985542 L24.7747689,3.88539759 C23.3678067,4.71084337 22.0070378,5.72472289 21.1917941,6.39893976 L20.4208109,7.04395181 C20.4208109,7.04395181 18.1691303,8.55585542 17.0491849,9.50910843 C12.5599328,13.3297349 8.13977731,19.2443373 6.50059244,24.9535422 C6.50059244,24.9533494 5.15383613,25.6201446 4.25915546,27.0491566 L4.2592521,27.0491566 Z"/>
    <path fill="#46B8E3" d="M21.1513025,2.01975904 C17.6226387,1.18477108 9.8537605,7.03161446 5.18630672,14.4404819 L5.1822479,14.4469398 L5.20109244,14.4489639 L8.92023109,17.369253 C13.0037941,10.9041928 18.1361765,7.57060241 18.2809412,7.47257831 L17.6912521,3.51566265 L18.7959286,2.98814458 L21.012916,3.70419277 L20.8433151,2.96549398 L21.1513025,2.01975904 L21.1513025,2.01975904 Z"/>
    <path fill="#FFD14F" d="M24.7748655,3.8853012 L21.1918908,6.39884337 L20.9412101,6.59440964 L17.764021,4.00539759 L17.6910588,3.51575904 L18.7957353,2.98824096 L21.0127227,3.70428916 L21.0496387,2.33146988 L21.1511092,2.01985542 L22.1215546,1.64886747 C22.1229076,1.64992771 24.771,3.8820241 24.7747689,3.88520482 L24.7748655,3.8853012 Z"/>
    <path fill="#122030" d="M25.3703529,0.070746988 C23.0008697,0.070746988 20.3406975,1.31363855 18.299979,2.53580723 C18.0137353,2.70380723 17.7297143,2.87961446 17.451395,3.05879518 L16.3836345,2.16607229 L16.771542,3.51036145 C16.6249412,3.61079518 16.4817227,3.71093976 16.3416933,3.81050602 L14.1354328,3.13860241 L15.5952563,4.35739759 C15.2619496,4.6093494 14.9642059,4.84520482 14.7171975,5.04954217 L11.2163655,2.16645783 L11.4016218,3.45860241 L13.9461176,5.69455422 C13.9461176,5.69455422 11.694437,7.20645783 10.5744916,8.15971084 C6.0852395,11.9803373 1.66508403,17.8949398 0.0258991597,23.6041446 L0.119058824,23.5519036 L0.157134454,23.5321446 C0.202747899,23.5075663 0.248264706,23.4843373 0.293878151,23.4613976 L0.381432773,23.4178313 C0.42839916,23.3953735 0.475268908,23.3745542 0.522235294,23.3538313 L0.605441176,23.3173012 C0.656273109,23.2960964 0.707008403,23.2767229 0.757936975,23.2575422 L0.828386555,23.2306506 C0.902411765,23.2041446 0.976243697,23.179759 1.04968908,23.1578795 C2.16412605,22.8263133 3.68028992,22.6131084 5.45515546,23.3648193 C6.34655042,21.1226024 7.41131513,18.8413494 9.08944538,16.6493494 C10.4501176,14.872 11.7580252,13.2853012 13.3279202,12.4126265 C16.3003319,9.62766265 24.3117731,6.67450602 26.8783992,9.23431325 C27.4852899,8.24404819 28.0119706,7.30679518 28.4458782,6.13166265 C29.5168277,3.30592771 29.5364454,0.0706506024 25.3704496,0.0706506024 L25.3703529,0.070746988 Z M15.2003908,2.5686747 L14.6765126,0.670361446 L14.3684286,1.61609639 L14.5528151,2.35951807 L15.2003908,2.5686747 Z" transform="translate(6.475 1.35)"/>
    <path fill="#FFFFFF" d="M42.6379412,31.5218313 C42.6379412,31.5218313 42.6424832,29.9004337 41.8905378,28.6376867 C41.3108992,29.2879036 39.7018655,30.576 37.5905042,31.5757108 C35.6106681,32.5131566 32.9687605,33.3342651 29.6948361,33.442988 L29.6947395,33.442988 C28.7780252,33.4826988 28.2109496,33.3338795 27.8916555,34.3998072 C27.8667227,34.4916627 27.850584,34.5946024 27.8414034,34.6998554 L27.8410168,34.7106506 L27.8406303,34.7105542 C27.8378277,34.7445783 27.8357983,34.7786988 27.8343487,34.8128193 C27.8311597,34.9102651 27.8322227,34.9960482 27.8359916,35.0709398 L27.8362815,35.0763373 L27.8372479,35.0926265 C27.8401471,35.1394699 27.8441092,35.1843855 27.8490378,35.2266024 L27.8497143,35.2329639 L27.850584,35.2396145 C27.8722311,35.4089639 27.9058613,35.4875181 27.9100168,35.4965783 L27.9104034,35.4976386 L27.9146555,35.5118072 C28.176063,36.3845783 28.8481849,36.7707952 29.7315588,36.9757108 C30.4050336,37.1321446 31.1203529,37.1468916 31.1203529,37.1468916 C36.5378193,37.2984096 41.0845714,33.8879036 42.6095294,32.6038554 C42.6356218,32.2439518 42.6509874,31.9872771 42.6380378,31.5219277 L42.6379412,31.5218313 Z M27.0747689,2.65898795 C28.3689538,2.06390361 29.756105,1.59363855 31.0864328,1.45812048 C29.7650924,1.75460241 28.1549958,2.43787952 26.2474454,3.60221687 C26.2009622,3.62901205 21.7335504,6.63624096 19.0041849,9.33648193 C17.5168193,10.808 11.5439706,17.9516145 11.5487059,17.9455422 C12.6402395,15.8851084 13.3594244,14.8737349 15.0875168,12.7061205 C16.0648235,11.4801928 17.1077479,10.288 18.1753151,9.18718072 C18.5341345,8.81715663 18.8958529,8.45754217 19.2587311,8.11026506 C19.3971176,7.97792771 22.5182563,4.79026506 27.0747689,2.65898795 L27.0747689,2.65898795 Z"/>
    <path fill="#EABE8D" d="M39.3766765,40.2705542 C38.7286176,40.7784096 38.0531134,41.2100241 37.3634034,41.571759 C35.7683824,40.9671325 34.7896261,39.6789398 34.7896261,39.6789398 C34.7896261,39.6789398 36.157063,39.3564337 37.9849832,38.4293012 C40.2081555,37.3025542 42.2857899,35.6747952 43.8741429,33.6266024 C43.8111345,33.7493976 43.1515756,37.3122892 39.3767731,40.2705542 L39.3766765,40.2705542 Z M35.0356681,23.0964819 C34.264105,22.5492048 32.9863487,22.9847711 32.7045504,23.8904096 C33.151021,23.9128675 33.6247437,24.2497349 33.5954622,24.6807711 C33.9106975,24.3764819 34.3589076,24.2047229 34.7949412,24.2127229 C34.5846555,23.8763373 34.6908613,23.2964819 35.0355714,23.0964819 L35.0356681,23.0964819 Z M26.9408277,34.1483373 C27.1838739,33.2461687 27.8702983,32.5314699 28.9222101,32.4996627 C28.9248193,32.4995663 29.3941933,32.4887711 29.6031261,32.4834699 C34.6581975,32.3285783 39.1939328,30.4761446 42.4416681,26.608 C42.8882353,26.054747 42.3893866,25.2946506 41.4215504,25.2715181 L41.4077311,25.2715181 C41.2440252,25.4441446 41.2147437,25.7594217 40.9439622,26.2305542 C39.9561218,27.9422651 38.5898445,28.7249157 36.767916,29.6331566 C31.182105,32.4068434 28.285458,31.116241 27.122895,32.8143614 C26.7850462,33.3141205 26.7786681,33.8723855 26.9408277,34.148241 L26.9408277,34.1483373 Z M37.0479748,22.5155663 C36.5137563,22.1332048 36.4947185,21.4663133 36.2034496,18.3813976 C36.1102899,17.397494 35.9432017,16.1319518 35.3395,15.3189398 C35.2146429,15.2101205 35.0391471,15.0852048 34.7863403,15.0852048 C34.4049076,15.0683373 33.9738025,15.4625542 33.7295,15.7318554 C33.0358277,16.7304096 32.3730798,17.373494 31.2008529,17.9307952 C30.0144202,18.4663133 28.8870336,18.6606265 27.7165462,18.6237108 C26.8597479,18.5967229 26.1094454,18.4559036 25.3739286,18.4466506 C24.0111303,18.4253494 22.829916,18.8659277 21.9690588,19.9501687 C21.3786933,20.6936867 21.1417353,21.4797108 21.0661639,22.4153253 C21.069063,22.5280964 21.0740882,22.6344096 21.080563,22.7345542 C21.0907101,22.8831807 21.1043361,23.0251566 21.1208613,23.1582651 C21.1809706,23.6323855 21.2666891,23.8783614 21.2666891,23.8783614 L21.2650462,23.8890602 L21.2867899,23.9560482 C21.2867899,23.9560482 20.6694622,23.546506 20.3752941,23.1839036 C20.6721681,25.0346024 22.1326681,26.3508434 22.6104496,26.7375422 L22.6937521,26.8020241 L22.699937,26.8082892 L22.7620756,26.8550361 C22.4422017,26.9283855 21.982105,26.8979277 21.982105,26.8979277 C21.9840378,26.8995663 23.1411891,27.8123373 24.1456513,28.1307952 C25.478105,27.0077108 26.9888571,26.5765783 28.229021,26.4427952 C28.9806765,25.9776386 29.7888655,25.5205783 30.6566807,25.0799036 C30.3939202,23.4478072 31.8450462,21.8044337 33.6711303,21.6465542 C35.0490042,21.5464096 35.7192899,22.162506 36.202,22.8212048 C36.4639874,22.7378313 36.7594118,22.6466506 37.0895294,22.5497831 C37.0756134,22.5405301 37.0616975,22.5291566 37.0482647,22.515759 L37.0479748,22.5155663 Z M37.7071471,33.5073735 C37.6932311,33.5076627 37.6788319,33.510747 37.6559286,33.5158554 C37.1053782,33.6430843 31.4290168,35.836241 27.8406303,34.7120964 C27.8245882,34.9078554 27.8297101,35.3194217 27.9101134,35.4982169 L27.9105,35.4992771 C28.4533193,35.6078072 29.1403235,35.6772048 29.9376891,35.6772048 C34.6596471,35.6772048 38.062584,33.5359036 37.7071471,33.5073735 L37.7071471,33.5073735 Z M11.2900042,33.0676627 L11.294063,33.0648675 C11.581563,32.7566265 11.7022647,32.3259759 11.6338445,31.9140241 C11.5277353,31.3213494 10.8543571,31.2016386 10.4091429,30.7413012 L10.3881723,30.7191325 L10.3662353,30.6946506 L10.3647857,30.693012 C10.1647437,30.4632289 10.0950672,30.2019277 10.1113025,29.9687711 C10.146479,29.362506 10.6863025,29.1920964 10.9672311,29.3037108 C10.9672311,29.3037108 11.3004412,29.3823614 11.558563,29.7413976 L11.5583697,29.7399518 C11.5191345,29.621494 11.5271555,29.4300723 11.3251807,29.1448675 C10.9941933,28.6772048 10.2340336,28.2015422 9.15631933,28.4293012 L9.15651261,28.4293012 C8.95734034,28.4714217 9.06895798,28.4475181 8.87239496,28.502747 C8.8417605,28.5113253 8.81373529,28.5199036 8.78957563,28.5299277 C8.72782353,28.558747 8.67071008,28.5786024 8.61591597,28.6076145 C8.5875042,28.6234217 8.42553782,28.6966747 8.23071429,28.8430843 C7.01934874,30.4026988 9.07098739,33.2309398 11.2900042,33.0676627 L11.2900042,33.0676627 Z"/>
    <path fill="#9C7356" d="M29.1504706,23.4687229 C29.2527143,23.6178313 29.280063,23.7304096 29.2387983,23.777253 C29.1564622,23.873253 28.8621008,23.7436145 28.4276134,23.574747 C27.3153992,23.1608675 26.496,23.0978313 25.0456471,23.645494 C24.6789034,23.7850602 24.4188487,23.8928193 24.2940882,23.8742169 C24.0906639,23.8440482 24.2876134,23.4726747 24.7322479,23.1123855 C25.6267353,22.4006747 26.8552059,22.1798554 27.9049916,22.5694458 C28.3645084,22.7381205 28.8805588,23.0747952 29.1505672,23.4686265 L29.1504706,23.4687229 Z M28.9300378,24.6033735 C28.6251429,24.3710843 28.0636723,24.2154217 27.4807479,24.3141205 C27.3585,24.3327229 27.2454328,24.370506 27.1342017,24.4002892 C27.0934202,24.4103133 27.0543782,24.4247711 27.0163992,24.4406747 C26.7753824,24.5418795 26.5667395,24.6510843 26.3642815,24.8446265 C26.1320588,25.0685301 26.0660546,25.2764337 26.1332185,25.3276145 C26.1992227,25.3801446 26.3600294,25.3023614 26.6084874,25.2021205 C27.4408361,24.8569639 28.0298487,24.8478072 28.5911261,24.8868434 C28.8617143,24.9050602 29.0429118,24.921253 29.0849496,24.8477108 C29.1146176,24.7977831 29.0607899,24.7029398 28.9300378,24.6034699 L28.9300378,24.6033735 Z M11.0049202,28.8613012 L11.0051134,28.861494 L11.0054034,28.8616867 C11.1420504,28.9700241 11.2468067,29.0855904 11.3248908,29.1960482 C11.5808866,29.5575904 11.4995168,29.7684819 11.6044664,29.8710361 C11.6423487,29.9081446 11.6964664,29.9198072 11.750584,29.8978313 C11.8957353,29.8380723 11.9670546,29.6078072 11.9806807,29.4471325 L11.9807773,29.4460723 C12.0172101,29.059759 11.8124328,28.6255422 11.5411681,28.3177831 L11.5404916,28.3169157 C11.3744664,28.1245301 11.1558697,27.945253 10.8959118,27.8007711 C10.6354706,27.6560964 10.3333782,27.5464096 10.0010378,27.4951325 C9.42690756,27.4059759 8.8622479,27.5200964 8.70453361,27.5670361 L8.70540336,27.5668434 C8.62403361,27.5903614 8.52362605,27.6114699 8.43723109,27.6453012 C7.50089916,28.0094458 6.88473109,28.6780723 6.61056723,29.5634699 L6.61047059,29.563759 L6.61037395,29.5641446 C6.509,29.9012048 6.46860504,30.2266988 6.46860504,30.5273253 C6.46860504,30.786506 6.49856303,31.0273735 6.54533613,31.2420241 L6.54533613,31.2422169 L6.54543277,31.242506 L6.54533613,31.2422169 C6.62457983,31.6032771 6.78664286,32.0100241 7.03944958,32.2769157 L7.04031933,32.2777831 C7.35642437,32.618506 7.70297059,32.5533494 7.55501681,32.2363373 C7.5197437,32.1485301 7.32878571,31.7895904 7.30298319,31.1399518 C7.28626471,30.7147952 7.34473109,30.2722892 7.50128571,29.8684337 C7.58787395,29.6499277 7.70654622,29.4373976 7.86097479,29.2463614 C8.17920588,28.8580241 8.57020588,28.684241 8.61591597,28.6588916 C8.67071008,28.6298795 8.72782353,28.6100241 8.78957563,28.5812048 C8.81363866,28.5711807 8.84166387,28.5626024 8.87239496,28.5540241 C9.06886134,28.4987952 8.95743697,28.5226988 9.15651261,28.4805783 L9.15631933,28.4805783 C9.90555882,28.3221205 10.5502353,28.4953253 11.0051134,28.8613012 L11.0049202,28.8613012 Z M10.8450798,30.3040964 C10.7415798,30.2223614 10.6935504,30.1525783 10.665042,30.0452048 C10.6227143,29.8495422 10.6447479,29.7359036 10.812416,29.6184096 C10.9415252,29.5302169 11.0455084,29.4877108 11.0457983,29.4322892 C11.0516933,29.3274217 10.6197185,29.2194699 10.3178193,29.5159518 C10.067042,29.7823614 9.98789496,30.3377349 10.3878824,30.7706024 C10.8331933,31.2498313 11.5257059,31.3628916 11.6335546,31.965494 C11.6477605,32.0508916 11.6582941,32.1460241 11.6508529,32.2398072 C11.6523992,32.3475663 11.6162563,32.5026506 11.6145168,32.5123855 C11.4805756,33.0944578 10.9267395,33.6498313 10.0135042,33.5083373 C9.8452563,33.4838554 9.7362479,33.4632289 9.70377731,33.5096867 C9.63332773,33.6074217 10.0247143,34.0540723 10.7411933,34.0377831 C11.4422101,34.0230361 12.1377185,33.4994699 12.3605672,32.7126747 C12.3631765,32.7023614 12.4288908,32.4794217 12.4343992,32.2795181 C12.4469622,32.1314699 12.4362353,31.9791807 12.4085966,31.8198554 C12.2259496,30.8095422 11.219458,30.6019277 10.8451765,30.3040964 L10.8450798,30.3040964 Z M35.276105,23.0911807 C34.9991387,23.0480964 34.726521,23.3201928 34.6671849,23.6991807 C34.6078487,24.0780723 34.7844076,24.4201446 35.0614706,24.4632289 C35.338437,24.5063133 35.6110546,24.2342169 35.6703908,23.8552289 C35.7297269,23.4763373 35.5531681,23.1342651 35.276105,23.0911807 L35.276105,23.0911807 Z M32.2323739,24.1964337 C32.0801681,24.4735422 32.265521,24.8670843 32.6465672,25.0752771 C33.0275168,25.2834699 33.4598782,25.227759 33.6121807,24.9505542 C33.7643866,24.6734458 33.5790336,24.2799036 33.1979874,24.0717108 C32.8169412,23.8635181 32.3846765,23.9193253 32.2323739,24.1964337 L32.2323739,24.1964337 Z M21.0806597,12.9866024 C26.3226303,9.5979759 31.5586092,9.20828916 33.3526092,10.584 L33.3528992,10.5835181 C33.3496134,10.5744578 33.3208151,10.4951325 33.309605,10.4733494 C32.8540504,9.50804819 31.7913151,8.83460241 30.8446429,8.56453012 C31.0106681,8.73657831 31.2509118,9.05156627 31.3481303,9.23874699 C30.633584,8.7493012 29.6842059,8.31816867 28.6932731,8.1133494 C28.6932731,8.1133494 28.8113655,8.1979759 28.831563,8.21677108 C29.0290924,8.40028916 29.2919496,8.69021687 29.3995084,8.93918072 C28.4524496,8.55990361 27.2552899,8.34737349 26.2303403,8.54419277 C26.2160378,8.54698795 26.1022941,8.57378313 26.1022941,8.57378313 C26.1022941,8.57378313 26.2356555,8.60684337 26.2653235,8.61571084 C26.6052017,8.71624096 27.0901345,8.92279518 27.3038992,9.20587952 C25.6026723,8.90737349 23.7312647,9.23768675 22.7218739,9.8006747 C22.8516597,9.79527711 22.8504034,9.7946988 22.9601849,9.79759036 C23.3314706,9.80742169 24.0794538,9.85773494 24.3935294,10.0570602 C23.3204538,10.2746988 21.7675672,10.7534458 20.9315462,11.4705542 C21.0792101,11.4533976 21.9167773,11.3468916 22.2595546,11.4018313 C17.658105,14.0280482 15.5639454,17.9985542 15.5639454,17.9985542 C16.9205588,16.2353735 18.680542,14.5383133 21.0807563,12.9867952 L21.0806597,12.9866024 Z"/>
    <path fill="#684C46" d="M33.4480882,20.3900723 C33.440937,20.0297831 33.4981471,19.4344096 33.8382185,19.323759 L33.838895,19.3235663 C34.4201765,19.1224096 35.1898067,20.6071325 35.2251765,21.925494 C34.7658529,21.6960964 34.2260294,21.5988434 33.670937,21.646747 C33.5313908,21.2223614 33.4645168,20.8226506 33.4479916,20.3901687 L33.4480882,20.3900723 Z"/>
  </g>
</svg>
