<svg xmlns="http://www.w3.org/2000/svg" width="42" height="38" viewBox="0 0 42 38">
  <g fill="none" fill-rule="evenodd">
    <rect width="28.97" height="9.657" fill="#F45E43" rx="4.828"/>
    <ellipse cx="36.695" cy="4.827" fill="#F45E43" rx="4.969" ry="4.827"/>
    <path fill="#F45E43" d="M17.6736,14.42 L36.68448,14.42 C38.4795866,14.2973977 40.1969905,15.1649884 41.1528933,16.6773339 C42.1087961,18.1896794 42.1479975,20.1012353 41.2548891,21.6509001 C40.3617808,23.2005649 38.6813677,24.136735 36.88272,24.0866667 L17.6736,24.0866667 C15.8784934,24.209269 14.1610895,23.3416783 13.2051867,21.8293328 C12.2492839,20.3169873 12.2100825,18.4054313 13.1031909,16.8557666 C13.9962992,15.3061018 15.6767123,14.3699317 17.47536,14.42 L17.6736,14.42 L17.6736,14.42 Z"/>
    <ellipse cx="4.966" cy="19.253" fill="#F63A4D" rx="4.966" ry="4.927"/>
    <rect width="28.97" height="9.657" y="28.343" fill="#F45E43" rx="4.828"/>
    <ellipse cx="36.695" cy="33.17" fill="#F45E43" rx="4.969" ry="4.83"/>
  </g>
</svg>
