<svg xmlns="http://www.w3.org/2000/svg" width="55" height="13" viewBox="0 0 55 13">
  <g fill="#000203" transform="translate(.2 .5)">
    <path d="M8.72116652.289785599L8.72116652 6.90540762C8.72116652 9.11455495 7.77798851 10.0319795 5.56577627 10.0319795 3.35337403 10.0319795 2.41019602 9.11455495 2.41019602 6.90540762L2.41019602 0 .279495336 0C.0932917812 0 0 .0967265325 0 .289785599L0 7.0139541C0 10.7082772 2.27054335 12 5.56577627 12 8.86081918 12 11.1313625 10.7082772 11.1313625 7.0139541L11.1313625 0 9.00047185 0C8.81426829 0 8.72116652.0967265325 8.72116652.289785599M38.4791995 1.95296633C38.6471257 1.95296633 38.7255156 1.89163549 38.7814301 1.75634687L39.3751102.14731427C39.408732.0493051844 39.3751102 0 39.2853912 0L31.0327071 0C30.2599544 0 29.969053.257950294 29.969053.835181721L29.969053 11.28748C29.969053 11.7789284 30.1927109 12 30.786391 12L38.4791995 12C38.6471257 12 38.7255156 11.9384687 38.7814301 11.803581L39.3751102 10.1943479C39.408732 10.0961384 39.3751102 10.0470337 39.2853912 10.0470337L32.2421774 10.0470337 32.2421774 7.92210048C32.2421774 7.18512827 32.6116515 6.85342063 33.608062 6.85342063L36.6652682 6.85342063C36.8331943 6.85342063 36.9114015 6.79229022 36.9674987 6.65720203L37.5387034 5.10950027C37.5721425 5.01109033 37.5387034 4.962186 37.4489845 4.962186L32.2421774 4.962186 32.2421774 1.95296633 38.4791995 1.95296633M21.7393169 10.0716863L17.6885478 10.0716863 17.6885478 7.87299572C17.6885478 7.13602352 18.0586799 6.8045163 19.0572314 6.8045163L21.7393169 6.8045163C23.029288 6.8045163 23.388254 7.34486905 23.388254 8.45042758 23.388254 9.55578568 23.029288 10.0716863 21.7393169 10.0716863zM17.6885478 1.92831374L21.3129876 1.92831374C22.5244292 1.92831374 22.8610627 2.42797969 22.8610627 3.46358899 22.8610627 4.49939872 22.5244292 4.99906467 21.3129876 4.99906467L17.6885478 4.99906467 17.6885478 1.92831374zM23.8931128 5.67450561C24.7904363 5.15860502 25.1605684 4.18833511 25.1605684 3.04609834 25.1605684.393038482 23.1863471 0 21.1447623 0L16.4782045 0C15.7040754 0 15.4126558.257950294 15.4126558.835181721L15.4126558 11.28748C15.4126558 11.7789284 15.6368952 12 16.2314497 12L21.9749055 12C24.1398676 12 25.6877597 11.0788348 25.6877597 8.68372528 25.6877597 7.24665954 25.1268868 6.03066542 23.8931128 5.67450561L23.8931128 5.67450561zM50.5419614 5.56386959L46.7746808 5.56386959 46.7746808 1.92851416 50.5419614 1.92851416C51.9489962 1.92851416 52.2592599 2.53019776 52.2592599 3.74619188 52.2592599 4.97441208 51.9489962 5.56386959 50.5419614 5.56386959zM54.7744567 11.7911545L52.3480358 7.17290219C53.5556413 6.82916889 54.5307298 5.94488242 54.5307298 3.69708712 54.5307298.786277392 52.9018456 0 50.2094586 0L45.5781046 0C44.8136554 0 44.5254501.257950294 44.5254501.835181721L44.5254501 11.705171C44.5254501 11.9015901 44.614226 12 44.7914162 12L46.7746808 12 46.7746808 8.49953234C46.7746808 7.76256013 47.1402712 7.43085249 48.1265697 7.43085249L50.1208635 7.43085249 52.3145866 11.803581C52.3811234 11.9262427 52.4476601 12 52.6138211 12L54.6748324 12C54.818935 12 54.818935 11.8647114 54.7744567 11.7911545L54.7744567 11.7911545z"/>
  </g>
</svg>
