<?xml version="1.0" encoding="UTF-8" standalone="no"?>
<svg width="38px" height="40px" viewBox="0 0 38 40" version="1.1" xmlns="http://www.w3.org/2000/svg" xmlns:xlink="http://www.w3.org/1999/xlink">
    <!-- Generator: Sketch 39.1 (31720) - http://www.bohemiancoding.com/sketch -->
    <title>logo-airbnb</title>
    <desc>Created with Sketch.</desc>
    <defs></defs>
    <g id="Page-1" stroke="none" stroke-width="1" fill="none" fill-rule="evenodd">
        <g id="Desktop" transform="translate(-821.000000, -1638.000000)" fill="#FF5A5F">
            <g id="COMPANIES" transform="translate(0.000000, 1389.000000)">
                <g id="Logos" transform="translate(720.000000, 152.000000)">
                    <g id="Row-2" transform="translate(0.000000, 97.000000)">
                        <path d="M138.028715,28.1477228 C137.826588,27.6720792 137.624056,27.1568317 137.421928,26.720396 C137.097715,26.0071287 136.773907,25.3326733 136.491332,24.6986139 L136.450907,24.6590099 C133.658311,18.7120792 130.664396,12.6867327 127.507566,6.74059406 L127.38629,6.50217822 C127.062481,5.90732673 126.738269,5.27247525 126.415673,4.63881188 C126.010609,3.92475248 125.606354,3.17227723 124.958737,2.45821782 C123.663907,0.872475248 121.802311,0 119.819843,0 C117.796141,0 115.975375,0.872475248 114.640524,2.37861386 C114.033332,3.09188119 113.587843,3.84514851 113.183588,4.55920792 C112.859375,5.19445545 112.535566,5.82772277 112.212971,6.42257426 L112.09129,6.6609901 C108.97529,12.6071287 105.940545,18.6328713 103.148354,24.5794059 L103.107524,24.6582178 C102.824545,25.2934653 102.500332,25.9671287 102.176524,26.68 C101.974396,27.1164356 101.772269,27.5920792 101.570141,28.1073267 C101.043801,29.5738614 100.881694,30.9615842 101.08463,32.3893069 C101.529715,35.3627723 103.552609,37.8594059 106.345205,38.970297 C107.397481,39.4067327 108.490183,39.6047525 109.622907,39.6047525 C109.946715,39.6047525 110.350971,39.5651485 110.675183,39.5251485 C112.010843,39.3667327 113.386524,38.9310891 114.722183,38.1778218 C116.381247,37.2657426 117.95946,35.9580198 119.739801,34.0550495 C121.520141,35.9580198 123.138779,37.2657426 124.757418,38.1778218 C126.093481,38.9310891 127.468758,39.3667327 128.804013,39.5251485 C129.127822,39.5655446 129.532886,39.6047525 129.856694,39.6047525 C130.989822,39.6047525 132.122545,39.4067327 133.133992,38.970297 C135.967013,37.8594059 137.949481,35.3231683 138.394971,32.3893069 C138.716354,31.0019802 138.554652,29.6150495 138.028715,28.1477228 L138.028715,28.1477228 L138.028715,28.1477228 Z M119.779013,30.2091089 C117.593609,27.5132673 116.177098,24.9762376 115.691992,22.8360396 C115.489864,21.9239604 115.449035,21.1310891 115.570715,20.4174257 C115.651162,19.7829703 115.894524,19.2277228 116.218332,18.7520792 C116.987226,17.6823762 118.282056,17.0079208 119.779418,17.0079208 C121.277183,17.0079208 122.612439,17.6423762 123.340907,18.7520792 C123.664715,19.2277228 123.907269,19.7833663 123.988928,20.4174257 C124.109801,21.1314851 124.069375,21.9635644 123.867247,22.8360396 C123.38012,24.9366337 121.963609,27.4740594 119.779013,30.2091089 L119.779013,30.2091089 L119.779013,30.2091089 Z M135.924162,32.0724752 C135.641183,34.1338614 134.224673,35.9184158 132.242205,36.7112871 C131.271183,37.1073267 130.218503,37.2265347 129.167035,37.1073267 C128.155588,36.9881188 127.143332,36.6708911 126.091864,36.0768317 C124.634928,35.2831683 123.178396,34.0550495 121.478503,32.2308911 C124.149013,29.020198 125.767652,26.0859406 126.374843,23.470099 C126.658226,22.2407921 126.699056,21.1310891 126.576971,20.099802 C126.415673,19.1089109 126.051035,18.1968317 125.484673,17.4039604 C124.22946,15.6194059 122.124907,14.5893069 119.778609,14.5893069 C117.432311,14.5893069 115.327758,15.659802 114.073354,17.4039604 C113.506992,18.1968317 113.142354,19.1089109 112.980652,20.099802 C112.818949,21.1310891 112.858971,22.280396 113.182779,23.470099 C113.789566,26.0859406 115.44863,29.0594059 118.078715,32.270495 C116.419652,34.0942574 114.92229,35.3235644 113.465354,36.1164356 C112.413077,36.7112871 111.402035,37.0285149 110.390588,37.1469307 C109.29829,37.2661386 108.245609,37.1073267 107.315013,36.7508911 C105.332545,35.9580198 103.916035,34.1734653 103.633056,32.1120792 C103.511779,31.1211881 103.592226,30.130297 103.99729,29.020198 C104.118162,28.6233663 104.321098,28.2273267 104.523226,27.7516832 C104.806609,27.1172277 105.129609,26.4427723 105.453822,25.7691089 L105.494652,25.690297 C108.286439,19.7829703 111.280758,13.7572277 114.396758,7.89029703 L114.518035,7.65188119 C114.842247,7.05782178 115.166056,6.42336634 115.48946,5.82851485 C115.813269,5.19405941 116.177098,4.59920792 116.622588,4.08356436 C117.472332,3.13306931 118.605056,2.6170297 119.859864,2.6170297 C121.114673,2.6170297 122.247396,3.13306931 123.097141,4.08356436 C123.54263,4.60039604 123.90646,5.19524752 124.230269,5.82851485 C124.554481,6.42336634 124.87829,7.05782178 125.20129,7.65188119 L125.322971,7.89029703 C128.398141,13.7968317 131.393269,19.8225743 134.185056,25.729901 L134.185056,25.769505 C134.509269,26.4047525 134.792247,27.1176238 135.116056,27.7528713 C135.318183,28.2277228 135.520715,28.6237624 135.641992,29.0205941 C135.964992,30.050297 136.086269,31.0419802 135.924162,32.0724752 L135.924162,32.0724752 L135.924162,32.0724752 Z" id="logo-airbnb"></path>
                    </g>
                </g>
            </g>
        </g>
    </g>
</svg>