<svg xmlns="http://www.w3.org/2000/svg" width="35" height="29" viewBox="0 0 35 29">
  <path fill="#5DA8DC" stroke="#5DA8DC" stroke-width=".5" d="M109.150286,0.00599334073 L109.150286,0 L109.924671,0 L110.699055,0 L111.264951,0.113873474 C111.642225,0.187801332 111.984742,0.284683685 112.2925,0.404550499 C112.600288,0.524417314 112.898128,0.66427192 113.18602,0.824084351 C113.473942,0.983896781 113.735059,1.14673585 113.96937,1.31254162 C114.201685,1.47636959 114.410173,1.65017647 114.594834,1.83396226 C114.777469,2.01975583 115.062413,2.06770255 115.449605,1.97780244 C115.836797,1.88790233 116.253774,1.76303108 116.700534,1.60321865 C117.147294,1.44340622 117.58911,1.26360599 118.025922,1.06381798 C118.462765,0.864029967 118.728855,0.73718091 118.824164,0.683240844 C118.917477,0.627322974 118.967127,0.597356271 118.973084,0.593340733 L118.979011,0.584350721 L119.008795,0.56936737 L119.038579,0.554384018 L119.068363,0.539400666 L119.098147,0.524417314 L119.104104,0.515427303 L119.113039,0.509433962 L119.122004,0.503440622 L119.127931,0.49445061 L119.157715,0.485460599 L119.187499,0.479467259 L119.181572,0.524417314 L119.172607,0.56936737 L119.157715,0.614317425 L119.142823,0.659267481 L119.127931,0.689234184 L119.113039,0.719200888 L119.098147,0.764150943 C119.088229,0.794117647 119.078311,0.834063263 119.068363,0.884017758 C119.058445,0.933972253 118.964119,1.1337303 118.785415,1.48335183 C118.606711,1.83297336 118.383331,2.18756937 118.115274,2.54716981 C117.847218,2.90677026 117.60698,3.17844839 117.394531,3.36226415 C117.180086,3.54805771 117.038106,3.67790344 116.96859,3.7518313 C116.899104,3.82773696 116.814726,3.89764928 116.715426,3.96159822 L116.566506,4.06048835 L116.536722,4.0754717 L116.506938,4.09045505 L116.501011,4.09944506 L116.492046,4.1054384 L116.48311,4.11143174 L116.477154,4.12042175 L116.44737,4.13540511 L116.417586,4.15038846 L116.411659,4.15937847 L116.402694,4.16537181 L116.393758,4.17136515 L116.387802,4.18035516 L116.381875,4.18934517 L116.37291,4.19533851 L116.363974,4.20133185 L116.358018,4.21032186 L116.432478,4.21032186 L116.506938,4.21032186 L117.34089,4.03052164 C117.896868,3.91065483 118.428007,3.76582575 118.934335,3.59600444 C119.440663,3.42618313 119.708719,3.33628302 119.738503,3.32630411 C119.768287,3.31632519 119.798071,3.30631632 119.827855,3.2963374 L119.872531,3.28135405 L119.902315,3.2663707 L119.932099,3.25138735 L119.961883,3.236404 L119.991667,3.22142064 L120.051235,3.21243063 L120.110803,3.20643729 L120.110803,3.236404 L120.110803,3.2663707 L120.095911,3.27236404 L120.081019,3.28135405 L120.075092,3.29034406 L120.066127,3.2963374 L120.057192,3.30233074 L120.051235,3.31132075 L120.045308,3.32031077 L120.036343,3.32630411 L120.027408,3.33229745 L120.021451,3.34128746 L120.015524,3.35027747 L120.006559,3.35627081 L119.991667,3.38623751 L119.976775,3.41620422 L119.96784,3.42219756 C119.963879,3.4281909 119.837803,3.59798224 119.589583,3.93163152 C119.341393,4.2672586 119.207365,4.43704994 119.187499,4.44106548 C119.167663,4.44705882 119.139844,4.47702553 119.104104,4.53096559 C119.070358,4.58688346 118.859875,4.80965594 118.472683,5.19922309 C118.08549,5.58879023 117.70628,5.93538513 117.334963,6.2390677 C116.96168,6.54472808 116.773028,6.92030078 116.769067,7.36581576 C116.76311,7.80932297 116.740266,8.31078579 116.700534,8.87014428 C116.660832,9.42953274 116.586372,10.0338413 116.477154,10.6831299 C116.367965,11.3324184 116.199179,12.0666027 115.970825,12.8856826 C115.742501,13.7047625 115.464497,14.5038846 115.136873,15.2830189 C114.809249,16.0621532 114.466733,16.7613663 114.109325,17.3806881 C113.751916,18.00001 113.424292,18.5244273 113.126452,18.9539401 C112.828612,19.3834528 112.525828,19.7880033 112.21804,20.1675916 C111.910282,20.5471798 111.521124,20.9747148 111.050536,21.4501665 C110.577953,21.9236404 110.319845,22.1833618 110.276152,22.2293008 C110.230493,22.2732619 110.035914,22.4370899 109.692355,22.7207547 C109.350852,23.0064273 108.983496,23.2920999 108.590347,23.5778024 C108.199193,23.8614972 107.83979,24.0982342 107.512166,24.2880133 C107.184541,24.4777925 106.789427,24.6945416 106.326762,24.9382908 C105.866122,25.1840178 105.367717,25.4117647 104.831604,25.6215316 C104.295492,25.8312986 103.729596,26.0260821 103.133916,26.2058824 C102.538235,26.3856826 101.962421,26.5255372 101.406443,26.6254162 C100.850494,26.7252952 100.220056,26.8102209 99.515158,26.8801332 L98.4578255,26.9850166 L98.4578255,26.9940067 L98.4578255,27 L97.4898451,27 L96.5218647,27 L96.5218647,26.9940067 L96.5218647,26.9850166 L96.2687006,26.9700333 C96.0999443,26.9600544 95.9609423,26.9500455 95.8517244,26.9400666 C95.7425362,26.9300877 95.3305041,26.8751287 94.6156878,26.7752497 C93.9008715,26.6753707 93.3399492,26.5754617 92.9328911,26.4755827 C92.5258627,26.3757037 91.9202346,26.1858946 91.1160662,25.9062153 C90.3118979,25.6265361 89.6238872,25.3438302 89.0520341,25.0581576 C88.4821766,24.7744628 88.1247684,24.5946626 87.9798096,24.5187569 C87.8368464,24.4448291 87.6760127,24.3529512 87.4973086,24.2430633 L87.2292525,24.0782464 L87.2233255,24.0692564 L87.2143605,24.063263 L87.2054253,24.0572697 L87.1994685,24.0482797 L87.1696845,24.0332963 L87.1399004,24.018313 L87.1339734,24.009323 L87.1250084,24.0033296 L87.1160732,23.9973363 L87.1101164,23.9883463 L87.1041894,23.9793563 L87.0952244,23.9733629 L87.0862892,23.9733629 L87.0803324,23.9733629 L87.0803324,23.9433962 L87.0803324,23.9134295 L87.1101164,23.9194229 L87.1399004,23.9284129 L87.2739285,23.9433962 C87.3632805,23.9533751 87.6065266,23.9683585 88.0036368,23.9883463 C88.4007769,24.0083341 88.8226972,24.0083341 89.2694574,23.9883463 C89.7162176,23.9683585 90.1729257,23.9234084 90.639522,23.8534961 C91.1061482,23.7835838 91.6571524,23.663717 92.2925348,23.4938957 C92.9279469,23.3240744 93.5117136,23.1223085 94.0438645,22.8885683 C94.57402,22.6528502 94.9512643,22.4770355 95.175657,22.3611543 C95.3980245,22.2472808 95.7375622,22.0355061 96.1942405,21.7258602 L96.8792728,21.2613762 L96.8852296,21.2523862 L96.8941648,21.2463929 L96.9031298,21.2403996 L96.9090568,21.2314095 L96.9150137,21.2224195 L96.9239489,21.2164262 L96.9329138,21.2104329 L96.9388409,21.2014428 L96.9686249,21.1924528 L96.9984089,21.1864595 L97.0043657,21.1564928 L97.0133009,21.1265261 L97.0222659,21.1205327 L97.0281929,21.1115427 L96.7899208,21.0965594 C96.6310827,21.0865805 96.4771887,21.0765716 96.3282686,21.0665927 C96.1793485,21.0566138 95.9460503,21.0116637 95.6283443,20.9317425 C95.310668,20.8518213 94.9681518,20.7319545 94.6007958,20.5721421 C94.2334696,20.4123296 93.8760614,20.2225205 93.5285713,20.0027747 C93.181111,19.7830289 92.9299127,19.600202 92.7750358,19.454384 C92.6221544,19.3105139 92.4235844,19.1067703 92.1793555,18.8430633 C91.9371221,18.5773785 91.7266385,18.3046515 91.5479344,18.0249723 C91.3692303,17.745293 91.1984786,17.4226115 91.0356792,17.0570477 L90.7884421,16.5116537 L90.7735501,16.4667037 L90.7586581,16.4217536 L90.7497229,16.3917869 L90.7437661,16.3618202 L90.7884421,16.3678135 L90.8331181,16.3768036 L91.1607423,16.4217536 C91.3791782,16.4517203 91.7216944,16.4616992 92.1882907,16.4517203 C92.6549169,16.4417414 92.9775671,16.4217536 93.1562712,16.3917869 C93.3349752,16.3618202 93.4441932,16.3418324 93.4838953,16.3318535 L93.5434633,16.3168701 L93.6179234,16.3018868 L93.6923834,16.2869034 L93.6983402,16.2779134 L93.7072754,16.2719201 L93.7162404,16.2659267 L93.7221674,16.2569367 L93.6625994,16.2419534 L93.6030314,16.22697 L93.5434633,16.2119867 L93.4838953,16.1970033 L93.4243273,16.18202 C93.3846252,16.1720411 93.3151391,16.1520533 93.2158392,16.1220866 C93.1165691,16.0921199 92.8485129,15.982232 92.4116708,15.7924528 C91.9748585,15.6026737 91.6273684,15.417869 91.3692303,15.2380688 C91.1111221,15.0582686 90.8648976,14.8615072 90.6305868,14.6477248 C90.3982715,14.4319645 90.1431416,14.154263 89.8651377,13.8146504 C89.5871635,13.4750377 89.3389733,13.0804661 89.1205373,12.6309656 C88.9021312,12.181465 88.7383191,11.7519523 88.6291011,11.3423973 C88.5199129,10.9328424 88.4484313,10.518313 88.414686,10.0987791 L88.361045,9.46947836 L88.390829,9.4754717 L88.420613,9.48446171 L88.450397,9.49944506 L88.480181,9.51442841 L88.5099651,9.52941176 L88.5397491,9.54439512 L89.0014013,9.75416204 C89.3091893,9.89401665 89.6914075,10.0138835 90.1480858,10.1137625 C90.6047939,10.2136415 90.8777941,10.2686004 90.9671462,10.2785794 L91.1011742,10.2935627 L91.2352023,10.2935627 L91.3692303,10.2935627 L91.3633033,10.2845727 L91.3543383,10.2785794 L91.3454031,10.272586 L91.3394463,10.263596 L91.3335193,10.254606 L91.3245543,10.2486127 L91.3156191,10.2426193 L91.3096623,10.2336293 L91.2798783,10.2186459 L91.2500943,10.2036626 L91.2441673,10.1946726 L91.2352023,10.1886792 L91.2262671,10.1826859 L91.2203103,10.1736959 L91.1905263,10.1587125 L91.1607423,10.1437292 L91.1548152,10.1347392 C91.1488584,10.1307236 91.0634677,10.0668047 90.8986429,9.94295228 C90.7358137,9.81709212 90.565062,9.65428302 90.3863579,9.45449501 C90.2076538,9.25470699 90.0289497,9.04494007 89.8502457,8.82519423 C89.6715416,8.60544839 89.5127034,8.37068923 89.3737014,8.12097669 C89.2347292,7.87126415 89.0877749,7.55358713 88.932898,7.16803552 C88.7800167,6.78446171 88.6638591,6.39789123 88.5844251,6.00832408 C88.5050209,5.61875694 88.4603449,5.23419423 88.450397,4.85460599 C88.440479,4.47501776 88.450397,4.15038846 88.480181,3.88068812 C88.5099651,3.61098779 88.5695331,3.30631632 88.6588851,2.96670366 C88.7482372,2.62709101 88.8773211,2.26749057 89.0460773,1.88790233 L89.2992414,1.31853496 L89.3141334,1.27358491 L89.3290254,1.22863485 L89.3379904,1.22264151 L89.3439174,1.2136515 L89.3498742,1.20466149 L89.3588094,1.19866815 L89.3677744,1.20466149 L89.3737014,1.2136515 L89.3796582,1.22264151 L89.3885935,1.22863485 L89.3975584,1.23462819 L89.4034855,1.2436182 L89.4094423,1.25260821 L89.4183775,1.25860155 L89.4332695,1.28856826 L89.4481615,1.31853496 L89.4571265,1.3245283 L89.4630535,1.33351831 L89.8651377,1.78301887 C90.1331938,2.0826859 90.4508999,2.41732408 90.8182261,2.78690344 C91.1855821,3.1564828 91.3890963,3.3482697 91.4287984,3.36226415 C91.4685302,3.3782364 91.5181504,3.42417536 91.5777184,3.50011099 C91.6372865,3.57403885 91.8358565,3.7508424 92.1733987,4.03052164 C92.5109707,4.31020089 92.952757,4.63486016 93.4987873,5.00443951 C94.0448474,5.37401887 94.6504458,5.73862375 95.3156121,6.0982242 C95.9808083,6.45782464 96.6956246,6.78245394 97.4600611,7.07214206 C98.2245274,7.36183019 98.7606396,7.55160932 99.0683978,7.64150943 C99.3761858,7.73140954 99.9023502,7.84627192 100.646951,7.98612653 C101.391551,8.12598113 101.952503,8.21588124 102.329747,8.25582686 C102.707021,8.29577248 102.965159,8.31875694 103.104132,8.32475028 L103.31262,8.33074362 L103.306693,8.28579356 L103.297728,8.24084351 L103.23816,7.86625971 C103.198458,7.61654717 103.178592,7.26692564 103.178592,6.81742508 C103.178592,6.36792453 103.21335,5.95339512 103.282836,5.57380688 C103.352352,5.19421865 103.456596,4.80965594 103.595568,4.42008879 C103.73457,4.03052164 103.870593,3.71784906 104.003609,3.48213097 C104.13865,3.24839068 104.315358,2.98168701 104.533764,2.68201998 C104.7522,2.38235294 105.035148,2.07270699 105.382609,1.75305216 C105.730099,1.43339734 106.127209,1.14871365 106.573969,0.89900111 C107.020729,0.649288568 107.432761,0.459479467 107.810006,0.32963374 C108.18728,0.199788013 108.504986,0.114862375 108.763094,0.0749167592 C109.021232,0.0349711432 109.150286,0.0119866815 109.150286,0.00599334073 Z" transform="translate(-86 1)"/>
</svg>
