<svg xmlns="http://www.w3.org/2000/svg" width="64" height="9" viewBox="0 0 64 9">
  <g fill="#009CDE" transform="translate(.448)">
    <path d="M59.6246891 3.684375C59.6718609 3.42937501 59.7192237 3.16275 59.7663955 2.8843125L61.2781876 2.8843125 61.0654368 4.00931251 61.0893093 4.00931251C61.3727226 3.3598125 62.1519181 2.7455625 62.8841325 2.7455625 63.0850427 2.7455625 63.2977938 2.756625 63.4864813 2.8033125L63.1558959 4.32225C62.9786672 4.26412501 62.7542666 4.2294375 62.5537385 4.2294375 61.4317349 4.2294375 60.8883991 5.21475001 60.6876796 6.17718751L60.1208531 8.85525001 58.5383989 8.85525001 59.6246891 3.684375M58.526558 5.01787501C58.526558 3.49875 57.5346117 2.7455625 56.0346602 2.7455625 54.0391179 2.7455625 52.5744976 4.53112499 52.5744976 6.3860625 52.5744976 8.16000001 53.7553225 8.99456249 55.503356 8.99456249 56.1526856 8.99456249 56.8260784 8.84400001 57.440077 8.6585625L57.6407962 7.42912499C57.0502882 7.696125 56.424449 7.85831249 55.7751194 7.85831249 54.7625474 7.85831249 54.1712755 7.50525001 54.0950746 6.56643751L54.0939288 6.56643751C54.0910642 6.51187501 54.0859075 6.45881249 54.0859075 6.40162501 54.0859075 6.3905625 54.0864807 6.3793125 54.0868625 6.36843751 54.0868625 6.36262499 54.0862897 6.35718751 54.0862897 6.35100001L54.0874354 6.35100001C54.0943106 5.94206251 54.18579 5.53875001 54.3446847 5.1665625 54.6483416 4.406625 55.078427 3.88162501 56.0109788 3.88162501 56.6721492 3.88162501 57.0147659 4.24087499 57.0147659 4.87874999 57.0147659 5.01787501 57.0029254 5.1451875 56.979435 5.28450001L54.8141117 5.28450001C54.673742 5.75362501 54.6489145 6.06806251 54.6462409 6.35100001L58.3730106 6.35100001C58.4673546 5.91037499 58.526558 5.46993749 58.526558 5.01787501M48.8956636 2.8843125L50.0413483 2.8843125 50.3129207 1.6554375 52.0135914 1.110375 51.6238026 2.8843125 53.0408689 2.8843125 52.7929779 4.02056251 51.3757205 4.02056251 50.7970535 6.62924999C50.7617222 6.76837501 50.726391 6.97725 50.726391 7.20881251 50.726391 7.5684375 50.974473 7.78856249 51.3287398 7.78856249 51.611962 7.78856249 51.8953753 7.73062499 52.0960944 7.6494375L51.8247128 8.85525001C51.5529493 8.91318751 51.2460457 8.99456249 50.974473 8.99456249 49.8996415 8.99456249 49.1439367 8.57718749 49.1439367 7.42912499 49.1439367 6.96562499 49.2384714 6.51337499 49.3444648 6.03825001L49.7936481 4.02056251 48.6479634 4.02056251 48.8956636 2.8843125M47.8850009 4.1000625C47.7150295 4.00931251 47.2780689 3.88162501 46.8292674 3.88162501 46.3569759 3.88162501 45.7666587 4.00931251 45.7666587 4.48425 45.7666587 5.23781251 47.821214 5.51662499 47.821214 6.97725 47.821214 8.530875 46.4396697 8.99456249 45.081616 8.99456249 44.4439363 8.99456249 43.8060654 8.902125 43.227398 8.63531251L43.570015 7.394625C44.0186255 7.63800001 44.4674266 7.85831249 45.081616 7.85831249 45.6131113 7.85831249 46.1680973 7.68412501 46.1680973 7.19775 46.1680973 6.2353125 44.1133512 6.14212499 44.1133512 4.6468125 44.1133512 3.2439375 45.4948952 2.7455625 46.7467644 2.7455625 47.3254318 2.7455625 47.9157487 2.8498125 48.2276179 2.9289375L47.8850009 4.1000625M39.7240743 7.86356251C40.9050902 7.86356251 41.2713883 7.06368751 41.5188975 6.10125001L40.9641025 6.10125001C40.1965569 6.10125001 38.9211973 6.22893751 38.9211973 7.23750001 38.9211973 7.65487501 39.3224446 7.86356251 39.7240743 7.86356251L39.7240743 7.86356251zM41.2713883 7.94475L41.2475158 7.94475C40.7043707 8.61731251 40.1610349 9 39.2871137 9 38.1893647 9 37.4101692 8.39681251 37.4101692 7.295625 37.4101692 5.32443751 39.6534118 5.173875 41.1413313 5.173875L41.6963173 5.173875C41.7434891 5.0113125 41.7434891 4.8375 41.7434891 4.66350001 41.7434891 4.06087499 41.082319 3.886875 40.527333 3.886875 39.8304495 3.886875 39.1572477 4.06087499 38.5314085 4.35056249L38.755618 3.1100625C39.4288201 2.8785 40.1138628 2.750625 40.8225871 2.750625 42.0387432 2.750625 43.1842369 3.19125 43.1842369 4.5939375 43.1842369 5.39399999 42.5820791 7.73624999 42.4403726 8.86087501L41.1058093 8.86087501 41.2713883 7.94475 41.2713883 7.94475zM28.4902904 3.54525001C28.5374622 3.31350001 28.5846341 3.0699375 28.6201563 2.8843125L30.0964262 2.8843125 29.9547195 3.684375 29.97821 3.684375C30.4033299 3.0699375 31.1000223 2.7455625 31.8438867 2.7455625 32.5644516 2.7455625 33.3083159 3.16275 33.39101 3.88162501L33.4146914 3.88162501C33.8161297 3.1048125 34.7018918 2.7455625 35.5521316 2.7455625 36.4613838 2.7455625 37.2407703 3.4756875 37.2407703 4.3801875 37.2407703 4.9134375 37.0992546 5.51662499 36.9693887 6.00337501L36.3315179 8.85525001 34.7490636 8.85525001 35.3869344 5.9450625C35.4694375 5.58581249 35.5876536 5.02912501 35.5876536 4.669875 35.5876536 4.2294375 35.2452277 3.951 34.8435983 3.951 33.7450854 3.951 33.473513 5.203125 33.2729846 6.01499999L32.6469547 8.85525001 31.0646912 8.85525001 31.702371 5.9450625C31.7850651 5.58581249 31.9032812 5.02912501 31.9032812 4.669875 31.9032812 4.2294375 31.5606644 3.951 31.1590349 3.951 30.0843945 3.951 29.7889495 5.21475001 29.5884213 6.01499999L28.9623912 8.85525001 27.3801277 8.85525001 28.4902904 3.54525001M23.6623339 2.8843125L24.8078277 2.8843125 25.0794003 1.6554375 26.7800708 1.110375 26.3902821 2.8843125 27.8075394 2.8843125 27.5596483 4.02056251 26.1422 4.02056251 25.5635328 6.62924999C25.5282016 6.76837501 25.4926794 6.97725 25.4926794 7.20881251 25.4926794 7.5684375 25.7407615 7.78856249 26.0952191 7.78856249 26.3786324 7.78856249 26.6620456 7.73062499 26.8625739 7.6494375L26.5908103 8.85525001C26.3194288 8.91318751 26.0123341 8.99456249 25.7407615 8.99456249 24.6661211 8.99456249 23.910225 8.57718749 23.910225 7.42912499 23.910225 6.96562499 24.0047598 6.51337499 24.1111353 6.03825001L24.5599366 4.02056251 23.4142518 4.02056251 23.6623339 2.8843125M23.1331303 5.01787501C23.1331303 3.49875 22.1409929 2.7455625 20.6414235 2.7455625 18.645499 2.7455625 17.1810698 4.53112499 17.1810698 6.3860625 17.1810698 8.16000001 18.3620857 8.99456249 20.1099282 8.99456249 20.7592578 8.99456249 21.4326507 8.84400001 22.0464582 8.6585625L22.2475594 7.42912499C21.6566694 7.696125 21.0308303 7.85831249 20.3815007 7.85831249 19.3693105 7.85831249 18.7778476 7.50525001 18.7018379 6.56643751L18.700501 6.56643751C18.6976363 6.51187501 18.6924799 6.45881249 18.6924799 6.40162501 18.6924799 6.3905625 18.6932438 6.3793125 18.6932438 6.36843751 18.6932438 6.36262499 18.6928619 6.35718751 18.6928619 6.35100001L18.6940077 6.35100001C18.701074 5.94206251 18.7923621 5.53875001 18.9510659 5.1665625 19.2551049 4.406625 19.6851902 3.88162501 20.6175511 3.88162501 21.2789124 3.88162501 21.6215292 4.24087499 21.6215292 4.87874999 21.6215292 5.01787501 21.6094976 5.1451875 21.5860071 5.28450001L19.4206839 5.28450001C19.2803142 5.75362501 19.2556778 6.06806251 19.2528131 6.35100001L22.979583 6.35100001C23.0737358 5.91037499 23.1331303 5.46993749 23.1331303 5.01787501"/>
    <polyline points="13.14 .16 14.722 .16 13.671 5.053 13.695 5.053 15.903 2.884 17.958 2.884 15.041 5.609 16.871 8.855 15.088 8.855 13.518 5.69 13.494 5.69 12.809 8.855 11.262 8.855 13.14 .16"/>
    <path d="M11.4043283 4.25268749C11.0968516 4.05543751 10.6837634 3.951 10.2468028 3.951 8.98309284 3.951 8.27455968 5.11049999 8.27455968 6.2353125 8.27455968 7.0115625 8.53429151 7.78856249 9.62096367 7.78856249 10.0107524 7.78856249 10.4948849 7.68412501 10.9079731 7.48725001L10.7309353 8.71631251C10.2468028 8.94806251 9.72733911 8.99456249 9.20768448 8.99456249 7.63687981 8.99456249 6.62125196 7.96293749 6.62125196 6.42075001 6.62125196 4.33368749 8.02666856 2.7455625 10.2114716 2.7455625 10.8019796 2.7455625 11.3686151 2.8498125 11.794117 2.977125L11.4043283 4.25268749M5.62166636.3103125L7.20392978.3103125 6.87334462 1.7945625 5.29089023 1.7945625 5.62166636.3103125 5.62166636.3103125zM5.04280815 2.8843125L6.62526254 2.8843125 5.32641237 8.85525001 3.74395798 8.85525001 5.04280815 2.8843125 5.04280815 2.8843125zM.247891117 2.8843125L1.39357587 2.8843125 1.66514842 1.6554375 3.365628 1.110375 2.97583928 2.8843125 4.39309657 2.8843125 4.14501449 4.02056251 2.72775719 4.02056251 2.14928092 6.62924999C2.11375877 6.76837501 2.0784276 6.97725 2.0784276 7.20881251 2.0784276 7.5684375 2.3265097 7.78856249 2.68077628 7.78856249 2.96418955 7.78856249 3.2476028 7.73062499 3.44851301 7.6494375L3.1767495 8.85525001C2.90498597 8.91318751 2.59808225 8.99456249 2.3265097 8.99456249 1.25186924 8.99456249.495973214 8.57718749.495973214 7.42912499.495973214 6.96562499.590507962 6.51337499.696692447 6.03825001L1.14549378 4.02056251 0 4.02056251.247891117 2.8843125"/>
  </g>
</svg>
