<svg xmlns="http://www.w3.org/2000/svg" width="32" height="32" viewBox="0 0 32 32">
  <g fill="none" fill-rule="evenodd">
    <polygon fill="#EFCAA0" points="31.848 31.849 0 31.849 0 0 31.848 0"/>
    <path fill="#48545C" d="M8.14708075 16.6199255C8.14708075 18.1181615 8.54559006 18.2954534 10.2620621 18.3612422L10.2620621 18.9042484 3.4470559 18.9042484 3.4470559 18.3612422C4.86718012 18.2954534 5.2696646 18.1181615 5.2696646 16.6199255L5.2696646 6.80387578C5.2696646 5.30563975 4.86718012 5.13113043 3.48879503 5.06911801L3.48879503 4.51875776 15.5050932 4.51875776 15.5895652 7.69351553 14.9976646 7.69351553C14.4892422 6.08556522 13.938882 5.57754037 11.1262609 5.57754037L8.94648447 5.57754037C8.29296894 5.57754037 8.14708075 5.7228323 8.14708075 6.31592547L8.14708075 10.8694658 9.22077019 10.8694658C11.463354 10.8694658 11.9507081 10.4645963 12.2220124 8.96039752L12.7717764 8.96039752 12.7717764 14.0434286 12.2220124 14.0434286C11.9290435 12.3444472 11.0799503 11.9262609 9.22077019 11.9262609L8.14708075 11.9262609 8.14708075 16.6199255 8.14708075 16.6199255zM29.1118509 4.51895652L16.5044472 4.51895652 16.2090932 7.69490683 16.935354 7.69490683C17.3950807 6.13903106 18.0762236 5.57793789 19.5915528 5.57793789L21.3700373 5.57793789 21.3700373 16.6201242C21.3700373 18.1183602 20.9669565 18.2956522 19.3379379 18.361441L19.3379379 18.9044472 26.2771677 18.9044472 26.2771677 18.3612422C24.6483478 18.2954534 24.2464596 18.1181615 24.2464596 16.6199255L24.2464596 5.57773913 26.0209689 5.57773913C27.5414658 5.57773913 28.2194286 6.13903106 28.6811429 7.69470807L29.4026335 7.69470807 29.1118509 4.51895652 29.1118509 4.51895652z"/>
  </g>
</svg>
