<svg xmlns="http://www.w3.org/2000/svg" width="73" height="16" viewBox="0 0 73 16">
  <g fill="#000203">
    <path d="M11.6174949.386380799L11.6174949 9.20721017C11.6174949 12.1527399 10.3610843 13.3759727 7.41418905 13.3759727 4.46704068 13.3759727 3.21063012 12.1527399 3.21063012 9.20721017L3.21063012 0 .372316666 0C.124274292 0 0 .12896871 0 .386380799L0 9.3519388C0 14.277703 3.02459834 16 7.41418905 16 11.8035267 16 14.828125 14.277703 14.828125 9.3519388L14.828125 0 11.9895584 0C11.7415161 0 11.6174949.12896871 11.6174949.386380799M51.2582695 2.6039551C51.4819645 2.6039551 51.5863879 2.52218065 51.6608718 2.34179583L52.4517151.196419027C52.4965028.0657402459 52.4517151 0 52.3322001 0L41.3387722 0C40.3093858 0 39.921875.343933725 39.921875 1.11357563L39.921875 15.0499733C39.921875 15.7052378 40.2198104 16 41.0106537 16L51.2582695 16C51.4819645 16 51.5863879 15.9179583 51.6608718 15.738108L52.4517151 13.5924639C52.4965028 13.4615179 52.4517151 13.3960449 52.3322001 13.3960449L42.9499116 13.3960449 42.9499116 10.5628006C42.9499116 9.58017103 43.4420892 9.13789417 44.769411 9.13789417L48.8419255 9.13789417C49.0656205 9.13789417 49.1698005 9.05638696 49.2445278 8.87626937L50.0054315 6.81266702C50.0499758 6.68145377 50.0054315 6.616248 49.8859166 6.616248L42.9499116 6.616248 42.9499116 2.6039551 51.2582695 2.6039551M28.9590162 13.428915L23.5629732 13.428915 23.5629732 10.4973276C23.5629732 9.51469802 24.0560275 9.0726884 25.3862013 9.0726884L28.9590162 9.0726884C30.677391 9.0726884 31.1555708 9.79315874 31.1555708 11.2672368 31.1555708 12.7410476 30.677391 13.428915 28.9590162 13.428915zM23.5629732 2.57108498L28.3911016 2.57108498C30.0048669 2.57108498 30.4532976 3.23730625 30.4532976 4.61811865 30.4532976 5.99919829 30.0048669 6.66541956 28.3911016 6.66541956L23.5629732 6.66541956 23.5629732 2.57108498zM31.8280949 7.56600748C33.0234225 6.87814003 33.5164768 5.58444682 33.5164768 4.06146446 33.5164768.524051309 30.8866099 0 28.1670081 0L21.950671 0C20.919451 0 20.53125.343933725 20.53125 1.11357563L20.53125 15.0499733C20.53125 15.7052378 20.82996 16 21.6219681 16L29.2728446 16C32.1567978 16 34.21875 14.7717798 34.21875 11.5783004 34.21875 9.66221272 33.4716093 8.04088723 31.8280949 7.56600748L31.8280949 7.56600748zM67.3271147 7.41849278L62.3087077 7.41849278 62.3087077 2.57135222 67.3271147 2.57135222C69.2014304 2.57135222 69.6147337 3.37359701 69.6147337 4.9949225 69.6147337 6.63254944 69.2014304 7.41849278 67.3271147 7.41849278zM72.9652357 15.7215393L69.7329923 9.56386959C71.3416476 9.10555852 72.6405662 7.92650989 72.6405662 4.92944949 72.6405662 1.04836986 70.4707242 0 66.8841865 0L60.7147445 0C59.6964192 0 59.3125.343933725 59.3125 1.11357563L59.3125 15.6068947C59.3125 15.8687867 59.4307587 16 59.6667943 16L62.3087077 16 62.3087077 11.3327098C62.3087077 10.3500802 62.7957118 9.90780331 64.1095634 9.90780331L66.7661687 9.90780331 69.6884346 15.738108C69.7770684 15.9016569 69.8657022 16 70.0870458 16L72.8325258 16C73.0244854 16 73.0244854 15.8196152 72.9652357 15.7215393L72.9652357 15.7215393z"/>
  </g>
</svg>
