<?xml version="1.0" encoding="UTF-8" standalone="no"?>
<svg width="47px" height="48px" viewBox="0 0 47 48" version="1.1" xmlns="http://www.w3.org/2000/svg" xmlns:xlink="http://www.w3.org/1999/xlink">
    <!-- Generator: Sketch 39.1 (31720) - http://www.bohemiancoding.com/sketch -->
    <title>logo-outlook</title>
    <desc>Created with Sketch.</desc>
    <defs>
        <polygon id="path-1" points="27.4440231 0.31109434 9.03846153e-05 0.31109434 9.03846153e-05 47.547034 27.4440231 47.547034"></polygon>
    </defs>
    <g id="Page-1" stroke="none" stroke-width="1" fill="none" fill-rule="evenodd">
        <g id="Desktop" transform="translate(-1017.000000, -1542.000000)">
            <g id="COMPANIES" transform="translate(0.000000, 1389.000000)">
                <g id="Logos" transform="translate(720.000000, 152.000000)">
                    <g id="Row-1" transform="translate(9.000000, 0.000000)">
                        <g id="logo-outlook" transform="translate(288.000000, 1.000000)">
                            <g id="outlook">
                                <g id="Page-1">
                                    <g id="outlook">
                                        <path d="M29.1793173,10.4674868 L29.1793173,19.707034 L32.4015288,21.7402415 C32.4864904,21.7651472 32.670875,21.7669585 32.7558365,21.7402415 L46.6244519,12.3711849 C46.6244519,11.2622038 45.5922596,10.4674868 45.0097308,10.4674868 L29.1793173,10.4674868" id="Fill-1" fill="#0072C6"></path>
                                        <path d="M29.1793173,23.1544302 L32.1204327,25.179034 C32.5343942,25.4842415 33.0337692,25.179034 33.0337692,25.179034 C32.53575,25.4842415 46.6262596,16.1056755 46.6262596,16.1056755 L46.6262596,33.0872604 C46.6262596,34.9357132 45.4453846,35.7114113 44.1171827,35.7114113 L29.1775096,35.7114113 L29.1775096,23.1544302 L29.1793173,23.1544302 L29.1793173,23.1544302 Z" id="Fill-3" fill="#0072C6"></path>
                                        <path d="M13.9521308,18.8947472 C12.9497654,18.8947472 12.1516692,19.3665962 11.5619096,20.3089358 C10.97215,21.2508226 10.6765923,22.497917 10.6765923,24.0502189 C10.6765923,25.6256151 10.97215,26.8713509 11.5619096,27.7865208 C12.1516692,28.7039547 12.9253615,29.1599547 13.8811788,29.1599547 C14.8677269,29.1599547 15.6500058,28.7143698 16.2271115,27.8241057 C16.8046692,26.9333887 17.0948038,25.6967094 17.0948038,24.1158792 C17.0948038,22.4680302 16.8150635,21.1851623 16.253775,20.2677283 C15.6924865,19.3525585 14.926025,18.8947472 13.9521308,18.8947472" id="Fill-5" fill="#0072C6"></path>
                                        <g id="Group-9" transform="translate(0.000000, 0.141736)">
                                            <g id="Fill-7-Clipped">
                                                <mask id="mask-2" fill="white">
                                                    <use xlink:href="#path-1"></use>
                                                </mask>
                                                <g id="path-1"></g>
                                                <path d="M18.3644365,29.8182792 C17.2048019,31.3474868 15.6926673,32.1141283 13.826225,32.1141283 C12.0081385,32.1141283 10.5280904,31.3723925 9.38246538,29.8911849 C8.23864808,28.4077132 7.66470577,26.4777509 7.66470577,24.0967698 C7.66470577,21.5826566 8.24542692,19.5494491 9.40867692,17.9971472 C10.5719269,16.4448453 12.1125327,15.6677887 14.0300423,15.6677887 C15.84135,15.6677887 17.3073885,16.4095245 18.4245423,17.896166 C19.5435038,19.3828075 20.1029846,21.3412981 20.1029846,23.7739019 C20.1047923,26.2735245 19.5240712,28.2890717 18.3644365,29.8182792 L18.3644365,29.8182792 L18.3644365,29.8182792 Z M9.03846153e-05,5.63352453 L9.03846153e-05,41.7811472 L27.4440231,47.547034 L27.4440231,0.310958491 L9.03846153e-05,5.63352453 L9.03846153e-05,5.63352453 Z" id="Fill-7" fill="#0072C6" mask="url(#mask-2)"></path>
                                            </g>
                                        </g>
                                    </g>
                                </g>
                            </g>
                        </g>
                    </g>
                </g>
            </g>
        </g>
    </g>
</svg>