<svg xmlns="http://www.w3.org/2000/svg" width="55" height="20" viewBox="0 0 55 20">
  <path fill="#000000" d="M151.807164,3.86470197 C148.290019,8.00516363 144.917746,13.1397072 144.883931,16.9775911 C144.870761,18.4216146 145.330649,19.682236 146.433739,20.6370684 C148.021277,22.0122269 149.770417,22.4971362 151.511014,22.4999907 C154.054635,22.5035589 156.580458,21.4748661 158.558118,20.6816701 C161.888745,19.3464747 198.705752,3.31949123 198.705752,3.31949123 C199.06099,3.14108458 198.994428,2.91878988 198.549846,3.02975882 C198.370447,3.0747173 158.468774,13.9143489 158.468774,13.9143489 C157.698498,14.1309345 156.911848,14.2433307 156.146554,14.2476125 C153.080043,14.26581 150.351328,12.5595287 150.373397,8.96392099 C150.381939,7.55700611 150.811571,5.86035882 151.807164,3.86470197 L151.807164,3.86470197 Z" transform="translate(-144 -3)"/>
</svg>
