<?xml version="1.0" encoding="UTF-8"?>
<svg width="53px" height="24px" viewBox="0 0 53 24" version="1.1" xmlns="http://www.w3.org/2000/svg" xmlns:xlink="http://www.w3.org/1999/xlink">
    <!-- Generator: Sketch 40.1 (33804) - http://www.bohemiancoding.com/sketch -->
    <title>logo-nest</title>
    <desc>Created with Sketch.</desc>
    <defs></defs>
    <g id="Page-1" stroke="none" stroke-width="1" fill="none" fill-rule="evenodd">
        <g id="Desktop" transform="translate(-891.000000, -1646.000000)" fill="#6B7B84">
            <g id="COMPANIES" transform="translate(0.000000, 1389.000000)">
                <g id="Logos" transform="translate(768.000000, 152.000000)">
                    <g id="Row-2" transform="translate(53.000000, 97.000000)">
                        <path d="M109.099581,15.8032205 C110.108398,15.3687517 110.710897,14.5514669 110.710897,13.620253 C110.710897,12.3868159 109.768207,11.6515892 108.188486,11.6515892 C106.512144,11.6515892 105.733304,13.1377948 105.533818,13.5916792 L105.288411,14.1539975 L102.149173,14.1539975 L102.14403,14.1569282 L99.2355049,14.1569282 C98.4408681,12.8231163 96.8405733,11.5940752 94.9798082,11.5940752 C91.6219812,11.5940752 89.9463741,14.234224 89.7321932,16.8410367 L103.455566,16.8410367 L103.455566,17.4125134 C103.455566,18.4931904 103.343883,19.5104921 103.135213,20.4548938 C103.527939,19.2430703 104.423605,17.9865543 106.300902,17.0971022 C106.986428,16.7677705 108.021696,16.2765204 109.099581,15.8032205 M94.7839961,24.0863348 C97.5925943,24.0863348 98.9684217,22.1367203 99.3670259,20.1504726 L90.0194821,20.1504726 C90.5069916,22.1407499 92.2399095,24.0863348 94.7839961,24.0863348 M122.323321,24.0288209 L122.323321,27.5957876 L119.405979,27.5957876 L119.405979,31.8115268 L115.824052,31.8115268 L115.824052,27.5957876 L108.609867,27.5957876 C105.278124,27.5939559 102.860048,25.3391875 102.860048,22.2323327 C102.860048,21.8982387 102.889438,21.5385015 102.9563,21.1655763 C101.821105,25.1237848 98.8288184,27.5957876 94.8104473,27.5957876 C89.8949413,27.5957876 86.1370406,23.7441815 85.8221984,18.5261602 L85.8221984,19.635411 C85.8221984,24.0251575 82.2729679,27.5957876 77.9110992,27.5957876 C73.5492305,27.5957876 70,24.0251575 70,19.635411 L70,8.22272936 L73.6256449,8.22272936 L73.6256449,19.635411 C73.6256449,22.0118014 75.5473947,23.947129 77.9110992,23.947129 C80.2737015,23.947129 82.1965534,22.0121677 82.1965534,19.635411 L82.1965534,8.22272936 L85.8221984,8.22272936 L85.8221984,17.1018645 C86.1392448,11.8651603 89.9452719,8 94.9243342,8 C97.9640126,8 100.645131,9.77670623 102.163868,11.8343885 C103.296859,9.39755346 105.511041,8 108.245796,8 C111.415526,8 114.623831,10.037534 114.623831,13.9334661 C114.623831,16.2651641 113.278128,18.1704526 110.834336,19.300218 C110.521698,19.4438198 110.269677,19.5636101 110.02831,19.6790044 L109.995614,19.6954893 C109.721918,19.8255369 109.458141,19.9504558 109.130808,20.1010179 C107.533452,20.822324 106.773349,21.3505736 106.773349,22.4041421 C106.773349,23.3309599 107.597376,24.0288209 108.614643,24.0288209 L115.824052,24.0288209 L115.824052,13.8660612 C115.824052,10.6302579 118.439042,8.00036633 121.652858,8.00036633 L121.652858,11.6050652 C120.414062,11.6050652 119.405979,12.6194362 119.405979,13.8660612 L119.405979,24.0288209 C120.839117,24.0277219 121.942718,24.0288209 122.323321,24.0288209" id="logo-nest" transform="translate(96.161660, 19.905763) scale(1, -1) translate(-96.161660, -19.905763) "></path>
                    </g>
                </g>
            </g>
        </g>
    </g>
</svg>