<svg xmlns="http://www.w3.org/2000/svg" width="38" height="40" viewBox="0 0 38 40">
  <path fill="#FF5A5F" fill-rule="evenodd" d="M37.4687222,32.1477228 C37.2665946,31.6720792 37.0640627,31.1568317 36.861935,30.720396 C36.5377222,30.0071287 36.2139137,29.3326733 35.9313393,28.6986139 L35.8909137,28.6590099 C33.098318,22.7120792 30.1044031,16.6867327 26.9475733,10.7405941 L26.8262967,10.5021782 C26.5024882,9.90732673 26.1782754,9.27247525 25.8556797,8.63881188 C25.4506159,7.92475248 25.0463605,7.17227723 24.3987435,6.45821782 C23.1039137,4.87247525 21.242318,4 19.2598499,4 C17.2361478,4 15.4153818,4.87247525 14.0805308,6.37861386 C13.4733393,7.09188119 13.0278499,7.84514851 12.6235946,8.55920792 C12.2993818,9.19445545 11.9755733,9.82772277 11.6529776,10.4225743 L11.5312967,10.6609901 C8.41529671,16.6071287 5.38055203,22.6328713 2.58836054,28.5794059 L2.54753075,28.6582178 C2.26455203,29.2934653 1.94033926,29.9671287 1.61653075,30.68 C1.41440309,31.1164356 1.21227543,31.5920792 1.01014777,32.1073267 C0.483807346,33.5738614 0.321700963,34.9615842 0.524637134,36.3893069 C0.96972224,39.3627723 2.99261586,41.8594059 5.7852116,42.970297 C6.8374882,43.4067327 7.93019033,43.6047525 9.06291373,43.6047525 C9.38672224,43.6047525 9.79097756,43.5651485 10.1151903,43.5251485 C11.4508499,43.3667327 12.8265308,42.9310891 14.1621903,42.1778218 C15.8212542,41.2657426 17.3994669,39.9580198 19.1798073,38.0550495 C20.9601478,39.9580198 22.5787861,41.2657426 24.1974244,42.1778218 C25.5334882,42.9310891 26.9087648,43.3667327 28.2440201,43.5251485 C28.5678286,43.5655446 28.9728925,43.6047525 29.296701,43.6047525 C30.4298286,43.6047525 31.562552,43.4067327 32.5739988,42.970297 C35.4070201,41.8594059 37.3894882,39.3231683 37.8349776,36.3893069 C38.1563605,35.0019802 37.9946584,33.6150495 37.4687222,32.1477228 L37.4687222,32.1477228 L37.4687222,32.1477228 Z M19.2190201,34.2091089 C17.0336159,31.5132673 15.6171052,28.9762376 15.1319988,26.8360396 C14.9298712,25.9239604 14.8890414,25.1310891 15.0107222,24.4174257 C15.091169,23.7829703 15.3345308,23.2277228 15.6583393,22.7520792 C16.4272329,21.6823762 17.7220627,21.0079208 19.2194244,21.0079208 C20.7171903,21.0079208 22.0524456,21.6423762 22.7809137,22.7520792 C23.1047222,23.2277228 23.3472754,23.7833663 23.428935,24.4174257 C23.5498073,25.1314851 23.5093818,25.9635644 23.3072542,26.8360396 C22.8201265,28.9366337 21.4036159,31.4740594 19.2190201,34.2091089 L19.2190201,34.2091089 L19.2190201,34.2091089 Z M35.364169,36.0724752 C35.0811903,38.1338614 33.6646797,39.9184158 31.6822116,40.7112871 C30.7111903,41.1073267 29.6585095,41.2265347 28.6070414,41.1073267 C27.5955946,40.9881188 26.5833393,40.6708911 25.5318712,40.0768317 C24.074935,39.2831683 22.6184031,38.0550495 20.9185095,36.2308911 C23.5890201,33.020198 25.2076584,30.0859406 25.8148499,27.470099 C26.0982329,26.2407921 26.1390627,25.1310891 26.0169776,24.099802 C25.8556797,23.1089109 25.4910414,22.1968317 24.9246797,21.4039604 C23.6694669,19.6194059 21.5649137,18.5893069 19.2186159,18.5893069 C16.872318,18.5893069 14.7677648,19.659802 13.5133605,21.4039604 C12.9469988,22.1968317 12.5823605,23.1089109 12.4206584,24.099802 C12.2589563,25.1310891 12.2989776,26.280396 12.6227861,27.470099 C13.2295733,30.0859406 14.8886371,33.0594059 17.5187222,36.270495 C15.8596584,38.0942574 14.3622967,39.3235644 12.9053605,40.1164356 C11.8530839,40.7112871 10.8420414,41.0285149 9.83059458,41.1469307 C8.73829671,41.2661386 7.68561586,41.1073267 6.75502011,40.7508911 C4.77255203,39.9580198 3.35604139,38.1734653 3.07306267,36.1120792 C2.95178607,35.1211881 3.03223288,34.130297 3.43729671,33.020198 C3.55816905,32.6233663 3.76110522,32.2273267 3.96323288,31.7516832 C4.24661586,31.1172277 4.56961586,30.4427723 4.89382862,29.7691089 L4.93465841,29.690297 C7.72644564,23.7829703 10.7207648,17.7572277 13.8367648,11.890297 L13.9580414,11.6518812 C14.2822542,11.0578218 14.6060627,10.4233663 14.9294669,9.82851485 C15.2532754,9.19405941 15.6171052,8.59920792 16.0625946,8.08356436 C16.9123393,7.13306931 18.0450627,6.6170297 19.2998712,6.6170297 C20.5546797,6.6170297 21.6874031,7.13306931 22.5371478,8.08356436 C22.9826371,8.60039604 23.3464669,9.19524752 23.6702754,9.82851485 C23.9944882,10.4233663 24.3182967,11.0578218 24.6412967,11.6518812 L24.7629776,11.890297 C27.8381478,17.7968317 30.8332754,23.8225743 33.6250627,29.729901 L33.6250627,29.769505 C33.9492754,30.4047525 34.2322542,31.1176238 34.5560627,31.7528713 C34.7581903,32.2277228 34.9607222,32.6237624 35.0819988,33.0205941 C35.4049988,34.050297 35.5262754,35.0419802 35.364169,36.0724752 L35.364169,36.0724752 L35.364169,36.0724752 Z" transform="translate(0 -4)"/>
</svg>
