<?xml version="1.0" encoding="UTF-8" standalone="no"?>
<svg width="58px" height="20px" viewBox="0 0 58 20" version="1.1" xmlns="http://www.w3.org/2000/svg" xmlns:xlink="http://www.w3.org/1999/xlink">
    <!-- Generator: Sketch 39.1 (31720) - http://www.bohemiancoding.com/sketch -->
    <title>logo-nike</title>
    <desc>Created with Sketch.</desc>
    <defs></defs>
    <g id="Page-1" stroke="none" stroke-width="1" fill="none" fill-rule="evenodd">
        <g id="Desktop" transform="translate(-726.000000, -1648.000000)" fill="#000000">
            <g id="COMPANIES" transform="translate(0.000000, 1389.000000)">
                <g id="Logos" transform="translate(720.000000, 152.000000)">
                    <g id="Row-2" transform="translate(0.000000, 97.000000)">
                        <path d="M13.4295002,10.8868738 C9.65531096,15.1335012 6.03658121,20.3996997 6.0002946,24.3359909 C5.98616193,25.8170406 6.4796598,27.1099857 7.66336715,28.089301 C9.36692792,29.4997199 11.2439005,29.9970628 13.1117059,29.9999905 C15.8412227,30.0036501 18.5516414,28.9485806 20.673835,28.1350463 C24.247875,26.7656151 63.7555881,10.3276833 63.7555881,10.3276833 C64.1367884,10.1447021 64.0653611,9.91670757 63.5882877,10.0305219 C63.3957777,10.0766331 20.577962,21.194204 20.577962,21.194204 C19.7513913,21.4163431 18.9072502,21.5316213 18.0860269,21.5360128 C14.7954045,21.5546769 11.8672662,19.8046448 11.890948,16.116842 C11.9001151,14.6738524 12.361146,12.9337014 13.4295002,10.8868738 L13.4295002,10.8868738 L13.4295002,10.8868738 Z" id="logo-nike"></path>
                    </g>
                </g>
            </g>
        </g>
    </g>
</svg>