<svg xmlns="http://www.w3.org/2000/svg" width="44" height="44" viewBox="0 0 44 44">
  <g fill="none" fill-rule="evenodd">
    <path fill="#6A7A55" d="M0,21.9896875 C0,24.1358906 0.309203125,26.2095625 0.882234375,28.1704844 L13.0200469,24.1948437 C12.8667344,23.5327812 12.7850937,22.8432187 12.7850937,22.1344062 C12.7850937,21.3140469 12.8966406,20.5203281 13.0999688,19.76425 L0.875703125,15.8312344 C0.306625,17.7854531 0,19.8515625 0,21.9896875"/>
    <path fill="#A09440" d="M16.0869844,15.1160625 L8.41259375,4.68823437 C5.18925,7.222875 2.69225,10.6387187 1.28321875,14.5724219 L13.5360156,18.5147187 C14.1111094,17.1892187 14.9895625,16.0261406 16.0869844,15.1160625"/>
    <path fill="#AFA148" d="M21.3487656,13.0343125 L21.3487656,0 C16.9439531,0.128046875 12.8645,1.55151562 9.4765,3.9015625 L17.1636094,14.34675 C18.3968125,13.5947969 19.8216563,13.1260938 21.3487656,13.0343125"/>
    <path fill="#4C5C59" d="M13.4138125,25.458125 L1.291125,29.4287813 C2.7204375,33.4068281 5.262125,36.8542969 8.54270312,39.3942656 L16.0245937,29.1003281 C14.8757812,28.1304375 13.9722344,26.8809063 13.4138125,25.458125"/>
    <path fill="#48555D" d="M9.61365625,40.1714844 C12.9745,42.4653281 17.0030781,43.852875 21.3487656,43.979375 L21.3487656,31.2345 C19.7929531,31.141 18.3435312,30.655625 17.0945156,29.87875 L9.61365625,40.1714844"/>
    <path fill="#E3B23B" d="M34.4004375,3.8176875 C31.0421719,1.52178125 27.0156562,0.131140625 22.6718594,0.000859375 L22.6718594,13.0506406 C24.14775,13.173875 25.5232656,13.6491094 26.7155625,14.3909219 L34.4004375,3.8176875"/>
    <path fill="#903024" d="M22.6718594,31.2181719 L22.6718594,43.9785156 C27.0496875,43.8472031 31.1054219,42.4357656 34.4795,40.1075469 L26.8748906,29.7745937 C25.6463281,30.5750156 24.2142656,31.0894375 22.6718594,31.2181719"/>
    <path fill="#D65841" d="M27.9288281,28.9741719 L35.5458125,39.3239688 C38.8171094,36.7644063 41.3438437,33.298375 42.7521875,29.3046875 L30.4375156,25.342625 C29.9064219,26.752 29.0387969,27.996375 27.9288281,28.9741719"/>
    <path fill="#E6703E" d="M44,21.9896875 C44,19.8168437 43.68375,17.71825 43.0969687,15.7358437 L30.7144062,19.7915781 C30.9130937,20.5394062 31.0218906,21.3238437 31.0218906,22.1344062 C31.0218906,22.8000781 30.9493594,23.4487344 30.8139219,24.0736719 L43.1538594,28.0439844 C43.7035156,26.1203594 44,24.0898281 44,21.9896875"/>
    <path fill="#F4A83A" d="M30.2823125,18.5408438 L42.6837812,14.47875 C41.2517187,10.5364531 38.7251562,7.11940625 35.4707031,4.59576563 L27.7847969,15.1705469 C28.8593594,16.0782188 29.7187344,17.2308125 30.2823125,18.5408438"/>
  </g>
</svg>
