<svg xmlns="http://www.w3.org/2000/svg" width="32" height="29" viewBox="0 0 32 29">
  <g fill="none" fill-rule="evenodd" transform="translate(.5 .25)">
    <rect width="21.727" height="7.242" fill="#F45E43" rx="3.621"/>
    <ellipse cx="27.521" cy="3.62" fill="#F45E43" rx="3.727" ry="3.62"/>
    <path fill="#F45E43" d="M13.2552,10.815 L27.51336,10.815 C28.85969,10.7230482 30.1477429,11.3737413 30.86467,12.5080004 C31.5815971,13.6422596 31.6109981,15.0759265 30.9411669,16.2381751 C30.2713356,17.4004237 29.0110257,18.1025512 27.66204,18.065 L13.2552,18.065 C11.90887,18.1569518 10.6208171,17.5062587 9.90389002,16.3719996 C9.18696292,15.2377404 9.15756187,13.8040735 9.82739314,12.6418249 C10.4972244,11.4795763 11.7575343,10.7774488 13.10652,10.815 L13.2552,10.815 L13.2552,10.815 Z"/>
    <ellipse cx="3.725" cy="14.44" fill="#F63A4D" rx="3.725" ry="3.695"/>
    <rect width="21.727" height="7.242" y="21.258" fill="#F45E43" rx="3.621"/>
    <ellipse cx="27.521" cy="24.878" fill="#F45E43" rx="3.727" ry="3.623"/>
  </g>
</svg>
