<svg xmlns="http://www.w3.org/2000/svg" width="54" height="21" viewBox="0 0 54 21">
  <g fill="none" transform="translate(.072 .765)">
    <path fill="#D22F2F" d="M51.2687504,1.88508581 C47.6986362,-2.08907663 24.728048,1.48572691 14.9597508,3.63932663 L14.7321008,3.68906916 C14.6851632,3.69759219 14.6541837,3.7430743 14.6616938,3.78997399 C14.6701385,3.83782129 14.7147337,3.86908812 14.7621413,3.86103506 L14.9879135,3.81650385 C23.0809881,2.36213688 39.9111287,0.345921236 43.5328761,3.96999404 C44.6377998,5.07569115 44.3740069,6.50068652 43.0930653,8.18102452 C43.7839943,8.62917725 44.2759061,9.33314806 44.4974549,10.2147683 C49.4987136,6.85646073 52.8594847,3.65590711 51.2687504,1.88508581 M36.4039103,14.0302303 C36.4016526,14.0321255 36.3992212,14.0336373 36.396855,14.0354558 C34.1320896,15.6532613 31.4495751,17.3530226 28.5633488,19.1371083 L28.4492888,19.2039056 C28.4108002,19.2318739 28.4009434,19.2853872 28.4291246,19.3251814 C28.45586,19.3645013 28.5093884,19.3739763 28.5483469,19.3460256 L28.644571,19.2948622 C31.0923943,18.0053557 33.9035203,16.4751918 36.7324822,14.9047604 C36.7479529,14.8967194 36.7629732,14.8877055 36.7780119,14.8796711 C36.6221778,14.6224332 36.4949753,14.3400864 36.4039146,14.0302642"/>
    <g fill="#004879" transform="translate(0 7.23)">
      <g transform="matrix(1 0 0 -1 6.41 9.004)">
        <path d="M0.469381425,3.31614511 C0.387239676,5.70234838 2.23988816,8.14255745 4.93038249,8.14255745 C6.72999088,8.14255745 7.90766887,6.93216449 7.97385166,5.07843937 C8.05974846,2.56195897 6.32960852,0.251553293 3.51285059,0.251553293 C1.71277282,0.251553293 0.535094825,1.45957758 0.469381425,3.31614511 M1.6400187,3.24129498 C1.68601808,1.84282921 2.5623532,0.697811678 3.70576635,0.697811678 C5.92124668,0.697811678 6.86470335,3.44310609 6.79898995,5.27788181 C6.7520518,6.67966372 5.85271699,7.82231258 4.71118137,7.82231258 C2.8050234,7.82231258 1.57477468,5.0883878 1.6400187,3.24129498" transform="translate(29.8 .007)"/>
        <path d="M7.04072138,3.78988013 C7.03086437,3.57054081 6.99378324,3.37867813 6.93557994,3.04327374 L6.53942202,0.801559647 C6.50562656,0.60259094 6.57885006,0.446258385 6.76190881,0.339194271 L6.7497049,0.251553293 L4.48400076,0.254869438 L4.46334797,0.825246397 C4.13337283,0.623909016 3.73533738,0.454785615 3.37485245,0.355301262 C3.01577566,0.262449199 2.72522856,0.221234252 2.28917321,0.221234252 C1.55693819,0.221234252 1.13778058,0.297979325 0.848641617,0.553796233 C0.554808845,0.818140372 0.412586273,0.992948593 0.426198334,1.35630335 C0.437463489,1.56569423 0.544951835,1.83382825 0.700317087,2.02190105 C0.857090483,2.21234252 1.07065903,2.33693483 1.30347222,2.44684136 C1.53722417,2.55959029 1.81228168,2.64059898 2.21266404,2.7045532 C2.61351578,2.77040237 3.17161029,2.8357778 3.91886552,2.89878456 C4.31173777,2.93147228 4.5511223,3.02337687 4.66377384,3.0683817 C4.81960848,3.12996725 4.88109744,3.19771136 4.90409713,3.32561981 C4.94587208,3.55632876 4.87264858,3.68755336 4.56989756,3.74866518 C3.75317388,3.91068255 2.22345981,3.64396974 1.43489902,3.4445273 L1.86344426,4.61133664 C2.9035935,4.76482679 3.87849872,4.86288994 4.90409713,4.86288994 C6.53519759,4.86288994 7.05714973,4.3929448 7.04072138,3.78988013 M4.70179374,2.32177531 C4.60557055,2.28529772 4.48118447,2.24882012 4.32722736,2.21660614 C4.17373964,2.18154975 3.89304954,2.1308601 3.48562647,2.0659584 C3.20493637,2.02190105 3.01061246,1.96221044 2.89936906,1.88214922 C2.79328886,1.80256173 2.73086113,1.70828847 2.71255526,1.59269712 C2.69096371,1.46952602 2.73086113,1.37146287 2.83647195,1.29424406 C2.9439603,1.21844646 3.12420277,1.17960019 3.3786075,1.17960019 C3.56917636,1.17960019 3.75645955,1.21039297 3.93764078,1.26866237 C4.12069953,1.32930045 4.27512602,1.41173035 4.3943489,1.51358338 C4.48118447,1.58938098 4.5436122,1.68649666 4.59055034,1.80256173 C4.61730508,1.87883307 4.65626374,2.05079888 4.70179374,2.32177531" transform="translate(.078 1.632)"/>
        <path d="M0.938762851,5.68482019 C1.00353749,6.0529123 1.5794685,6.35183909 2.22252105,6.35183909 C2.86698175,6.35183909 3.33730193,6.0529123 3.27534359,5.68482019 C3.20728328,5.31625435 2.63276042,5.01827502 1.98736096,5.01827502 C1.34102273,5.01827502 0.873518833,5.31625435 0.938762851,5.68482019 L0.938762851,5.68482019 Z M0.0319179369,0.168175931 L0.818601206,4.6473405 L2.98808215,4.6473405 L2.20186827,0.168175931 L0.0319179369,0.168175931 L0.0319179369,0.168175931 Z" transform="translate(13.655 1.715)"/>
      </g>
      <g transform="matrix(1 0 0 -1 .164 7.364)">
        <path d="M6.71508998,3.570779 C6.70617173,3.35096595 6.66768246,3.15720833 6.60807102,2.82512009 L6.21472938,0.580563583 C6.18093392,0.382542346 6.25368804,0.227157261 6.43580803,0.116777003 L6.42219597,0.03908446 L4.15743059,0.0348208448 L4.14006348,0.605671539 C3.80868019,0.403386687 3.40829784,0.235210756 3.05062919,0.137147608 C2.69014426,0.0414531351 2.39959716,0.00213312875 1.96072552,0.00213312875 C1.22942926,0.00213312875 0.813557319,0.0760357912 0.523010217,0.33374764 C0.2277693,0.599039249 0.0855467283,0.772899999 0.101505697,1.13530729 C0.109485181,1.34564563 0.21791229,1.61614833 0.374216305,1.80090498 C0.530989701,1.99371513 0.745027631,2.11593877 0.978779581,2.22679276 C1.21253153,2.33764676 1.48899719,2.41960291 1.88421635,2.48687329 C2.287415,2.54988004 2.84691765,2.61809789 3.59417288,2.68110464 C3.98329009,2.71379236 4.22267461,2.80332828 4.33438739,2.84643816 C4.49256893,2.90849745 4.55499666,2.97718903 4.57799635,3.10604495 C4.61836315,3.33201655 4.5465478,3.46703103 4.2456743,3.52861659 C3.42519557,3.69205517 1.89970594,3.42344741 1.11067576,3.22589991 L1.53734348,4.39223552 C2.58124777,4.5461994 3.55145917,4.64426255 4.57846573,4.64426255 C6.20862742,4.64426255 6.72823266,4.17289621 6.71508998,3.570779 M4.37663172,2.10030551 C4.27946976,2.06714406 4.15320616,2.03066647 4.00018782,1.99513634 C3.84810823,1.95865874 3.56741814,1.91318018 3.15717878,1.84543607 C2.87836621,1.80090498 2.68028725,1.74168811 2.57326828,1.66115315 C2.46906561,1.58440808 2.40710726,1.48871361 2.38504633,1.37312226 C2.36251602,1.24947743 2.40710726,1.14951934 2.50896303,1.07514294 C2.61879828,0.998871602 2.79997951,0.961920271 3.05485363,0.961920271 C3.24401434,0.961920271 3.42895062,0.990344372 3.61154,1.04814004 C3.79647628,1.11067307 3.949964,1.19026055 4.07012565,1.29306105 C4.15320616,1.36933238 4.2179808,1.468343 4.26304141,1.58440808 C4.2912043,1.65925821 4.32875481,1.83169776 4.37663172,2.10030551" transform="translate(26.217 .202)"/>
        <path d="M6.35425236,1.7853895 C5.64830269,1.64421647 5.25073662,1.58973694 4.55229706,1.58973694 C3.51590288,1.58973694 2.69260786,2.10895052 2.73719909,3.0611579 C2.76911703,3.69501535 3.51355597,5.03331677 5.40469373,5.03331677 C5.9994,5.03331677 6.46502637,4.92720013 7.09118119,4.56716151 L7.36576933,6.12290731 C6.5147808,6.44741579 5.95105371,6.4962105 5.22069621,6.488157 C2.74283167,6.46115411 0.360720934,5.32371633 0.0659493993,3.01094199 C-0.234454713,0.661216309 2.60952734,0.0699950092 3.87216338,0.0756798294 C4.60111273,0.0775747694 5.35916373,0.10789381 6.06652154,0.181796473 L6.35425236,1.7853895 Z" transform="translate(.1 .068)"/>
      </g>
      <path d="M1.40814428,4.73735016 L1.56397891,5.64929006 L3.8334381,6.1476593 L3.59170667,4.73735016 L4.7027325,4.73735016 L4.49198024,3.83488495 L3.41381111,3.83772736 L2.75902402,0.235446303 C2.75902402,0.235446303 0.574522865,0.249658353 0.566543381,0.235446303 L1.21898356,3.8287264 L0.393811016,3.8287264 L0.561380185,4.73735016 L1.40814428,4.73735016 Z" transform="matrix(1 0 0 -1 22.84 7.353)"/>
      <polygon points="2.347 .474 .137 .47 1.249 6.72 3.401 6.659" transform="matrix(1 0 0 -1 32.951 7.592)"/>
      <path d="M0,0 L1.05610821,6.00364385 L2.96085803,6.00364385 L2.81347226,5.2371406 C2.97916391,5.46595461 3.24295627,5.65402741 3.60766564,5.80704382 C3.97519129,5.95863903 4.38871633,6.07138796 4.83838373,6.07138796 C5.33545866,6.07138796 5.64196473,6.04438507 6.0141842,5.85015371 C6.38452615,5.65402741 6.64221655,5.37026014 6.78303098,4.99979936 C6.92572293,4.63549713 6.95529396,4.22571634 6.87831541,3.78040543 C6.74923552,3.04043133 6.39156687,2.45678979 5.80577885,2.0280596 C5.22421527,1.59980315 4.70132436,1.48705421 3.95359975,1.4842118 C3.68886862,1.4842118 3.46778997,1.51216217 3.28379245,1.557167 C3.10401937,1.6045405 2.96085803,1.66233617 2.85149216,1.73244895 C2.74775886,1.80303547 2.63698485,1.90109862 2.49429289,2.05790491 L2.13944054,0 L0,0 Z M3.95031408,4.97611261 C3.66586893,4.97611261 3.40864791,4.8894191 3.17958978,4.71508461 C2.95334793,4.54075013 2.80924783,4.28682816 2.75057515,3.94810762 C2.68251485,3.55727623 2.72241227,3.2768251 2.87589999,3.10296435 C3.03079586,2.93099854 3.25375204,2.84477877 3.54664605,2.84477877 C3.74378625,2.84477877 3.94843655,2.8803089 4.09863861,2.95515903 C4.28451365,3.05416965 4.41265478,3.15886508 4.5234288,3.32372487 C4.64312106,3.49758562 4.72150776,3.69039577 4.76187456,3.91494617 C4.82383291,4.26835249 4.77173157,4.5336441 4.60885622,4.70797859 C4.45114406,4.88752416 4.23335108,4.97611261 3.95031408,4.97611261 L3.95031408,4.97611261 Z" transform="matrix(1 0 0 -1 13.277 8.667)"/>
      <path d="M4.22443283,1.89494006 L4.39622643,1.77745378 C3.96251799,0.885410744 3.07773401,0.167228461 2.03946229,0.167228461 C1.19035129,0.167228461 0.494258641,0.737605419 0.45764689,1.80919403 C0.389117202,3.72876831 2.17135847,5.51285438 3.63066533,5.51285438 C4.25682015,5.51285438 4.83744497,5.23666686 4.86326095,4.55638338 C4.91677043,3.02953543 2.79281948,2.5624327 1.39312407,2.53069245 C1.34759407,2.37151749 1.33069634,2.21092132 1.33914521,1.96694779 C1.36167552,1.3340378 1.74187447,0.801085912 2.52621083,0.801085912 C3.20399761,0.801085912 3.88178439,1.35203973 4.22443283,1.89494006 M4.03386397,4.65207785 C4.02166005,5.01353767 3.84188697,5.25609 3.47248379,5.25609 C2.5825366,5.25609 1.63626365,3.49663815 1.47291891,2.78745683 C2.93316453,2.78745683 4.06953696,3.66481408 4.03386397,4.65207785" transform="matrix(1 0 0 -1 48.63 8.894)"/>
      <path d="M0.469381425,4.73735016 C0.620052863,4.75772076 0.86272306,4.78424992 0.967395118,4.78424992 C1.1269848,4.78424992 1.27718686,4.75393088 1.28469696,4.59428218 C1.28751325,4.49953518 1.11806656,3.81972543 1.08239357,3.66197167 L0.743969559,2.15596806 C0.607848946,1.5396388 0.459524416,0.89441171 0.328097616,0.384672833 L1.19739202,0.384672833 L1.68601808,2.77040237 C3.17724287,4.3375178 3.75082697,4.84867789 4.10286304,4.84867789 C4.26104458,4.84867789 4.37041045,4.76482679 4.37792056,4.57343784 C4.3868388,4.29772406 4.21739211,3.67144637 4.15825005,3.4919008 L3.65976697,1.75187209 C3.54617667,1.36056697 3.46262678,1.00810811 3.47013688,0.756081085 C3.48562647,0.373776927 3.71421522,0.204179792 4.05404737,0.204179792 C4.68958982,0.204179792 5.150053,0.872619899 5.55372103,1.52921663 L5.43543691,1.74429233 C5.27256155,1.48042192 4.89564827,0.904360145 4.59852983,0.904360145 C4.50418416,0.904360145 4.41594045,0.967366902 4.41265478,1.12654187 C4.40373653,1.33024792 4.48916395,1.63391207 4.54736725,1.83572319 L5.10123733,3.87420496 C5.24956186,4.43558095 5.32137722,4.79704077 5.31762217,4.98937719 C5.30354073,5.3697864 5.08340084,5.54791077 4.74591559,5.54791077 C4.17420902,5.54791077 3.41428049,5.12628661 1.80664911,3.25834944 L1.78318004,3.25834944 L1.98595281,4.16981561 C2.09578806,4.66818485 2.20327641,5.18834589 2.30794847,5.54791077 C1.75173148,5.34562592 0.954721819,5.11918058 0.461871323,5.02301237 L0.469381425,4.73735016 Z" transform="matrix(1 0 0 -1 43.68 8.928)"/>
    </g>
  </g>
</svg>
