<svg xmlns="http://www.w3.org/2000/svg" width="72" height="26" viewBox="0 0 72 26">
  <g fill="none" transform="translate(.024 .02)">
    <path fill="#D22F2F" d="M68.4264198,2.51344775 C63.6615264,-2.78543551 33.0035701,1.98096921 19.9662012,4.85243551 L19.6623656,4.91875888 C19.5997198,4.93012292 19.5583726,4.99076573 19.5683961,5.05329865 C19.579667,5.11709506 19.6391865,5.15878416 19.7024596,5.14804674 L20.003789,5.0886718 C30.8053029,3.14951584 53.2678411,0.461228315 58.1016473,5.29332539 C59.5763464,6.7675882 59.2242722,8.66758202 57.5146489,10.9080327 C58.4368052,11.5055697 59.0933408,12.4441974 59.3890334,13.619691 C66.0640201,9.14194764 70.5495115,4.87454281 68.4264198,2.51344775 M48.5868922,18.7069737 C48.583879,18.7095007 48.5806339,18.7115164 48.5774757,18.7139411 C45.554781,20.8710151 41.9745325,23.1373635 38.1223977,25.5161444 L37.9701663,25.6052075 C37.9187971,25.6424985 37.9056415,25.7138496 37.9432539,25.7669085 C37.9789367,25.8193351 38.0503789,25.8319684 38.1023754,25.7947008 L38.2308019,25.7264829 C41.4978171,24.0071409 45.2497183,21.9669224 49.0254244,19.8730138 C49.0460726,19.8622925 49.0661196,19.850274 49.0861912,19.8395615 C48.8782054,19.4965776 48.7084332,19.1201152 48.586898,18.707019"/>
    <g fill="#004879" transform="translate(0 9.64)">
      <g transform="matrix(1 0 0 -1 8.554 12.006)">
        <path d="M0.626465249,4.42152681 C0.516833831,7.60313118 2.98949217,10.8567433 6.58039098,10.8567433 C8.98225874,10.8567433 10.5540601,9.24288598 10.6423917,6.77125249 C10.7570348,3.41594529 8.44788388,0.335404391 4.68846592,0.335404391 C2.28597169,0.335404391 0.714170384,1.94610344 0.626465249,4.42152681 M2.18886958,4.32172664 C2.25026317,2.45710561 3.41987379,0.930415571 4.94594314,0.930415571 C7.90285912,0.930415571 9.16205427,4.59080813 9.07434913,7.03717575 C9.01170261,8.9062183 7.81139519,10.4297501 6.28783171,10.4297501 C3.74375633,10.4297501 2.10179091,6.78451707 2.18886958,4.32172664" transform="translate(39.772 .01)"/>
        <path d="M9.39697874,5.0531735 C9.38382297,4.76072108 9.33433221,4.50490418 9.25665052,4.05769832 L8.72791385,1.0687462 C8.68280835,0.803454587 8.78053693,0.59501118 9.02485838,0.452259028 L9.00857028,0.335404391 L5.98462252,0.339825918 L5.95705805,1.10032853 C5.51665298,0.831878688 4.98541045,0.60638082 4.50428514,0.473735016 C4.02503923,0.349932265 3.63725724,0.294979003 3.05527102,0.294979003 C2.07798523,0.294979003 1.51855176,0.397305767 1.13264917,0.738394978 C0.740481924,1.09085383 0.550662954,1.32393146 0.568830446,1.80840447 C0.583865612,2.0875923 0.727326154,2.44510433 0.934686152,2.69586806 C1.14392554,2.94979003 1.42896723,3.11591311 1.739694,3.26245514 C2.05167369,3.41278705 2.41878233,3.52079864 2.95315718,3.60607094 C3.48815851,3.69386983 4.23302569,3.78103707 5.23035836,3.86504608 C5.75470978,3.9086297 6.07420706,4.03116916 6.22455872,4.0911756 C6.43254518,4.17328967 6.51461213,4.26361514 6.54530892,4.43415975 C6.60106433,4.74177168 6.50333575,4.91673782 6.09926567,4.99822024 C5.00921613,5.21424341 2.96756588,4.85862632 1.91510427,4.59270307 L2.48706704,6.14844886 C3.87531403,6.35310238 5.17648235,6.48385325 6.54530892,6.48385325 C8.72227566,6.48385325 9.41890502,5.85725973 9.39697874,5.0531735 M6.2753024,3.09570042 C6.14687702,3.04706362 5.98086373,2.99842683 5.77538313,2.95547485 C5.57052899,2.908733 5.19590278,2.8411468 4.65213094,2.7546112 C4.27750472,2.69586806 4.01814811,2.61628058 3.86967584,2.50953229 C3.7280947,2.40341565 3.64477482,2.27771796 3.62034267,2.12359616 C3.59152527,1.95936803 3.64477482,1.82861716 3.7857295,1.72565875 C3.92919004,1.62459528 4.1697527,1.57280025 4.50929686,1.57280025 C4.76364175,1.57280025 5.01360139,1.61385729 5.25541697,1.69154983 C5.49973842,1.77240061 5.70584549,1.88230713 5.86496766,2.01811117 C5.98086373,2.11917464 6.06418361,2.24866221 6.12683014,2.40341565 C6.16253866,2.50511076 6.21453527,2.73439851 6.2753024,3.09570042" transform="translate(.105 2.176)"/>
        <path d="M1.2529305,7.57976025 C1.3393827,8.07054973 2.10805556,8.46911879 2.96631295,8.46911879 C3.82644974,8.46911879 4.45416792,8.07054973 4.37147451,7.57976025 C4.28063705,7.08833913 3.51384358,6.69103336 2.65245386,6.69103336 C1.78981122,6.69103336 1.16585183,7.08833913 1.2529305,7.57976025 L1.2529305,7.57976025 Z M0.0425996369,0.224234574 L1.09255539,6.19645401 L3.98807778,6.19645401 L2.93874848,0.224234574 L0.0425996369,0.224234574 L0.0425996369,0.224234574 Z" transform="translate(18.225 2.287)"/>
      </g>
      <g transform="matrix(1 0 0 -1 .218 9.819)">
        <path d="M8.96237109,4.76103867 C8.95046825,4.46795461 8.8990981,4.20961111 8.81953701,3.76682678 L8.29455914,0.774084777 C8.24945364,0.510056462 8.34655575,0.302876348 8.58962427,0.15570267 L8.57145678,0.0521126133 L5.54876195,0.0464277931 L5.52558273,0.807562052 C5.08329827,0.537848916 4.54892341,0.313614342 4.07155689,0.182863478 C3.59043158,0.0552708467 3.20264959,0.00284417167 2.61690458,0.00284417167 C1.64087172,0.00284417167 1.08582351,0.101381055 0.698041524,0.444996853 C0.303994883,0.798718998 0.114175912,1.03053333 0.135475731,1.51374305 C0.14612564,1.79419418 0.290839113,2.15486444 0.499452041,2.40120664 C0.708691434,2.65828685 0.994359587,2.82125169 1.30633928,2.96905702 C1.61831898,3.11686234 1.98730701,3.22613722 2.51479075,3.31583105 C3.0529244,3.39984006 3.79967097,3.49079718 4.79700365,3.57480619 C5.31634334,3.61838981 5.63584062,3.73777104 5.78493935,3.79525088 C5.99605814,3.8779966 6.07937801,3.96958537 6.11007481,4.14139327 C6.16395082,4.44268874 6.06810164,4.62270805 5.66653742,4.70482211 C4.57147616,4.92274022 2.5354641,4.56459655 1.48237602,4.30119988 L2.05183293,5.85631403 C3.44509164,6.0615992 4.73999531,6.19235006 6.11070128,6.19235006 C8.28641509,6.19235006 8.97991212,5.56386161 8.96237109,4.76103867 M5.84132122,2.80040735 C5.71164291,2.75619208 5.54312376,2.70755529 5.33889609,2.66018179 C5.13592135,2.61154499 4.76129513,2.55090691 4.2137645,2.46058143 C3.84164414,2.40120664 3.57727581,2.32225081 3.43444173,2.21487087 C3.29536645,2.11254411 3.21267303,1.98495148 3.18322917,1.83082969 C3.15315884,1.6659699 3.21267303,1.53269245 3.34861599,1.43352392 C3.49520886,1.3318288 3.73702445,1.28256036 4.07719508,1.28256036 C4.32966057,1.28256036 4.57648788,1.32045916 4.82018286,1.39752006 C5.06701017,1.48089742 5.27186431,1.58701406 5.43223941,1.7240814 C5.54312376,1.82577651 5.62957597,1.95779067 5.68971663,2.11254411 C5.72730454,2.21234429 5.77742176,2.44226368 5.84132122,2.80040735" transform="translate(34.99 .27)"/>
        <path d="M8.48077506,2.38051933 C7.53857132,2.19228862 7.00795526,2.11964925 6.07577497,2.11964925 C4.6925397,2.11964925 3.59371965,2.81193402 3.65323385,4.08154386 C3.69583348,4.92668713 4.68940737,6.71108903 7.21343586,6.71108903 C8.00716733,6.71108903 8.62862086,6.56960017 9.4643255,6.08954868 L9.83080767,8.16387641 C8.69502617,8.59655439 7.94264141,8.661614 6.96786148,8.650876 C3.66075143,8.61487214 0.481440291,7.09828844 0.0880201146,4.01458932 C-0.312917645,0.881621745 3.4828353,0.0933266789 5.16802682,0.100906439 C6.14092735,0.103433026 7.15266873,0.143858414 8.09675186,0.242395297 L8.48077506,2.38051933 Z" transform="translate(.133 .09)"/>
      </g>
      <path d="M1.87939575,6.31646688 L2.08738221,7.53238675 L5.11634169,8.19687907 L4.79371209,6.31646688 L6.27655533,6.31646688 L5.99527243,5.11317994 L4.55628176,5.11696982 L3.68236273,0.313928404 C3.68236273,0.313928404 0.766793465,0.332877804 0.756143556,0.313928404 L1.62693025,5.10496853 L0.525604344,5.10496853 L0.749252438,6.31646688 L1.87939575,6.31646688 Z" transform="matrix(1 0 0 -1 30.483 9.804)"/>
      <polygon points="3.132 .632 .183 .627 1.666 8.96 4.539 8.878" transform="matrix(1 0 0 -1 43.978 10.122)"/>
      <path d="M0,0 L1.40954681,8.00485847 L3.95174279,8.00485847 L3.7550327,6.98285413 C3.97617494,7.28793948 4.32824841,7.53870322 4.8150119,7.7427251 C5.30553419,7.94485204 5.85745008,8.09518395 6.45760379,8.09518395 C7.12103049,8.09518395 7.53011229,8.05918009 8.02689924,7.80020495 C8.52118032,7.53870322 8.86510974,7.16034685 9.05304931,6.66639914 C9.24349475,6.18066284 9.28296206,5.63428845 9.18022176,5.04054057 C9.00794382,4.05390844 8.5305773,3.27571972 7.74874867,2.70407947 C6.97255822,2.13307086 6.27467593,1.98273895 5.27671679,1.97894907 C4.92339039,1.97894907 4.62832526,2.01621623 4.38275088,2.07622266 C4.14281469,2.13938733 3.95174279,2.21644823 3.80577639,2.30993194 C3.66732757,2.40404729 3.51948177,2.53479816 3.32903633,2.74387321 L2.85542861,0 L0,0 Z M5.27233154,6.63481681 C4.8926936,6.63481681 4.54939064,6.51922546 4.2436756,6.28677948 C3.94171935,6.0543335 3.74939452,5.71577088 3.67108636,5.26414349 C3.5802489,4.74303498 3.63349844,4.36910014 3.83835258,4.1372858 C4.04508611,3.90799806 4.34265711,3.79303836 4.73357142,3.79303836 C4.99668683,3.79303836 5.26982568,3.84041186 5.47029456,3.94021204 C5.71837479,4.0722262 5.88939981,4.21182011 6.03724561,4.43163316 C6.19699424,4.66344749 6.30161394,4.9205277 6.35548995,5.21992823 C6.43818336,5.69113666 6.36864572,6.0448588 6.15126228,6.27730478 C5.94076996,6.51669888 5.65009008,6.63481681 5.27233154,6.63481681 L5.27233154,6.63481681 Z" transform="matrix(1 0 0 -1 17.72 11.557)"/>
      <path d="M5.63818724,2.52658675 L5.86747352,2.36993837 C5.28861963,1.18054766 4.10773264,0.222971281 2.72199151,0.222971281 C1.58871587,0.222971281 0.659667907,0.983473893 0.610803618,2.4122587 C0.519339691,4.97169108 2.89802824,7.3504725 4.8457087,7.3504725 C5.68141334,7.3504725 6.45635086,6.98222249 6.49080645,6.07517784 C6.56222348,4.03938057 3.72746823,3.41657693 1.85934886,3.37425661 C1.79858173,3.16202332 1.77602898,2.94789509 1.78730536,2.62259705 C1.81737569,1.77871707 2.32481254,1.06811455 3.37163597,1.06811455 C4.27625179,1.06811455 5.18086761,1.80271965 5.63818724,2.52658675 M5.38384235,6.20277047 C5.36755425,6.6847169 5.12761806,7.00812 4.63458991,7.00812 C3.4468118,7.00812 2.18385786,4.6621842 1.96584795,3.71660911 C3.91478134,3.71660911 5.43145371,4.88641878 5.38384235,6.20277047" transform="matrix(1 0 0 -1 64.904 11.858)"/>
      <path d="M0.626465249,6.31646688 C0.827560594,6.34362768 1.15144313,6.3789999 1.29114488,6.3789999 C1.50414306,6.3789999 1.70461194,6.33857451 1.71463539,6.12570958 C1.71839418,5.99938024 1.49224022,5.09296724 1.44462886,4.8826289 L0.99294742,2.87462408 C0.811272498,2.05285173 0.613309479,1.19254895 0.437899209,0.51289711 L1.59811285,0.51289711 L2.25026317,3.69386983 C4.24054327,5.78335707 5.00608381,6.46490385 5.47593274,6.46490385 C5.68705153,6.46490385 5.83301793,6.35310238 5.84304138,6.09791712 C5.85494422,5.73029875 5.62879026,4.89526183 5.54985564,4.65586773 L4.88454955,2.33582945 C4.73294496,1.81408929 4.62143414,1.34414415 4.63145759,1.00810811 C4.65213094,0.498369237 4.95721952,0.272239722 5.41078036,0.272239722 C6.2590143,0.272239722 6.87357671,1.1634932 7.41233683,2.03895551 L7.25446758,2.3257231 C7.03708414,1.9738959 6.53403255,1.20581353 6.13748005,1.20581353 C6.01156053,1.20581353 5.89378506,1.28982254 5.88939981,1.50205582 C5.87749697,1.7736639 5.99151364,2.17854943 6.06919533,2.44763091 L6.80842433,5.16560661 C7.00638735,5.91410794 7.10223653,6.39605436 7.09722481,6.65250291 C7.07843085,7.1597152 6.78461865,7.39721436 6.33419013,7.39721436 C5.57115546,7.39721436 4.55690822,6.83504881 2.41126474,4.34446592 L2.37994148,4.34446592 L2.65057447,5.55975414 C2.79716734,6.22424646 2.94062788,6.91779452 3.08032963,7.39721436 C2.33796831,7.12750122 1.27423032,6.82557411 0.616441805,6.69734983 L0.626465249,6.31646688 Z" transform="matrix(1 0 0 -1 58.3 11.904)"/>
    </g>
  </g>
</svg>
