<svg xmlns="http://www.w3.org/2000/svg" width="37" height="26" viewBox="0 0 37 26">
  <g fill="#2A2E32" fill-rule="evenodd" transform="translate(.5 .75)">
    <path d="M35.7510697.723973953C35.3166976.101600532 34.4641396-.0508002657 33.8436278.386755615L.24655814 24.045506C.493813953 24.3997045.902790697 24.6330769 1.36674419 24.632235L1.3684186 24.6330769 1.3684186 24.632235 34.6301861 24.632235C35.3861861 24.632235 35.9991629 24.0157555 35.9991629 23.2544531L35.9991629 1.49201223C35.9949767 1.22636332 35.9144651.959030432 35.7510697.723973953M2.15553489.385773289C1.53586046-.0510809303.682465116.100477874.248093023.722851296.0846976745.957907774.00418604652 1.22608266 0 1.49173156L.000837209302 23.2959915 15.9958605 10.1182342 2.15553489.385773289"/>
  </g>
</svg>
